{"glyphs":{"0":{"ha":743,"x_min":42,"x_max":701,"o":"m 518 487 q 518 694 518 487 q 372 901 518 901 q 225 487 225 901 q 372 72 225 72 q 518 487 518 72 m 585 58 q 567 39 585 58 q 496 -1 550 19 q 365 -22 442 -22 q 225 8 288 -22 q 128 83 163 38 q 74 196 94 128 q 47 325 53 264 q 42 469 42 386 q 49 621 42 551 q 76 763 56 690 q 133 885 97 836 q 229 965 168 933 q 369 996 290 996 q 504 972 447 996 q 596 905 561 949 q 653 814 631 861 q 685 703 675 767 q 701 509 701 594 q 697 368 701 424 q 680 251 692 313 q 644 142 668 189 q 585 58 619 96 z "},"1":{"ha":378,"x_min":6,"x_max":307,"o":"m 294 586 l 301 129 q 300 44 301 63 q 244 -5 299 11 q 149 -21 190 -21 q 107 0 107 -21 q 114 75 107 11 q 139 513 139 275 l 133 725 q 57 797 125 797 l 29 794 q 6 810 6 794 q 122 922 6 844 q 285 1000 238 1000 q 307 972 307 1000 q 301 824 307 943 q 294 586 294 704 z "},"2":{"ha":668,"x_min":28,"x_max":631,"o":"m 413 -14 l 192 -1 q 63 -24 113 -1 q 46 -28 53 -28 q 28 19 28 -28 q 54 130 28 65 q 118 250 81 194 q 256 433 197 371 l 282 461 q 405 622 358 543 q 451 794 451 701 q 383 906 451 882 q 340 912 368 911 q 288 901 313 913 q 250 874 263 890 q 225 810 226 839 q 247 743 222 760 l 254 738 q 283 700 283 725 l 283 699 q 261 640 283 661 q 217 615 239 618 l 193 613 q 123 628 151 613 q 83 667 94 643 q 63 750 63 708 q 152 935 63 868 q 357 1001 242 1001 q 551 942 472 1001 q 631 775 631 882 q 507 521 631 631 l 479 497 q 235 239 293 339 q 214 181 214 204 q 241 162 214 165 q 346 158 268 158 q 600 222 542 158 q 614 226 607 226 q 631 179 631 226 q 611 78 631 132 q 554 3 592 25 q 413 -14 528 -14 z "},"3":{"ha":663,"x_min":38,"x_max":638,"o":"m 183 493 q 174 500 174 493 l 174 503 q 224 592 178 592 l 251 592 q 338 608 301 592 q 394 648 375 625 q 425 703 414 671 q 442 791 442 749 q 429 858 442 833 q 397 893 417 883 q 328 908 367 908 q 257 879 289 908 q 225 801 225 850 q 233 760 225 781 q 242 735 242 739 q 218 703 242 714 q 163 693 194 693 q 108 714 132 693 q 80 755 85 735 q 75 796 75 775 q 122 910 75 864 q 361 990 207 990 q 441 978 393 990 q 521 948 489 967 q 579 888 553 929 q 606 792 606 846 q 588 698 606 739 q 546 633 571 657 q 453 575 493 585 l 436 569 q 428 559 428 564 q 437 553 428 554 q 459 548 446 551 q 507 527 472 544 q 568 483 542 510 q 616 406 594 457 q 638 278 638 356 q 604 137 638 201 q 522 43 571 72 q 347 -21 424 -18 l 314 -22 q 110 33 182 -22 q 38 178 38 88 q 76 301 38 247 q 178 356 114 356 q 241 340 213 356 q 269 296 269 325 q 257 275 269 281 q 225 240 236 263 q 213 200 214 217 l 211 183 q 239 102 211 133 q 311 71 267 71 q 456 308 456 71 q 394 451 456 407 q 235 496 333 496 q 218 496 226 496 l 186 493 l 183 493 z "},"4":{"ha":671,"x_min":0,"x_max":660,"o":"m 196 399 l 311 396 q 407 397 372 396 q 411 597 411 511 l 410 733 q 400 751 410 751 l 383 743 q 292 619 340 696 q 218 489 244 543 l 192 436 q 186 411 186 424 q 196 399 186 399 m 400 254 l 281 256 l 31 253 q 0 281 0 253 l 3 296 q 301 794 92 515 q 425 947 368 885 l 443 965 q 550 1003 479 1003 q 588 981 588 1003 q 565 582 565 785 l 565 406 q 604 408 583 407 l 636 411 q 649 411 646 411 q 660 404 660 411 q 636 328 660 381 q 588 264 613 275 l 568 260 q 582 49 571 103 q 527 -4 582 13 q 423 -21 472 -21 q 374 1 374 -21 q 382 57 374 4 q 400 254 390 110 z "},"5":{"ha":671,"x_min":33,"x_max":633,"o":"m 507 818 l 369 828 q 235 793 240 828 q 213 631 215 701 q 222 617 213 617 q 231 619 225 617 q 346 646 281 646 q 463 626 411 646 q 544 574 515 607 q 594 506 574 540 q 622 431 614 472 q 633 319 633 364 q 553 74 633 172 q 326 -24 474 -24 l 322 -24 q 113 26 193 -24 q 33 178 33 76 q 48 263 33 226 q 83 315 63 299 q 161 353 126 350 l 175 354 q 236 340 207 354 q 265 296 265 325 q 250 273 265 285 q 224 238 235 261 q 211 200 213 215 l 208 183 q 221 120 208 146 q 253 86 233 94 q 307 71 285 71 q 388 103 356 71 q 433 186 421 136 q 451 307 451 264 q 318 544 451 544 q 186 469 236 544 q 126 446 179 446 q 74 468 74 446 l 74 474 q 124 957 104 653 q 143 972 128 969 q 271 975 200 975 l 431 972 q 585 983 558 972 q 597 986 590 986 q 611 972 611 986 q 578 876 611 933 q 507 818 546 818 z "},"6":{"ha":682,"x_min":42,"x_max":649,"o":"m 456 410 q 451 432 456 410 q 418 483 446 454 q 349 511 390 511 q 281 483 308 511 q 242 411 253 454 q 226 294 226 343 q 235 201 226 246 q 272 115 243 156 q 343 75 301 75 q 410 99 385 75 q 449 161 436 124 q 472 274 472 232 q 469 341 472 315 q 456 410 467 367 m 354 -18 q 215 7 274 -18 q 123 70 156 32 q 72 167 90 108 q 42 377 42 261 q 49 568 42 493 q 81 725 57 643 q 144 865 106 807 q 249 961 182 924 q 403 999 315 999 q 533 974 458 999 q 607 918 578 958 q 636 818 636 878 q 619 753 636 779 q 533 701 588 701 q 477 721 503 701 q 451 759 451 740 q 464 796 451 778 q 476 838 476 814 q 386 915 476 915 q 369 914 379 915 q 331 894 358 913 q 282 842 303 875 q 244 738 261 810 q 226 565 226 665 q 235 554 228 554 q 242 557 236 554 q 307 595 258 576 q 408 614 356 614 q 506 596 461 614 q 574 547 550 578 q 615 485 599 517 q 639 419 632 454 q 649 336 649 360 q 572 85 649 188 q 354 -18 494 -18 z "},"7":{"ha":561,"x_min":42,"x_max":556,"o":"m 188 979 l 399 972 q 517 978 471 972 l 532 981 q 556 928 556 981 q 538 835 556 875 q 290 103 290 439 q 301 19 290 38 q 311 0 311 1 q 235 -25 311 -25 q 99 26 99 -25 q 251 507 99 218 q 403 818 403 796 q 392 832 403 829 q 308 835 344 835 q 225 826 271 835 q 153 803 179 817 q 86 756 100 776 l 79 746 q 58 729 69 729 q 42 754 42 729 q 89 972 42 963 q 188 979 117 979 z "},"8":{"ha":689,"x_min":21,"x_max":668,"o":"m 493 258 q 389 442 486 376 q 334 472 344 472 q 312 466 324 472 q 283 444 300 460 q 250 406 265 428 q 211 260 211 353 q 225 168 211 215 q 349 78 254 78 q 458 136 424 78 q 493 258 493 194 m 396 636 q 446 707 431 660 q 461 786 461 754 q 451 845 461 818 q 425 883 440 872 q 358 910 396 908 q 292 897 319 911 q 254 861 265 883 q 236 790 236 825 q 296 680 236 729 q 382 631 356 631 q 396 636 389 631 m 338 -19 q 110 49 200 -19 q 21 243 21 118 q 41 355 21 303 q 90 439 61 407 q 200 522 147 500 l 219 532 q 228 540 228 535 l 221 549 q 74 754 74 610 q 158 931 74 868 q 358 993 242 993 q 458 980 408 993 q 540 947 508 967 q 597 888 572 928 q 621 790 621 849 q 585 675 621 732 q 493 582 549 618 q 482 573 482 576 q 490 563 482 569 q 548 527 513 554 q 606 472 583 500 q 649 394 629 443 q 668 308 668 346 q 665 246 668 271 q 644 169 663 221 q 594 80 626 118 q 496 11 563 42 q 338 -19 429 -19 z "},"9":{"ha":692,"x_min":42,"x_max":650,"o":"m 229 602 q 234 582 229 602 q 268 528 239 561 q 342 494 297 494 q 417 531 388 494 q 465 690 465 589 q 453 793 465 738 q 342 904 425 904 q 274 876 301 904 q 236 804 246 847 q 219 690 219 738 q 229 602 219 643 m 43 647 q 150 931 43 836 q 322 999 231 999 q 472 975 413 999 q 566 915 532 951 q 619 819 600 878 q 650 574 650 726 q 296 -19 650 -19 q 171 0 236 -19 q 42 165 42 39 q 156 292 42 292 q 208 272 185 292 q 231 231 231 251 q 216 186 231 210 q 201 149 201 163 q 296 64 201 64 l 297 64 q 465 440 465 64 q 457 451 464 451 q 450 449 456 451 q 385 410 433 429 q 286 392 336 392 q 108 467 174 392 q 43 647 43 543 z "}," ":{"ha":250,"x_min":0,"x_max":0,"o":""},"!":{"ha":333,"x_min":71,"x_max":264,"o":"m 154 118 l 188 119 q 233 105 221 119 q 244 53 244 90 q 228 -1 244 17 q 166 -18 213 -18 q 101 0 119 -18 q 82 79 82 18 q 100 140 82 140 l 115 129 q 154 118 131 118 m 72 910 q 71 931 71 917 q 94 958 71 944 q 147 978 117 972 q 232 989 200 989 q 264 961 264 989 l 261 944 q 208 326 208 725 q 210 269 208 282 q 210 251 211 256 q 195 240 208 247 q 160 232 182 232 q 110 264 111 232 q 72 910 110 757 z "},"\"":{"ha":381,"x_min":69,"x_max":388,"o":"m 349 987 q 355 986 349 987 q 374 972 360 985 q 388 927 388 960 q 374 848 388 894 q 349 778 361 801 l 336 753 q 318 732 324 732 l 315 732 q 303 742 303 732 q 269 913 303 836 q 257 942 257 939 q 281 975 257 963 q 322 988 306 988 q 349 987 339 989 m 162 987 q 167 986 162 987 q 186 972 172 985 q 200 927 200 960 q 188 848 200 894 q 161 778 175 801 l 149 753 q 131 732 136 732 l 128 732 q 115 742 115 732 q 81 913 115 831 q 69 942 69 939 q 94 975 69 963 q 135 988 118 988 q 162 987 151 989 z "},"#":{"ha":818,"x_min":56,"x_max":761,"o":"m 336 410 l 492 411 l 493 554 l 336 554 l 336 410 m 246 408 l 247 554 l 76 554 q 56 583 56 554 q 115 643 56 643 l 247 643 l 247 767 q 310 826 247 826 q 338 806 338 826 l 338 790 l 336 747 l 336 644 l 493 646 l 493 767 q 556 826 493 826 q 583 806 583 826 q 582 647 582 738 l 740 647 q 761 633 761 647 l 761 629 q 706 554 761 554 l 582 554 l 582 413 l 740 413 q 756 408 750 413 q 761 399 761 403 l 761 394 q 706 319 761 319 l 582 319 l 582 192 q 565 146 582 157 q 508 135 547 135 q 492 154 492 135 l 492 319 l 336 319 l 336 192 q 319 146 336 157 q 263 135 301 135 q 246 154 246 135 l 246 319 l 76 319 q 56 347 56 319 q 115 408 56 408 l 246 408 z "},"$":{"ha":717,"x_min":28,"x_max":696,"o":"m 238 776 q 332 653 238 704 l 332 899 q 267 856 290 886 q 240 800 243 825 l 238 776 m 413 399 l 413 93 q 484 152 458 113 q 510 243 510 192 q 413 399 510 336 m 413 -22 l 411 -75 q 397 -108 411 -96 q 357 -121 382 -121 q 332 -96 332 -121 l 332 -29 q 117 33 207 -29 q 28 199 28 94 l 28 200 q 44 290 28 251 q 83 346 60 328 q 167 386 129 383 l 182 388 q 253 369 221 388 q 285 317 285 350 q 272 293 285 303 q 235 256 249 278 q 219 218 222 233 l 218 203 q 332 81 218 101 l 332 440 q 287 460 317 447 q 235 483 257 472 q 188 510 213 494 q 131 553 163 525 q 65 707 65 611 q 141 905 65 833 q 332 994 217 976 l 332 1043 q 349 1073 332 1061 q 389 1085 367 1085 q 411 1054 411 1085 l 411 1001 q 585 962 514 1001 q 656 853 656 922 q 627 769 656 803 q 554 736 599 736 q 513 744 533 736 q 493 769 493 753 l 499 813 q 472 878 499 857 q 411 904 444 900 l 413 614 q 421 610 415 613 q 453 596 426 608 q 507 570 481 583 q 576 529 533 557 q 639 475 618 501 q 696 311 696 404 q 615 82 696 165 q 413 -22 535 -1 z "},"%":{"ha":807,"x_min":42,"x_max":765,"o":"m 669 223 q 669 320 669 223 q 596 418 669 418 q 522 223 522 418 q 596 28 522 28 q 669 223 669 28 m 718 29 q 596 -21 681 -21 q 469 31 511 -21 q 426 218 426 82 q 469 411 426 354 q 597 468 513 468 q 723 411 681 468 q 765 224 765 354 q 718 29 765 94 m 150 -4 q 98 -31 139 -31 q 57 -15 57 -31 l 61 -4 l 664 976 q 711 996 668 996 q 754 983 754 996 l 753 976 l 150 -4 m 285 738 q 285 836 285 738 q 211 933 285 933 q 138 738 138 933 q 211 543 138 543 q 285 738 285 543 m 333 544 q 211 494 296 494 q 84 546 126 494 q 42 733 42 597 q 85 926 42 869 q 212 983 128 983 q 338 926 296 983 q 381 740 381 869 q 333 544 381 610 z "},"&":{"ha":803,"x_min":43,"x_max":797,"o":"m 358 731 q 367 722 361 722 q 378 728 372 722 q 440 850 440 788 q 425 894 440 879 q 384 908 410 908 q 343 888 358 908 q 328 826 328 867 q 358 731 328 785 m 389 90 q 504 117 453 90 q 375 364 442 219 q 304 515 308 508 q 297 522 300 522 l 289 518 q 204 297 204 438 q 251 149 204 208 q 389 90 297 90 m 253 614 q 256 621 256 617 q 253 631 256 625 q 206 797 206 717 q 262 929 206 878 q 408 981 318 981 q 482 967 446 981 q 550 864 550 940 q 411 635 550 763 q 408 629 408 632 q 610 243 488 443 q 632 383 632 307 q 608 461 629 436 q 606 469 606 465 q 663 489 606 489 q 737 468 719 489 q 754 401 754 447 q 675 143 754 257 q 783 39 743 46 q 797 23 796 35 q 776 3 797 11 q 674 -25 710 -25 q 592 -3 617 -25 q 560 32 582 7 q 369 -22 472 -22 q 135 51 228 -22 q 43 261 43 124 q 239 603 43 446 l 253 614 z "},"'":{"ha":193,"x_min":69,"x_max":200,"o":"m 162 987 q 167 986 162 987 q 186 972 172 985 q 200 927 200 960 q 188 848 200 894 q 161 778 175 801 l 149 753 q 131 732 136 732 l 128 732 q 115 742 115 732 q 81 913 115 831 q 69 942 69 939 q 94 975 69 963 q 135 988 118 988 q 162 987 151 989 z "},"(":{"ha":303,"x_min":57,"x_max":360,"o":"m 208 697 q 199 646 208 697 q 190 481 190 594 q 206 265 190 367 q 246 100 222 164 q 333 -81 294 -31 l 349 -101 q 356 -117 356 -110 q 342 -129 356 -129 l 315 -121 q 287 -104 304 -115 q 225 -45 269 -93 q 147 64 181 3 q 85 237 113 125 q 57 481 57 349 q 83 724 57 613 q 147 898 110 835 q 223 1006 185 961 q 288 1067 261 1050 l 314 1082 q 349 1093 338 1093 q 360 1083 360 1093 q 351 1067 360 1078 q 331 1041 342 1056 q 294 974 321 1026 q 246 861 267 922 q 208 697 225 800 z "},")":{"ha":303,"x_min":-46,"x_max":257,"o":"m 106 264 q 115 315 106 264 q 124 481 124 367 q 108 696 124 594 q 68 861 92 797 q -19 1042 19 992 l -35 1063 q -46 1083 -46 1078 q -36 1093 -46 1093 l 0 1082 q 48 1048 18 1074 q 102 994 78 1022 q 156 916 126 967 q 206 807 185 865 q 257 509 257 669 q 231 238 257 349 q 166 63 204 126 q 90 -44 128 0 q 25 -106 51 -89 l -1 -121 q -29 -129 -17 -129 q -42 -117 -42 -129 q -35 -102 -42 -110 q -17 -80 -28 -94 q 20 -13 -7 -65 q 68 100 47 39 q 106 264 89 161 z "},"*":{"ha":329,"x_min":28,"x_max":301,"o":"m 144 893 q 149 912 149 893 q 141 960 149 931 q 133 990 133 989 q 165 1010 133 1010 q 196 993 196 1010 q 188 956 196 990 q 179 907 179 922 q 183 892 179 892 q 197 900 188 892 q 257 951 224 918 q 270 956 261 956 q 290 940 279 956 q 301 913 301 925 q 285 898 301 901 q 235 882 269 894 q 200 864 200 869 q 213 853 200 858 q 289 826 242 838 q 299 811 299 824 q 290 783 299 799 q 272 767 281 767 q 258 772 264 767 q 242 786 253 776 l 226 803 q 185 831 196 831 q 179 817 179 831 q 188 769 179 803 l 196 735 q 165 715 196 715 q 133 732 133 715 q 141 766 133 733 q 149 815 149 799 q 143 831 149 831 q 72 772 131 831 q 59 768 68 768 q 39 783 50 768 q 28 810 28 799 q 42 826 28 821 q 108 847 89 836 q 126 863 126 858 l 121 869 q 40 897 88 886 q 29 914 29 901 q 39 942 29 926 q 57 957 49 957 q 72 950 65 957 q 144 893 125 893 z "},"+":{"ha":721,"x_min":42,"x_max":678,"o":"m 311 238 l 313 444 l 63 444 q 42 472 42 444 q 101 533 42 533 q 313 535 244 533 q 314 742 314 615 q 386 804 314 804 l 392 804 q 399 799 394 804 q 404 783 404 793 q 403 536 404 608 l 657 538 q 672 533 667 538 q 678 524 678 528 l 678 519 q 622 444 678 444 l 403 444 q 401 226 401 367 q 338 169 401 169 q 311 190 311 169 l 311 238 z "},",":{"ha":301,"x_min":69,"x_max":232,"o":"m 232 58 q 197 -74 232 -18 q 118 -137 161 -129 q 108 -133 108 -137 l 111 -125 q 150 -43 143 -93 l 151 -26 q 132 0 151 -3 l 125 0 q 81 14 93 0 q 69 64 69 28 q 85 117 69 100 q 147 135 101 135 q 213 117 193 135 q 232 58 232 100 z "},"-":{"ha":664,"x_min":61,"x_max":608,"o":"m 115 389 q 590 393 115 389 q 608 378 608 393 q 558 308 608 308 l 79 308 q 61 336 61 308 q 115 389 61 389 z "},".":{"ha":303,"x_min":69,"x_max":232,"o":"m 160 -1 l 126 -3 q 82 11 93 -3 q 70 63 71 25 q 88 118 69 101 q 149 135 106 135 q 212 119 192 135 q 232 67 232 103 q 214 -24 232 -24 l 207 -19 q 160 -1 197 -1 z "},"/":{"ha":533,"x_min":-133,"x_max":631,"o":"m -37 -58 q -93 -87 -53 -87 q -133 -71 -133 -87 q -129 -58 -133 -64 l 533 1019 q 588 1040 544 1040 q 631 1029 631 1040 q -37 -58 631 1028 z "},":":{"ha":301,"x_min":69,"x_max":232,"o":"m 160 -1 l 126 -3 q 81 12 93 -3 q 69 66 69 26 q 89 120 69 106 q 151 135 108 135 q 213 117 194 135 q 232 58 232 100 q 214 -24 232 -24 l 207 -19 q 160 -1 197 -1 m 164 489 l 131 486 q 83 501 97 486 q 69 554 69 517 q 88 608 69 592 q 149 624 106 624 q 212 608 192 624 q 232 530 232 593 q 214 467 232 467 l 207 471 q 164 489 199 489 z "},";":{"ha":301,"x_min":69,"x_max":232,"o":"m 164 489 l 131 486 q 83 501 97 486 q 69 554 69 517 q 88 608 69 592 q 149 624 106 624 q 212 608 192 624 q 232 530 232 593 q 214 467 232 467 l 207 471 q 164 489 199 489 m 232 58 q 197 -74 232 -18 q 118 -137 161 -129 q 108 -133 108 -137 l 111 -125 q 150 -43 143 -93 l 151 -26 q 132 0 151 -3 l 125 0 q 81 14 93 0 q 69 64 69 28 q 85 117 69 100 q 147 135 101 135 q 213 117 193 135 q 232 58 232 100 z "},"<":{"ha":585,"x_min":42,"x_max":543,"o":"m 503 117 q 483 128 493 117 q 164 336 464 150 l 64 399 q 42 432 42 417 q 68 479 42 458 q 506 782 297 656 q 524 789 515 789 q 543 751 543 789 q 517 692 543 713 q 189 469 292 554 q 176 452 176 461 q 186 438 176 443 q 511 228 446 282 q 533 186 533 215 q 503 117 533 117 z "},"=":{"ha":694,"x_min":42,"x_max":651,"o":"m 629 431 q 650 417 650 431 l 650 413 q 594 338 650 338 l 63 338 q 42 367 42 338 q 101 426 42 426 l 629 431 m 103 647 l 631 651 q 646 647 640 651 q 651 638 651 642 l 651 633 q 596 558 651 558 l 64 558 q 43 586 43 558 q 103 647 43 647 z "},">":{"ha":585,"x_min":42,"x_max":543,"o":"m 101 125 q 82 114 92 114 q 58 135 65 114 q 51 174 51 156 q 78 228 51 208 q 332 394 144 281 l 399 435 q 408 447 408 440 q 396 467 408 460 q 128 653 304 542 l 68 689 q 42 748 42 710 q 61 786 42 786 l 79 779 q 453 525 258 672 l 517 476 q 543 436 543 458 q 521 396 543 414 q 101 125 126 153 z "},"?":{"ha":600,"x_min":42,"x_max":575,"o":"m 253 118 l 286 119 q 331 105 319 119 q 343 53 343 90 q 327 -1 343 17 q 265 -18 311 -18 q 199 0 218 -18 q 181 79 181 18 q 199 140 181 140 l 214 129 q 253 118 229 118 m 105 900 q 118 914 105 900 q 190 951 132 928 q 322 975 249 975 q 446 953 396 975 q 519 904 496 932 q 557 840 543 876 q 575 742 575 793 q 547 635 575 690 q 481 542 519 579 q 403 472 442 504 q 308 333 308 392 q 328 272 308 300 q 347 243 347 244 q 319 231 347 231 q 276 241 307 231 q 226 265 244 251 q 192 308 207 279 q 176 365 176 336 q 197 408 176 394 q 422 742 422 568 q 410 824 422 786 q 319 899 386 899 q 216 846 251 899 q 181 717 181 793 q 211 626 181 664 q 222 610 222 614 q 185 594 222 594 q 139 605 168 594 q 91 631 110 615 q 57 680 72 646 q 42 741 42 714 q 44 783 42 768 q 62 835 46 797 q 105 900 78 872 z "},"@":{"ha":1267,"x_min":56,"x_max":1211,"o":"m 856 417 l 851 190 q 868 48 851 90 q 931 6 885 6 q 1008 42 978 6 q 1053 133 1039 78 q 1076 317 1076 229 q 1056 475 1076 404 q 1006 590 1036 546 q 932 668 975 635 q 851 717 889 701 q 772 743 814 733 q 671 756 718 756 q 330 623 454 756 q 206 290 206 490 q 303 -29 206 89 q 586 -147 400 -147 l 633 -142 q 643 -151 643 -142 q 599 -201 643 -178 q 501 -224 554 -224 q 173 -99 290 -224 q 56 231 56 26 l 56 232 q 132 553 56 425 q 308 731 204 672 q 504 811 415 792 q 640 831 592 829 l 661 832 q 860 808 771 832 q 1006 747 950 783 q 1103 659 1061 710 q 1165 565 1144 608 q 1196 472 1185 521 q 1211 344 1211 406 q 1194 210 1211 283 q 1141 72 1176 136 q 1042 -31 1106 8 q 885 -69 979 -69 q 751 -28 792 -69 q 710 104 710 14 l 718 310 q 715 318 718 315 q 708 321 711 321 l 706 321 q 581 281 638 318 q 524 186 524 244 q 540 135 524 156 q 580 114 557 114 q 620 124 603 114 q 640 135 638 133 q 664 85 664 132 q 621 10 664 39 q 531 -18 578 -18 q 451 -3 485 -18 q 402 33 418 13 q 378 78 386 53 q 365 140 365 113 q 471 331 365 260 q 606 387 521 365 q 706 414 690 408 l 715 425 q 719 482 719 447 q 701 533 719 517 q 645 549 682 549 q 585 528 608 549 q 563 476 563 508 l 571 444 q 553 426 569 433 q 521 418 536 419 l 506 417 q 442 438 468 417 q 415 495 415 458 q 440 561 415 532 q 503 603 464 590 q 651 628 576 628 q 750 614 700 628 q 854 500 849 585 q 856 417 856 478 z "},"A":{"ha":796,"x_min":4,"x_max":804,"o":"m 403 796 q 244 521 293 658 l 246 521 q 467 520 439 521 q 499 522 496 519 q 503 529 501 525 q 465 762 479 700 q 438 824 451 824 q 403 796 424 824 m 279 142 l 310 147 q 324 132 324 147 q 304 50 324 83 q 256 3 285 17 q 175 -21 208 -21 q 79 27 111 -21 q 47 172 47 75 q 100 422 47 268 l 19 422 q 4 438 4 422 q 28 487 4 453 q 78 521 51 521 l 140 521 q 372 900 239 740 q 458 978 407 942 q 536 1014 508 1014 q 578 989 564 1014 q 663 563 614 931 q 720 235 679 404 q 796 39 761 67 q 804 25 804 33 q 745 -14 804 4 q 655 -32 686 -32 q 607 -24 624 -32 q 586 -8 590 -17 q 536 250 561 46 l 528 315 q 517 414 522 381 l 507 421 l 217 422 q 200 299 200 351 q 203 222 200 246 q 226 169 207 197 q 279 142 246 142 z "},"B":{"ha":724,"x_min":32,"x_max":711,"o":"m 246 625 l 247 451 l 242 211 q 246 206 243 206 q 250 208 249 206 q 319 247 278 247 q 360 231 360 247 q 380 149 360 178 q 437 121 400 121 q 508 171 474 121 q 542 304 542 221 q 531 371 542 332 q 447 475 508 449 q 303 493 403 493 q 292 508 292 493 q 319 589 292 586 q 399 608 357 589 q 482 768 482 647 q 332 899 482 899 l 289 896 q 261 875 264 890 l 261 871 q 246 625 246 815 m 42 -19 l 44 -4 q 68 199 58 21 q 78 533 78 378 q 72 781 78 688 q 38 917 65 875 q 32 933 32 924 q 49 950 32 943 q 358 994 163 994 q 464 981 407 994 q 558 949 521 968 q 624 889 594 929 q 658 793 654 849 q 492 561 658 592 q 483 555 483 558 q 490 547 483 551 q 635 478 576 533 q 688 396 664 451 q 711 268 711 340 q 657 92 711 175 q 528 -6 613 24 q 422 -22 481 -22 q 238 71 276 -22 q 233 75 236 75 l 228 69 q 61 -32 199 -28 q 42 -19 42 -32 z "},"C":{"ha":703,"x_min":38,"x_max":676,"o":"m 642 318 q 668 251 668 318 q 643 132 668 185 q 583 50 618 79 q 503 3 547 21 q 225 6 354 -62 q 125 88 160 40 q 69 203 90 136 q 38 413 38 303 q 58 618 38 522 q 122 801 79 714 q 244 940 165 888 q 428 993 324 993 q 520 978 472 993 q 599 942 568 964 q 653 876 629 921 q 676 772 676 832 q 646 657 676 708 q 601 615 632 633 q 529 596 571 596 q 439 653 465 596 q 428 701 428 675 q 446 732 428 728 q 482 763 465 738 q 499 821 499 788 q 485 867 499 847 q 408 901 458 901 q 317 856 358 901 q 256 740 276 810 q 214 485 214 601 q 246 297 214 368 q 344 181 285 210 q 431 163 382 163 q 578 236 513 163 q 624 306 606 265 q 642 318 631 318 z "},"D":{"ha":729,"x_min":43,"x_max":715,"o":"m 333 900 q 290 892 308 900 q 272 871 272 883 q 256 523 256 813 q 254 199 256 233 q 336 157 281 157 q 485 266 435 157 q 535 540 535 375 q 486 802 535 704 q 333 900 438 900 m 68 -15 q 47 -3 47 -12 l 51 14 q 86 554 86 89 q 74 832 86 776 q 56 903 63 888 l 49 917 q 43 933 43 922 q 60 950 43 943 q 344 993 168 993 q 715 521 715 993 q 650 183 715 336 q 589 83 624 125 q 498 12 554 40 q 374 -17 442 -17 q 338 -12 360 -15 q 274 8 317 -10 q 217 56 232 26 q 68 -15 165 -15 z "},"E":{"ha":664,"x_min":-22,"x_max":644,"o":"m 644 172 q 583 28 644 75 q 410 -19 521 -19 q 148 99 232 -19 q 64 407 64 217 q 67 496 64 438 l -11 496 q -22 504 -22 496 q 1 561 -22 528 q 53 594 25 594 l 79 594 q 138 771 97 694 q 224 889 179 847 q 324 956 269 931 q 504 997 410 997 q 622 967 599 997 q 633 910 633 951 q 624 869 633 869 q 611 875 622 869 q 521 892 575 892 q 337 808 403 892 q 249 594 271 725 q 535 596 354 596 q 549 586 549 596 q 526 530 549 564 q 476 496 504 496 l 238 496 q 236 423 236 479 q 256 305 236 367 q 331 200 276 243 q 474 157 386 157 q 621 196 561 157 q 633 201 628 201 q 644 172 644 201 z "},"F":{"ha":565,"x_min":4,"x_max":597,"o":"m 100 250 l 108 496 l 15 496 q 4 504 4 496 q 28 562 4 529 q 79 594 51 594 l 108 594 q 103 750 106 703 q 75 881 97 835 l 68 894 q 63 911 63 901 q 78 928 63 921 q 123 944 93 935 q 250 970 153 954 q 462 986 347 986 q 587 969 576 986 q 597 917 597 953 q 588 882 597 882 q 578 883 586 882 q 510 889 556 889 q 411 881 464 889 q 331 864 358 872 l 304 854 q 288 835 293 851 q 276 594 276 753 l 501 594 q 514 586 514 594 q 492 528 514 561 q 442 494 469 494 l 276 496 l 286 79 q 276 35 286 49 q 187 -17 250 0 q 82 -35 124 -35 q 71 -21 71 -35 q 72 -10 71 -14 q 100 250 89 14 z "},"G":{"ha":746,"x_min":38,"x_max":713,"o":"m 524 408 q 485 443 524 440 l 386 443 q 375 450 375 443 q 404 515 383 490 q 439 542 425 539 q 567 547 478 547 q 678 547 656 547 q 706 542 700 546 q 711 526 711 535 q 706 410 711 517 q 701 220 701 304 q 707 115 701 136 q 713 88 713 93 q 674 40 713 65 q 556 -6 635 14 q 383 -25 478 -25 q 164 63 257 -25 q 65 214 92 132 q 38 444 38 296 q 442 996 38 996 q 564 981 510 996 q 659 924 618 967 q 700 815 700 882 q 686 744 700 781 q 575 671 661 671 q 503 695 528 671 q 479 763 479 719 q 497 783 479 779 q 524 835 524 799 q 496 892 524 872 q 438 913 468 913 q 325 865 371 913 q 258 739 279 817 q 224 456 224 600 q 339 142 224 219 q 429 111 382 111 q 522 143 517 111 q 526 276 526 186 l 524 408 z "},"H":{"ha":763,"x_min":21,"x_max":725,"o":"m 275 615 l 275 596 l 521 596 l 521 599 q 522 683 522 632 q 521 772 522 733 q 518 836 519 810 q 515 882 517 863 q 511 912 513 901 q 510 931 510 922 q 525 950 510 939 q 674 994 592 994 q 725 976 725 994 q 722 961 725 975 q 689 596 696 829 q 685 346 685 363 q 710 47 685 131 q 714 28 714 36 q 703 11 714 21 q 569 -22 651 -22 q 510 14 517 -22 q 506 74 506 33 q 510 200 506 115 q 518 496 515 285 l 275 496 q 294 51 275 179 q 231 -3 294 18 q 125 -25 167 -25 q 83 -12 83 -25 q 88 8 83 -4 q 114 478 114 67 l 114 496 l 32 496 q 21 504 21 496 q 26 526 21 507 q 52 569 32 544 q 97 594 72 594 l 113 594 q 81 910 113 868 l 75 918 q 67 935 67 925 q 82 953 67 946 q 156 978 103 965 q 253 990 210 990 q 296 971 296 990 l 296 967 q 275 615 279 822 z "},"I":{"ha":340,"x_min":56,"x_max":285,"o":"m 264 615 q 283 51 264 185 q 219 -3 283 18 q 114 -25 156 -25 q 72 -12 72 -25 q 76 8 72 -4 q 103 478 103 67 q 69 910 103 867 l 64 918 q 56 935 56 925 q 71 953 56 946 q 145 978 92 965 q 242 990 199 990 q 285 971 285 990 l 285 967 q 264 615 268 822 z "},"J":{"ha":343,"x_min":-31,"x_max":289,"o":"m 104 257 l 107 538 q 75 910 107 867 q 60 937 60 929 q 78 955 60 944 q 151 978 97 965 q 247 990 206 990 q 289 971 289 990 l 286 953 q 269 660 269 803 q 278 340 269 517 q 286 81 286 164 q 199 -113 286 -32 q -7 -201 113 -194 q -31 -185 -31 -199 q -24 -169 -31 -175 q -10 -156 -18 -164 q 21 -112 -1 -147 q 60 -34 43 -78 q 90 88 76 10 q 104 257 104 165 z "},"K":{"ha":688,"x_min":32,"x_max":726,"o":"m 425 850 q 443 873 425 850 q 498 935 461 896 q 558 985 535 975 q 654 994 582 994 q 726 976 726 994 q 711 961 726 969 q 669 935 696 953 q 559 836 643 917 q 390 647 475 756 q 388 640 388 644 q 395 633 388 635 q 417 629 403 632 q 467 608 431 626 q 533 560 504 589 q 590 473 563 532 q 621 362 617 414 q 629 268 625 310 q 651 149 633 226 q 692 56 668 71 q 699 42 699 50 q 638 1 699 19 q 528 -18 576 -18 q 474 21 481 -18 q 464 219 467 63 l 464 275 q 422 486 464 421 q 357 550 386 543 q 333 557 335 557 l 318 550 q 265 475 285 511 q 244 422 246 439 l 242 404 q 258 69 242 208 q 261 50 261 53 q 197 -3 261 19 q 91 -25 132 -25 q 50 -12 50 -25 q 54 8 50 -4 q 74 210 68 39 q 81 523 81 382 q 75 751 81 664 q 47 910 67 883 q 32 935 32 929 q 103 972 32 954 q 219 990 175 990 q 263 971 263 990 l 261 953 q 243 632 243 803 q 249 618 243 618 q 264 631 256 618 q 288 665 272 643 q 347 746 304 688 q 425 850 389 804 z "},"L":{"ha":619,"x_min":24,"x_max":610,"o":"m 428 1 l 349 3 q 315 3 332 3 l 63 -10 q 42 4 42 -10 q 46 24 42 8 q 66 226 60 56 q 72 538 72 397 q 67 767 72 679 q 39 925 58 899 q 24 950 24 944 q 99 989 24 972 q 206 1006 174 1006 q 247 1002 239 1006 q 256 988 256 999 q 250 917 256 976 q 236 506 236 740 q 247 132 236 272 q 274 106 247 117 q 339 94 300 94 q 475 304 475 94 q 469 376 475 363 q 463 394 463 390 q 482 408 463 408 q 523 393 497 408 q 565 355 549 378 q 596 283 582 332 q 610 167 610 233 q 569 1 610 1 q 428 1 499 1 z "},"M":{"ha":965,"x_min":35,"x_max":938,"o":"m 75 540 l 68 803 q 54 901 68 865 q 40 940 40 938 q 134 988 40 971 q 277 1004 228 1004 q 331 981 326 1004 q 478 439 418 590 q 492 422 485 422 q 506 435 500 422 q 669 954 599 697 q 697 980 675 971 q 774 997 719 989 q 883 1006 829 1006 q 938 983 938 1006 q 933 962 938 982 q 925 913 929 942 q 915 842 921 883 q 899 622 903 746 q 896 372 896 497 l 899 226 q 912 84 899 126 q 925 35 925 42 q 915 21 925 29 q 785 -14 872 -14 q 722 24 729 -14 q 718 85 718 43 q 726 346 718 128 q 735 663 735 564 q 724 763 735 763 q 722 762 722 763 q 718 760 722 761 q 697 717 714 758 q 628 511 679 675 q 535 205 576 347 q 489 51 493 63 q 431 14 474 14 q 397 29 410 14 q 239 617 353 235 l 200 743 q 194 750 197 750 q 185 740 188 750 q 179 385 179 650 q 199 51 179 121 q 200 43 200 49 q 154 1 200 14 q 72 -12 108 -12 q 35 4 35 -12 q 42 26 35 6 q 69 232 63 97 q 75 540 75 367 z "},"N":{"ha":739,"x_min":42,"x_max":697,"o":"m 568 435 l 567 600 q 550 926 567 846 q 547 942 547 936 q 594 982 547 965 q 669 999 642 999 q 697 982 697 999 q 694 967 697 981 q 663 424 663 796 q 692 58 663 169 q 697 39 697 40 q 633 -9 697 10 q 543 -28 569 -28 q 486 -8 501 -28 q 387 210 456 31 q 267 546 318 390 l 214 701 q 207 708 211 708 q 194 699 201 708 q 188 440 188 569 q 190 242 188 311 q 194 136 192 172 q 200 78 197 100 q 205 47 203 57 q 207 33 207 38 q 161 -8 207 7 q 78 -22 115 -22 q 42 -6 42 -22 q 46 15 42 3 q 56 47 50 28 q 75 224 69 96 q 81 517 81 353 q 76 757 81 682 q 51 921 69 879 q 47 932 47 925 q 121 975 47 954 q 235 996 194 996 q 283 994 276 996 q 307 972 303 996 q 420 629 347 826 q 550 328 493 432 q 561 321 557 321 q 568 435 568 321 z "},"O":{"ha":781,"x_min":28,"x_max":753,"o":"m 406 892 q 322 856 356 892 q 264 694 264 792 q 314 576 264 596 q 326 558 326 572 q 299 488 326 517 q 231 454 271 460 q 218 444 218 454 q 217 401 217 429 q 219 338 217 372 q 233 258 222 304 q 260 177 243 211 q 310 119 278 143 q 395 94 343 94 q 489 136 447 94 q 547 244 531 178 q 578 469 578 361 q 564 658 578 576 q 531 783 550 740 q 486 853 513 826 q 442 885 460 879 q 406 892 424 892 m 153 754 l 158 763 q 203 873 172 826 q 266 942 235 919 q 336 978 297 965 q 426 994 388 994 q 587 951 519 994 q 689 835 654 908 q 753 517 753 694 q 614 82 753 218 q 464 -8 546 15 q 365 -24 413 -24 q 110 95 192 -24 q 28 396 28 214 q 46 590 28 501 q 83 714 64 678 l 101 750 q 119 763 107 763 q 138 760 132 763 q 148 756 144 758 q 153 754 151 754 z "},"P":{"ha":688,"x_min":36,"x_max":696,"o":"m 357 582 q 378 571 363 582 q 410 560 393 560 l 411 560 q 486 597 458 560 q 517 672 514 635 l 521 710 q 505 801 521 763 q 468 858 489 839 q 419 886 447 876 q 347 900 385 900 q 285 892 308 900 q 258 878 261 885 l 257 869 q 244 534 244 682 q 249 279 244 386 q 259 115 254 172 q 264 51 264 57 q 203 -4 264 17 q 82 -25 142 -25 q 54 -11 54 -25 q 58 8 54 -7 q 85 576 85 69 q 44 918 85 875 q 36 935 36 926 q 56 956 36 944 q 169 981 76 967 q 367 996 263 996 q 613 907 531 996 q 696 695 696 818 q 628 482 696 572 q 453 392 561 392 q 383 404 418 392 q 314 508 314 429 q 325 553 314 525 q 357 582 336 582 z "},"Q":{"ha":781,"x_min":25,"x_max":754,"o":"m 317 842 q 258 680 258 778 q 308 563 258 582 q 321 544 321 558 q 293 474 321 503 q 225 440 265 446 q 213 431 213 440 q 211 387 211 415 q 214 324 211 358 q 227 244 217 290 q 255 163 238 197 q 305 105 272 129 q 381 81 338 81 q 460 106 424 81 q 393 208 428 178 l 382 218 q 378 229 378 224 q 406 244 378 244 q 522 185 463 244 q 575 467 575 293 q 482 839 575 747 q 396 878 442 878 q 317 842 350 878 m 150 754 l 156 763 q 201 873 169 826 q 263 942 232 919 q 333 978 294 965 q 424 994 385 994 q 584 951 517 994 q 686 835 651 908 q 750 517 750 694 q 608 76 750 218 q 736 4 674 4 q 754 -8 754 4 q 703 -56 754 -31 q 593 -82 651 -82 l 549 -78 q 519 -65 531 -75 q 506 -36 508 -54 l 496 3 q 363 -24 431 -24 q 107 95 189 -24 q 25 396 25 214 q 43 590 25 501 q 81 714 61 678 l 99 750 q 117 763 104 763 q 135 760 129 763 q 145 756 142 758 q 150 754 149 754 z "},"R":{"ha":733,"x_min":40,"x_max":751,"o":"m 506 526 q 490 517 490 522 q 524 500 490 513 q 587 461 557 488 q 629 397 617 435 q 649 275 649 340 q 658 167 649 210 q 682 103 668 125 q 733 44 710 56 l 743 39 q 751 25 751 33 q 683 -12 751 4 q 578 -28 615 -28 q 484 31 504 -28 q 464 233 464 90 l 464 310 q 392 464 464 431 q 325 476 364 476 l 324 476 q 311 501 311 476 q 326 550 311 525 q 351 575 340 575 q 431 592 397 575 q 479 635 464 610 q 514 725 511 688 l 514 743 q 497 830 514 794 q 456 879 481 865 q 371 901 414 901 q 300 894 328 901 q 261 871 261 883 q 249 520 249 689 q 253 262 249 351 q 263 117 258 172 q 268 53 268 63 q 258 28 268 35 q 79 -25 201 -25 q 58 -11 58 -25 q 63 8 58 -7 q 83 211 76 40 q 89 523 89 382 q 83 751 89 664 q 56 910 75 883 q 40 937 40 929 q 56 953 40 944 q 378 994 144 994 q 658 889 565 994 q 708 743 708 831 q 688 649 708 690 q 636 585 667 607 q 526 531 578 540 l 506 526 z "},"S":{"ha":708,"x_min":18,"x_max":686,"o":"m 483 769 l 489 813 q 439 894 489 876 q 379 907 400 907 l 378 907 q 306 894 336 907 q 261 861 275 881 q 228 776 232 821 q 275 685 228 724 q 390 619 322 647 q 524 557 457 590 q 639 461 592 524 q 686 311 686 399 q 578 56 686 140 q 334 -29 471 -29 q 108 33 197 -29 q 18 199 18 94 l 18 200 q 34 290 18 251 q 72 346 50 328 q 156 386 118 383 l 172 388 q 243 369 211 388 q 275 317 275 350 q 257 289 275 300 q 226 256 239 278 q 211 218 213 233 l 208 203 q 286 90 208 118 q 331 81 314 81 q 453 126 407 81 q 500 243 500 172 q 428 381 500 328 q 310 446 374 419 q 225 483 247 472 q 178 510 203 494 q 122 553 153 525 q 56 710 56 611 q 110 878 56 810 q 401 1001 207 1001 q 575 962 504 1001 q 646 853 646 922 q 617 769 646 803 q 544 736 589 736 q 503 744 524 736 q 483 769 483 753 z "},"T":{"ha":554,"x_min":-33,"x_max":563,"o":"m 150 989 l 350 978 q 542 1010 483 978 q 556 1015 550 1015 q 563 996 563 1015 q 539 932 563 976 q 439 864 504 864 l 363 865 q 349 853 351 865 q 339 412 339 649 q 358 56 339 175 l 358 49 q 292 -7 358 14 q 168 -28 226 -28 q 140 -12 140 -28 q 144 7 140 -8 q 172 303 160 38 q 183 703 183 568 l 181 854 q 172 864 181 863 q 106 869 143 869 q -6 839 31 869 q -24 832 -15 832 q -33 843 -33 832 q -16 889 -33 860 q 21 939 1 918 q 150 989 68 989 z "},"U":{"ha":758,"x_min":40,"x_max":721,"o":"m 71 242 l 81 632 q 76 781 81 722 q 53 911 69 885 l 47 919 q 40 933 40 925 q 110 976 40 960 q 226 992 179 992 q 274 965 274 992 l 272 950 q 249 624 253 813 q 244 378 244 436 q 249 281 244 319 q 253 235 253 242 q 260 212 254 229 q 276 181 267 194 q 347 147 301 147 q 424 168 393 147 q 471 219 456 189 q 510 332 503 285 l 513 353 q 519 586 519 451 q 518 763 519 721 q 514 831 517 804 q 509 879 511 858 q 506 912 507 900 q 504 925 504 924 q 519 950 504 940 q 592 981 543 968 q 681 993 642 993 q 719 975 719 993 q 713 929 719 972 q 682 404 682 740 q 715 50 682 156 q 721 27 721 33 q 710 11 721 21 q 599 -21 668 -21 q 525 14 531 -21 q 517 86 518 32 l 515 103 q 510 115 515 115 l 494 106 q 433 31 468 61 q 367 -10 399 1 q 277 -26 321 -26 q 190 -3 233 -26 q 124 50 146 19 q 89 122 103 81 q 71 242 71 182 z "},"V":{"ha":724,"x_min":-33,"x_max":747,"o":"m 188 325 q 143 524 179 356 q 69 792 107 692 q -19 925 32 892 q -33 943 -33 932 q 42 986 -33 969 q 158 1003 117 1003 q 207 979 199 1003 q 271 749 232 928 q 388 276 350 374 q 408 257 396 257 q 434 281 421 257 q 470 351 447 306 q 532 511 493 396 q 571 711 571 626 q 485 896 571 842 q 478 914 478 904 q 558 972 478 943 q 704 1001 639 1001 q 747 961 747 1001 q 697 672 747 836 q 578 366 647 507 q 449 122 508 225 q 329 -37 354 -37 q 306 -18 317 -37 q 206 256 264 42 l 188 325 z "},"W":{"ha":1157,"x_min":-33,"x_max":1171,"o":"m 516 493 q 523 510 516 493 q 538 565 529 528 q 547 633 547 601 q 525 749 547 664 q 458 917 486 890 l 450 926 q 436 946 436 935 q 499 986 436 969 q 601 1003 561 1003 q 647 979 640 1003 q 684 831 664 928 q 719 663 704 733 q 742 556 733 593 q 764 458 750 518 q 817 276 790 347 q 837 257 825 257 q 862 281 849 257 q 898 351 875 306 q 959 511 921 396 q 997 711 997 626 q 911 896 997 842 q 904 914 904 904 q 914 933 904 924 q 942 952 924 940 q 1014 983 960 964 q 1111 1001 1068 1001 q 1163 990 1154 1001 q 1171 947 1171 978 q 1091 590 1171 813 q 922 197 1011 367 q 788 -17 832 26 q 760 -37 764 -37 q 736 -18 747 -37 q 633 292 689 61 q 604 414 608 400 q 597 428 600 428 q 585 414 590 428 q 476 194 536 301 q 381 35 417 86 l 346 -17 q 318 -36 332 -36 q 293 -18 304 -36 q 201 256 256 53 l 183 325 q 158 431 178 344 q 46 842 85 760 q 8 901 24 888 q -18 918 -8 915 q -33 935 -33 925 q -22 956 -33 946 q 51 985 -6 968 q 147 1003 108 1003 q 193 979 186 1003 q 258 749 221 928 q 375 276 338 374 q 394 257 382 257 q 417 278 407 257 q 466 374 429 290 q 516 493 503 458 z "},"X":{"ha":822,"x_min":-12,"x_max":828,"o":"m 762 906 q 747 890 762 906 q 699 832 732 874 q 591 674 667 790 q 515 538 515 558 l 518 528 q 810 75 686 139 q 825 58 825 69 q 749 6 825 33 q 669 -10 704 -10 q 619 -3 633 -10 q 589 22 604 4 q 562 59 574 40 q 531 117 550 78 q 498 188 513 156 q 457 281 483 221 q 408 389 431 340 q 399 396 404 396 q 388 388 393 396 q 225 47 281 207 q 164 -5 218 17 q 49 -26 110 -26 q -12 -8 -12 -26 q -3 6 -12 -1 q 17 24 6 14 q 63 76 28 35 q 136 168 99 117 q 335 510 235 306 q 339 524 339 518 l 336 533 q 142 889 228 799 q 103 915 121 910 q 89 936 89 924 q 160 980 89 961 q 270 999 231 999 q 325 974 310 999 q 358 906 340 949 q 394 814 375 863 q 451 675 443 690 q 465 660 460 660 q 474 667 469 660 q 617 947 558 818 q 672 983 626 974 q 772 993 717 993 q 828 978 828 993 q 819 962 828 969 q 801 947 810 954 q 762 906 792 939 z "},"Y":{"ha":735,"x_min":-35,"x_max":786,"o":"m 542 903 l 536 954 q 600 990 536 979 q 725 1000 664 1000 q 786 979 786 1000 q 772 956 786 969 q 641 769 718 899 q 514 539 564 640 l 464 439 q 439 323 439 386 q 443 198 439 260 q 451 93 447 136 q 456 43 456 50 q 392 -13 456 8 q 287 -35 328 -35 q 246 -19 246 -35 l 250 -1 q 274 299 274 125 q 260 406 274 342 l 256 424 q 89 778 167 664 q -8 897 22 879 l -21 906 q -35 925 -35 914 q 38 974 -35 949 q 147 999 110 999 q 196 976 183 999 q 390 554 321 715 q 402 546 394 546 q 420 563 410 546 q 451 615 431 579 q 507 744 472 651 q 542 903 542 836 z "},"Z":{"ha":751,"x_min":-3,"x_max":715,"o":"m 469 975 l 686 983 q 710 958 710 983 q 488 542 710 911 q 265 122 265 174 q 376 83 265 83 q 521 113 457 83 q 585 208 585 143 q 554 269 585 249 q 483 290 524 290 q 463 313 463 290 q 508 393 463 358 q 606 428 553 428 q 658 413 631 428 q 715 283 715 382 q 639 14 715 133 q 610 -10 624 -10 l 604 -10 q 404 -4 511 -4 l 126 -11 l 22 -8 q -3 12 -3 -6 q 24 88 -3 29 q 169 344 51 147 q 319 600 286 542 q 436 831 394 736 l 451 863 q 454 874 454 871 q 394 889 454 889 q 285 872 335 889 q 204 832 236 856 q 114 743 139 783 l 103 726 q 81 700 90 703 l 76 700 q 62 705 68 700 q 56 717 56 710 q 81 944 56 860 q 97 966 83 956 q 147 978 111 976 q 256 979 182 979 l 469 975 z "},"[":{"ha":260,"x_min":69,"x_max":260,"o":"m 72 479 l 69 961 q 86 1003 69 979 q 165 1056 104 1025 q 243 1086 226 1086 q 260 1080 260 1086 q 254 1068 260 1074 q 196 956 196 1001 q 189 449 189 714 l 190 236 l 194 42 q 195 4 194 22 q 210 -42 196 -14 q 239 -89 225 -71 l 254 -107 q 260 -117 260 -112 q 249 -125 260 -125 q 197 -110 238 -125 q 113 -63 157 -94 q 69 3 69 -32 q 72 479 72 311 z "},"\\":{"ha":811,"x_min":-65,"x_max":699,"o":"m 657 -87 q 626 -80 640 -87 q 603 -58 613 -72 q -65 1029 -65 1028 q -36 1040 -65 1040 q 28 1025 17 1040 l 694 -58 q 699 -71 699 -64 q 657 -87 699 -87 z "},"]":{"ha":257,"x_min":-7,"x_max":183,"o":"m 183 961 l 181 479 l 183 3 q 140 -63 183 -32 q 56 -110 96 -94 q 4 -125 15 -125 q -7 -117 -7 -125 q -1 -107 -7 -112 q 57 7 57 -39 l 64 353 l 64 449 q 57 956 64 714 q 14 1050 57 996 l -1 1068 q -7 1080 -7 1074 q 10 1086 -7 1086 q 88 1056 26 1086 q 167 1003 149 1025 q 183 961 183 979 z "},"^":{"ha":418,"x_min":56,"x_max":363,"o":"m 363 285 q 351 272 363 272 q 210 360 340 272 q 68 272 81 272 q 56 283 56 272 l 58 294 q 154 436 104 382 q 173 443 160 443 q 210 424 186 443 q 249 443 233 443 l 265 436 q 347 319 307 394 l 361 294 q 363 285 363 290 z "},"_":{"ha":664,"x_min":61,"x_max":608,"o":"m 115 -15 q 590 -11 115 -15 q 608 -26 608 -11 q 558 -96 608 -96 l 79 -96 q 61 -69 61 -96 q 115 -15 61 -15 z "},"`":{"ha":581,"x_min":181,"x_max":367,"o":"m 367 733 q 367 729 367 733 q 363 720 367 725 q 353 715 360 715 q 283 756 347 715 q 200 812 219 797 q 181 841 181 826 q 208 876 181 856 q 247 896 235 896 l 264 889 q 326 806 285 869 q 367 733 367 742 z "},"a":{"ha":549,"x_min":15,"x_max":549,"o":"m 506 417 l 503 239 q 543 17 503 54 q 549 4 549 11 q 459 -17 549 -17 q 364 36 369 -17 q 363 88 363 49 l 368 310 q 357 319 368 319 q 232 282 290 319 q 174 186 174 244 q 190 135 174 156 q 231 114 207 114 q 272 124 256 114 q 290 135 288 133 q 314 85 314 132 q 271 10 314 39 q 181 -18 228 -18 q 99 -1 133 -18 q 50 36 65 15 q 25 83 35 57 q 15 139 15 115 q 76 294 15 236 q 233 378 138 353 q 365 424 360 403 q 369 475 369 439 q 294 549 369 549 q 238 528 263 549 q 213 478 213 508 l 221 444 q 171 417 218 421 l 156 415 q 90 436 114 415 q 65 492 65 457 q 80 541 65 514 q 117 585 94 568 q 185 615 139 601 q 275 628 232 628 q 342 625 318 628 q 406 612 365 622 q 474 572 447 601 q 503 510 501 543 q 506 417 506 478 z "},"b":{"ha":582,"x_min":7,"x_max":561,"o":"m 322 479 l 290 471 q 265 517 265 471 q 299 592 265 564 q 386 621 333 621 q 449 603 415 621 q 504 560 482 586 q 544 480 526 535 q 561 351 561 425 q 470 76 561 182 q 207 -29 379 -29 q 108 -19 157 -29 l 94 -17 q 74 3 76 -11 q 69 140 69 32 l 78 590 q 72 750 78 694 l 69 769 q 53 836 67 808 q 28 872 40 864 l 17 879 q 7 892 7 885 q 76 941 7 913 q 178 969 146 969 q 211 953 210 969 q 221 711 221 868 l 214 378 q 226 76 214 160 q 270 57 228 57 q 343 81 313 57 q 389 143 374 104 q 417 300 417 214 q 406 388 417 340 q 322 479 386 479 z "},"c":{"ha":528,"x_min":35,"x_max":500,"o":"m 496 160 q 433 28 496 81 q 282 -24 369 -24 q 94 53 154 -24 q 35 263 35 131 q 97 511 35 403 q 185 599 128 567 q 318 631 242 631 q 481 553 433 631 q 500 478 500 521 q 444 378 500 411 q 403 365 422 365 q 373 367 385 365 q 342 386 361 369 q 322 432 322 403 q 346 457 324 447 q 367 501 367 469 q 300 556 367 556 q 260 541 283 556 q 222 503 238 526 q 194 431 207 481 q 181 337 181 382 q 184 269 181 292 q 199 206 188 246 q 244 142 211 167 q 325 117 276 117 q 428 165 383 117 q 457 213 446 185 q 471 224 463 224 q 490 201 483 224 q 496 160 496 178 z "},"d":{"ha":572,"x_min":35,"x_max":551,"o":"m 319 624 q 365 617 344 624 q 386 611 385 611 l 394 618 l 389 769 q 372 836 386 808 q 347 872 358 864 l 335 879 q 326 892 326 885 q 391 940 326 913 q 492 968 456 968 q 531 953 528 968 q 538 773 538 906 q 531 513 538 640 q 525 223 525 385 q 546 19 525 61 q 551 1 551 10 q 492 -19 551 -19 q 378 35 378 -19 q 375 103 375 57 q 384 277 375 150 q 393 473 393 404 q 324 542 393 542 q 219 461 256 542 q 183 300 183 381 q 269 129 183 129 q 294 134 282 129 q 308 139 306 139 q 326 125 319 139 q 332 97 332 111 q 294 17 332 50 q 203 -15 257 -15 q 77 58 119 -15 q 35 239 35 131 q 100 494 35 376 q 190 588 133 553 q 319 624 247 624 z "},"e":{"ha":511,"x_min":28,"x_max":490,"o":"m 174 353 l 175 318 q 186 310 175 310 q 264 333 231 314 q 314 375 297 351 q 350 464 347 426 l 351 481 q 292 556 351 556 q 219 517 247 556 q 174 353 174 456 m 476 168 q 455 76 476 115 q 406 17 433 36 q 343 -12 379 -1 q 256 -26 297 -26 q 83 61 139 -26 q 28 284 28 149 q 97 525 28 419 q 303 631 165 631 q 472 543 428 631 q 490 480 490 510 q 488 433 490 450 q 468 381 485 415 q 424 318 451 346 q 336 265 396 290 q 196 232 276 240 q 185 222 185 232 q 194 185 185 210 q 214 144 203 161 q 304 106 244 106 q 406 144 364 106 q 442 196 428 165 q 456 207 447 207 q 471 192 465 207 q 476 168 476 176 z "},"f":{"ha":308,"x_min":-14,"x_max":331,"o":"m 222 347 l 229 69 q 206 -85 229 -18 q 150 -186 183 -153 q 31 -267 82 -257 l 7 -272 q -14 -260 -14 -272 l -7 -239 q 94 450 94 -99 q 93 525 94 500 q 35 521 64 525 l 33 521 q 18 536 18 521 l 22 589 q 42 601 24 601 l 92 601 l 92 694 l 94 826 q 98 848 94 836 q 128 884 101 860 q 206 928 154 908 q 294 949 257 949 q 331 926 331 949 q 318 913 331 918 q 252 841 278 900 q 226 640 226 782 l 226 601 q 319 608 297 604 q 329 592 329 608 q 315 551 329 575 q 278 526 300 526 q 225 526 257 525 q 222 347 222 421 z "},"g":{"ha":554,"x_min":24,"x_max":533,"o":"m 133 560 q 149 576 133 560 q 214 613 164 592 q 310 635 264 635 q 403 614 356 635 q 411 617 408 614 q 517 653 447 653 q 533 638 533 653 q 531 625 533 636 q 524 592 528 614 q 517 540 519 571 q 506 365 507 461 q 506 174 506 269 l 510 -118 q 438 -351 510 -258 q 349 -417 408 -389 q 211 -444 290 -444 q 193 -422 193 -433 q 208 -404 193 -411 q 333 -213 296 -364 q 371 244 371 -62 l 368 439 l 364 533 q 325 551 364 546 q 241 519 275 551 q 194 433 207 486 q 172 287 172 349 q 192 178 172 225 q 263 131 213 131 q 288 136 276 131 q 304 142 300 142 q 318 114 318 142 q 314 69 318 86 q 297 31 310 51 q 189 -15 269 -15 q 74 43 108 -15 q 32 150 38 103 q 24 243 24 221 q 24 278 24 265 q 31 331 25 292 q 48 406 38 371 q 81 485 58 442 q 133 560 103 529 z "},"h":{"ha":572,"x_min":11,"x_max":572,"o":"m 221 746 l 219 611 q 225 603 219 603 q 236 607 231 603 q 346 631 271 631 q 521 544 472 631 q 539 460 539 513 q 533 314 539 407 q 526 182 526 221 q 565 1 526 46 q 572 -12 572 -6 q 513 -26 572 -26 q 351 124 351 -26 q 379 288 351 182 q 407 443 407 393 q 383 520 407 493 q 318 547 360 547 q 252 529 276 547 q 222 492 228 511 l 218 474 q 217 306 217 447 q 224 122 217 164 q 231 74 231 79 q 176 2 231 33 q 69 -29 122 -29 q 50 -7 50 -29 l 53 19 q 83 525 83 253 q 75 739 83 631 l 74 769 q 58 836 71 808 q 33 872 44 864 l 21 879 q 11 892 11 885 q 76 940 11 911 q 177 968 142 968 q 215 953 213 968 q 221 746 221 882 z "},"i":{"ha":292,"x_min":35,"x_max":249,"o":"m 185 743 l 151 744 q 103 726 114 744 q 96 722 100 722 q 78 784 78 722 q 97 863 78 846 q 162 879 115 879 q 225 863 208 879 q 242 810 242 847 q 229 758 242 772 q 185 743 217 743 m 74 42 l 89 365 q 63 522 89 481 q 43 543 54 536 q 35 554 35 546 q 106 603 35 579 q 209 626 176 626 q 243 610 242 626 q 235 452 243 582 q 228 179 228 322 q 244 1 228 36 q 249 -12 249 -6 q 196 -31 249 -31 q 88 -3 143 -31 q 74 42 74 4 z "},"j":{"ha":290,"x_min":-97,"x_max":249,"o":"m 189 743 l 156 744 q 107 726 118 744 q 100 722 104 722 q 82 784 82 722 q 101 863 82 846 q 167 879 119 879 q 230 863 214 879 q 246 810 246 847 q 233 758 246 772 q 189 743 221 743 m 249 611 q 236 347 236 499 q 231 -4 231 143 l 232 -114 q 210 -248 232 -186 q 159 -349 189 -310 q 69 -417 129 -387 q -72 -446 8 -446 q -97 -428 -97 -446 q -75 -408 -97 -418 q 63 -203 22 -362 q 104 186 104 -43 q 54 539 104 508 q 40 556 40 549 q 113 603 40 579 q 217 626 185 626 q 249 611 249 626 z "},"k":{"ha":549,"x_min":7,"x_max":564,"o":"m 342 450 q 336 438 336 444 q 362 426 336 432 q 418 396 388 421 q 464 342 449 371 q 496 242 493 285 l 497 224 q 557 1 504 61 q 564 -12 564 -8 q 525 -28 564 -28 q 376 21 408 -28 q 360 142 360 40 l 360 176 q 328 356 360 306 q 287 379 311 379 q 236 337 263 379 q 210 265 210 294 q 215 103 210 149 q 221 56 221 57 q 166 -7 221 15 q 63 -29 111 -29 q 44 -7 44 -29 l 44 -1 q 78 538 78 169 q 72 742 78 658 l 69 769 q 53 836 67 808 q 28 872 40 864 l 17 879 q 7 892 7 885 q 74 942 7 914 q 189 969 140 969 q 213 953 211 968 q 219 724 219 897 q 211 449 219 551 q 217 432 211 432 q 234 448 222 432 q 276 499 246 464 q 356 579 306 533 q 438 625 407 625 q 500 610 469 625 q 531 581 531 594 l 515 571 q 342 450 436 542 z "},"l":{"ha":282,"x_min":21,"x_max":240,"o":"m 229 794 l 221 285 q 236 -1 221 46 q 240 -18 240 -10 q 200 -35 240 -35 q 110 -15 160 -35 q 61 38 61 6 q 89 557 89 232 l 83 769 q 67 836 81 808 q 42 872 54 864 l 31 879 q 21 892 21 885 q 81 940 21 911 q 199 968 142 968 q 224 953 221 968 q 229 794 229 917 z "},"m":{"ha":857,"x_min":42,"x_max":853,"o":"m 356 -8 q 375 265 375 89 q 374 472 375 440 q 354 524 372 504 q 323 546 336 543 q 286 549 310 549 q 240 527 263 549 q 214 483 218 506 l 208 461 q 204 276 204 419 q 210 97 204 133 q 217 47 217 60 q 206 22 217 35 q 72 -28 158 -28 q 42 -10 42 -28 q 69 415 69 157 q 65 544 69 511 l 60 589 q 54 622 58 604 q 97 639 54 639 q 182 592 161 639 q 188 586 183 586 q 207 597 192 586 q 331 633 253 633 q 418 617 375 633 q 478 572 461 600 q 482 569 479 569 q 490 575 485 569 q 642 633 549 633 q 811 544 765 633 q 828 457 828 510 q 819 307 828 404 q 811 158 811 210 q 822 65 811 107 q 842 6 832 24 q 853 -15 853 -12 q 814 -33 853 -33 q 681 6 718 -33 q 643 108 643 44 q 669 278 643 171 q 694 440 694 386 q 606 550 694 550 q 546 528 568 550 q 519 483 524 506 l 517 461 q 511 307 511 397 q 514 166 511 217 q 519 87 517 115 q 522 53 522 58 q 474 -7 522 14 q 379 -28 425 -28 q 356 -8 356 -28 z "},"n":{"ha":554,"x_min":42,"x_max":550,"o":"m 42 -10 q 67 350 67 140 q 54 622 67 560 q 96 640 54 640 q 181 592 160 640 q 188 588 182 588 q 196 590 193 588 q 329 635 239 635 q 472 589 419 635 q 525 456 525 543 q 516 306 525 403 q 507 161 507 208 q 544 -1 507 49 q 550 -15 550 -8 q 511 -33 550 -33 q 339 119 339 -33 q 365 282 339 178 q 392 440 392 386 q 300 551 392 551 q 233 525 256 551 q 207 465 210 499 q 204 336 204 431 q 214 85 204 192 l 217 54 q 166 -6 217 15 q 78 -28 115 -28 q 42 -10 42 -28 z "},"o":{"ha":583,"x_min":28,"x_max":563,"o":"m 178 524 q 126 522 142 522 q 110 529 110 521 q 118 546 110 538 q 418 628 207 628 q 532 615 490 628 l 546 611 q 563 596 563 604 q 553 585 563 589 q 481 549 515 574 q 446 515 446 525 l 454 506 q 523 426 499 481 q 550 331 547 372 l 553 288 q 476 61 553 150 q 268 -28 400 -28 q 153 -4 201 -28 q 81 49 104 19 q 44 117 58 79 q 28 223 28 168 q 47 333 28 278 q 90 415 65 389 q 144 458 114 442 q 207 479 183 479 q 231 469 231 479 l 222 456 q 178 361 192 419 q 165 258 165 303 q 176 168 165 213 q 201 102 188 124 q 233 69 215 81 q 289 53 260 53 q 346 76 318 53 q 386 136 374 99 q 411 279 411 206 q 352 460 411 396 q 178 524 293 524 z "},"p":{"ha":567,"x_min":21,"x_max":540,"o":"m 56 213 q 58 443 58 353 q 46 615 58 533 q 74 629 46 629 q 122 622 101 629 q 150 607 142 615 q 176 585 172 585 q 197 597 179 585 q 317 632 251 632 q 433 599 383 632 q 503 511 482 565 q 540 314 540 418 q 503 108 540 211 q 442 17 482 53 q 347 -18 401 -18 q 240 106 240 -18 q 254 139 240 139 q 270 133 257 139 q 296 126 283 126 q 394 335 394 126 q 289 544 394 544 q 240 531 260 544 q 214 506 219 518 l 208 492 q 189 10 189 367 q 195 -222 189 -151 q 201 -306 201 -292 q 193 -331 201 -319 q 118 -395 165 -367 q 35 -424 71 -424 q 21 -406 21 -424 q 56 213 43 -265 z "},"q":{"ha":596,"x_min":35,"x_max":588,"o":"m 371 -281 l 379 -125 q 372 -117 379 -117 q 331 -104 351 -117 q 311 -74 311 -92 l 317 -62 q 361 -20 344 -46 q 381 22 378 6 l 382 39 q 393 336 393 324 q 375 531 393 500 q 327 549 365 549 q 257 520 289 549 q 211 446 225 492 q 183 289 183 361 q 274 126 183 126 q 301 133 288 126 q 317 139 314 139 q 331 96 331 139 q 300 17 331 53 q 210 -19 269 -19 q 115 8 150 -19 q 64 81 79 36 q 35 253 35 161 q 112 515 35 401 q 324 628 189 628 q 407 606 379 628 q 421 599 417 599 q 428 601 425 599 q 528 640 472 640 q 550 626 550 640 q 543 578 550 622 q 521 171 521 433 q 532 163 521 164 q 565 150 543 161 q 588 125 588 139 q 581 115 588 119 q 519 -26 519 76 q 549 -390 519 -292 q 553 -406 553 -399 q 531 -417 553 -417 q 474 -405 510 -417 q 404 -360 438 -393 q 371 -281 371 -328 z "},"r":{"ha":493,"x_min":42,"x_max":472,"o":"m 465 372 l 471 324 q 421 297 471 297 q 319 374 319 297 q 329 424 319 392 q 339 479 339 456 q 325 520 339 503 q 285 538 311 538 q 240 519 258 538 q 217 481 221 500 l 211 461 q 203 317 203 418 q 206 159 203 217 q 211 80 208 101 q 214 54 214 58 q 171 -2 214 19 q 85 -24 128 -24 q 42 -6 42 -24 l 49 38 q 68 353 68 158 q 54 617 68 547 q 83 633 54 633 q 183 582 158 633 q 188 576 185 576 q 207 589 192 576 q 315 626 253 626 q 393 611 354 626 q 472 478 472 579 l 465 372 z "},"s":{"ha":478,"x_min":14,"x_max":464,"o":"m 464 190 q 441 86 464 131 q 389 21 418 42 q 319 -12 360 0 q 224 -29 267 -29 q 74 6 133 -29 q 14 119 14 42 q 39 194 14 165 q 132 238 78 238 q 149 222 149 238 q 142 201 149 221 q 136 150 136 181 q 160 96 136 119 q 219 72 185 72 q 275 84 254 72 q 304 114 296 96 q 317 161 317 139 q 276 231 317 201 q 188 276 236 260 q 99 332 139 293 q 58 429 58 371 q 122 579 58 529 q 293 629 185 629 q 392 616 340 629 q 444 572 444 603 q 434 514 444 540 q 408 488 424 488 q 397 494 400 488 q 388 508 394 500 q 354 530 381 517 q 309 543 328 543 q 284 542 290 543 q 263 538 278 542 q 235 528 247 535 q 203 475 203 510 q 213 442 203 453 q 228 426 222 432 q 247 413 233 421 q 267 403 261 406 q 292 391 272 400 q 317 379 311 382 q 464 190 464 310 z "},"t":{"ha":311,"x_min":21,"x_max":332,"o":"m 21 542 l 25 597 q 44 610 26 610 l 93 610 l 88 721 l 88 726 q 136 788 88 758 q 225 817 185 817 q 238 806 238 817 l 238 804 q 226 611 232 767 q 304 614 288 611 q 322 617 321 617 q 332 600 332 617 q 317 558 332 583 q 283 531 301 532 l 225 531 q 224 372 224 483 q 226 188 224 260 q 231 78 228 115 q 237 19 233 42 q 242 -12 240 -3 q 244 -25 244 -22 q 226 -40 244 -39 q 119 -25 172 -40 q 65 28 65 -10 q 94 529 94 261 q 38 526 57 529 l 36 526 q 21 542 24 526 z "},"u":{"ha":558,"x_min":42,"x_max":533,"o":"m 533 618 q 508 236 508 468 q 522 11 508 65 l 528 -7 q 497 -25 528 -25 q 375 35 390 -25 q 369 42 374 42 q 360 36 364 42 q 226 -21 317 -21 q 122 4 176 -21 q 68 58 89 19 q 47 151 47 96 l 68 456 q 49 592 68 551 q 42 611 42 607 q 49 622 42 619 q 106 629 71 629 q 240 518 240 629 q 212 360 240 483 q 183 184 183 236 q 206 104 183 132 q 270 76 229 76 q 335 106 311 76 q 363 164 358 135 l 367 193 q 372 364 372 242 q 365 519 372 486 q 357 560 357 551 q 413 615 357 594 q 513 635 468 635 q 533 618 533 635 z "},"v":{"ha":538,"x_min":-14,"x_max":531,"o":"m 355 600 q 384 615 355 600 q 472 629 414 629 q 531 508 531 629 q 498 328 531 419 q 417 167 465 236 q 236 -28 317 21 q 207 -39 217 -39 q 187 -18 197 -39 q 155 74 176 3 q 119 200 133 144 l 107 257 q 53 452 79 379 q 14 536 26 525 l 0 549 q -14 565 -14 556 l -7 578 q 53 612 11 594 q 147 629 96 629 q 176 603 171 629 q 213 453 197 539 q 253 258 228 367 q 296 149 279 150 q 315 161 304 149 q 340 194 325 174 q 376 275 354 215 q 397 377 397 335 q 394 442 397 419 q 369 496 390 465 q 322 531 349 526 q 296 549 296 536 q 355 600 296 571 z "},"w":{"ha":850,"x_min":-14,"x_max":849,"o":"m 554 -28 q 533 -37 540 -37 q 513 -25 518 -37 q 443 200 471 58 q 439 206 442 206 l 431 200 q 344 76 393 133 q 264 -4 294 19 l 233 -28 q 211 -40 219 -40 q 190 -26 196 -40 q 119 200 160 32 l 107 257 q 53 453 81 379 q 13 539 26 526 l -1 551 q -14 565 -14 556 q 44 607 -14 585 q 133 629 101 629 q 176 603 165 629 q 208 460 186 578 q 293 149 267 149 q 312 163 301 149 q 337 199 322 178 q 376 271 351 219 q 401 361 401 322 q 392 412 401 368 q 363 497 382 456 q 333 543 344 538 q 308 567 308 557 q 365 606 308 583 q 468 629 422 629 q 497 604 489 629 q 547 369 518 539 q 617 153 585 153 q 650 184 628 153 q 694 275 672 215 q 715 377 715 335 q 712 442 715 419 q 688 496 708 465 q 640 531 667 526 q 614 549 614 536 q 672 599 614 568 q 790 629 729 629 q 849 513 849 629 q 763 213 849 367 q 554 -28 676 58 z "},"x":{"ha":572,"x_min":0,"x_max":590,"o":"m 28 136 l 56 132 q 219 272 138 132 q 231 289 224 279 q 124 468 169 401 q 64 544 79 535 l 50 556 q 31 576 31 564 q 81 615 31 594 q 176 639 132 636 q 221 604 200 640 q 315 431 260 547 l 315 428 q 399 585 381 539 q 433 617 399 606 q 519 628 468 628 q 571 611 571 628 q 558 596 571 604 q 534 579 550 592 q 467 506 518 567 q 363 358 415 446 q 358 350 360 354 q 454 183 439 204 q 478 147 469 161 q 515 107 488 133 q 566 74 542 81 q 590 54 590 67 q 540 8 590 35 q 447 -19 490 -19 q 400 1 417 -19 q 272 208 371 36 q 169 42 186 65 q 128 1 153 19 q 73 -17 103 -17 q 24 3 43 -17 q 3 42 6 22 l 0 61 q 28 136 0 136 z "},"y":{"ha":540,"x_min":-28,"x_max":560,"o":"m 288 -385 q 271 -401 288 -401 l 269 -401 q 166 -369 224 -401 q 108 -296 108 -337 q 161 -151 108 -254 q 214 -12 214 -47 q 178 122 214 25 q 105 328 132 249 q 47 467 78 407 q 1 539 15 528 l -12 549 q -28 567 -28 557 q 33 606 -28 586 q 139 626 93 626 q 174 593 160 626 q 228 413 199 528 q 317 176 299 176 q 367 274 329 176 q 406 431 406 371 q 344 553 406 535 q 331 567 331 556 q 396 615 331 592 q 514 638 461 638 q 560 578 560 638 q 540 471 560 532 q 504 374 521 410 q 422 210 488 339 q 313 -15 356 82 q 265 -253 265 -132 q 276 -349 265 -317 q 288 -385 288 -381 z "},"z":{"ha":529,"x_min":0,"x_max":529,"o":"m 351 611 l 503 615 q 521 600 521 615 q 433 436 521 572 q 281 199 346 300 q 217 76 217 97 q 256 63 217 63 q 324 74 294 63 q 367 106 353 86 q 390 167 390 139 q 385 221 390 194 q 415 240 385 238 q 511 200 488 240 q 529 135 529 168 q 468 22 529 60 q 324 -15 407 -15 l 165 -11 l 25 -14 q 0 3 0 -14 q 45 94 0 21 q 136 233 90 168 l 182 299 q 306 497 299 482 q 314 522 314 511 q 274 542 314 542 q 201 531 233 542 q 147 503 168 519 q 111 471 126 488 q 83 432 83 440 q 68 418 79 418 l 67 418 q 47 442 47 418 q 72 569 47 496 l 82 594 q 111 614 88 614 l 351 611 z "},"{":{"ha":271,"x_min":13,"x_max":283,"o":"m 215 797 l 218 643 q 171 533 218 575 q 147 513 164 526 q 119 482 119 488 l 125 471 q 145 453 128 468 q 168 434 163 439 q 186 414 174 429 q 203 388 199 399 q 218 319 218 354 l 215 165 l 219 7 q 234 -42 219 -14 q 264 -89 249 -71 l 278 -107 q 283 -117 283 -112 q 267 -125 283 -125 q 190 -94 250 -125 q 112 -42 131 -64 q 93 3 93 -21 q 97 215 97 111 q 92 358 97 319 q 74 413 88 396 q 37 453 61 429 q 13 481 13 476 l 17 490 q 36 508 22 496 q 54 526 50 521 q 67 540 58 531 q 79 557 76 550 q 86 574 82 564 q 97 747 97 600 l 93 960 q 260 1085 93 1029 q 274 1086 264 1086 q 283 1080 283 1086 q 278 1068 283 1074 q 219 956 219 1001 q 215 797 215 900 z "},"|":{"ha":246,"x_min":85,"x_max":178,"o":"m 178 1017 l 175 -33 q 111 -90 175 -90 q 85 -69 85 -90 l 85 25 l 88 814 l 88 975 q 160 1038 88 1038 l 164 1038 q 173 1032 168 1038 q 178 1017 178 1026 z "},"}":{"ha":271,"x_min":-12,"x_max":258,"o":"m 56 165 l 53 319 q 103 433 53 390 q 126 453 108 439 q 147 472 143 468 q 151 481 151 476 q 145 492 151 486 q 123 513 139 499 q 100 533 107 526 q 82 552 93 539 q 67 578 71 565 q 53 643 53 610 l 56 797 l 51 956 q 8 1050 51 996 l -7 1068 q -12 1080 -12 1074 q 1 1086 -12 1086 l 11 1085 q 178 960 178 1029 q 174 747 174 851 q 177 613 174 643 q 185 574 181 583 q 192 557 189 564 q 203 540 194 550 q 217 526 213 531 q 235 508 221 521 q 258 482 258 488 q 254 472 258 476 q 197 413 210 429 q 178 358 183 396 q 174 215 174 319 l 178 3 q 159 -42 178 -21 q 81 -94 140 -64 q 4 -125 21 -125 q -12 -117 -12 -125 q -7 -107 -12 -112 q 51 7 51 -39 q 56 165 56 63 z "},"~":{"ha":444,"x_min":69,"x_max":375,"o":"m 172 399 l 313 388 q 353 392 340 388 q 367 396 365 396 q 375 389 375 396 q 348 343 375 368 q 295 318 321 318 q 230 328 269 318 q 164 338 190 338 q 119 333 138 338 q 89 325 100 329 q 74 321 78 321 q 69 332 69 321 q 101 371 69 343 q 172 399 132 399 z "},"":{"ha":333,"x_min":71,"x_max":264,"o":"m 181 544 l 147 543 q 102 558 114 543 q 90 609 90 572 q 106 663 90 646 q 169 681 122 681 q 234 663 215 681 q 253 583 253 644 q 235 522 253 522 l 219 533 q 181 544 204 544 m 263 -247 q 264 -268 264 -254 q 241 -296 264 -282 q 186 -317 218 -310 q 103 -326 135 -326 q 71 -299 71 -326 l 74 -282 q 126 336 126 -62 q 125 394 126 381 q 125 411 124 407 q 140 423 126 415 q 175 431 153 431 q 225 399 224 431 q 263 -247 225 -94 z "},"":{"ha":549,"x_min":42,"x_max":507,"o":"m 503 160 q 440 28 503 81 q 289 -24 376 -24 q 101 53 161 -24 q 42 263 42 131 q 103 511 42 403 q 192 599 135 567 q 325 631 249 631 q 488 553 440 631 q 507 478 507 521 q 450 378 507 411 q 410 365 429 365 q 380 367 392 365 q 349 386 368 369 q 329 432 329 403 q 353 457 331 447 q 374 501 374 469 q 307 556 374 556 q 267 541 290 556 q 229 503 244 526 q 201 431 214 481 q 188 337 188 382 q 191 269 188 292 q 206 206 194 246 q 251 142 218 167 q 332 117 283 117 q 435 165 389 117 q 464 213 453 185 q 478 224 469 224 q 497 201 490 224 q 503 160 503 178 m 336 688 l 338 604 q 297 574 338 574 q 278 593 278 574 l 278 682 q 290 703 278 694 q 319 711 303 711 q 336 688 336 711 m 336 267 l 336 -64 q 324 -88 336 -78 q 294 -99 311 -99 q 278 -78 278 -99 l 278 254 q 291 276 278 268 q 320 285 304 285 q 336 267 336 285 z "},"":{"ha":693,"x_min":-29,"x_max":683,"o":"m 500 1 l 422 3 q 389 3 406 3 l 136 -10 q 115 4 115 -10 q 119 24 115 8 q 140 222 133 56 q 146 492 146 389 l -21 492 q -29 509 -29 492 q -10 548 -29 526 q 39 569 8 569 l 146 569 q 129 874 140 832 q 108 929 118 917 q 97 950 97 942 q 172 989 97 972 q 280 1006 247 1006 q 321 1002 313 1006 q 329 987 329 999 q 325 925 329 975 q 310 572 313 771 q 517 574 363 574 q 532 569 526 574 q 538 560 538 564 l 538 556 q 517 513 538 533 q 464 492 496 492 l 310 492 q 321 132 310 268 q 347 106 321 117 q 413 94 374 94 q 549 283 549 94 q 542 352 549 335 q 536 374 536 369 q 556 388 536 388 q 597 374 572 388 q 639 341 622 361 q 669 275 656 321 q 683 167 683 229 q 643 1 683 1 q 500 1 572 1 z "},"":{"ha":735,"x_min":-26,"x_max":794,"o":"m 254 -19 l 258 -1 q 282 313 282 125 q 281 351 282 338 l 118 351 q 97 373 97 351 q 111 410 97 394 q 157 426 125 426 l 271 426 l 264 479 l 247 522 l 118 522 q 97 544 97 522 q 111 581 97 565 q 157 597 125 597 l 215 597 q 78 839 140 771 q -3 903 24 899 l -12 906 q -26 925 -26 914 q 46 974 -26 949 q 155 999 118 999 q 204 976 192 999 q 396 600 326 760 l 425 600 q 502 746 454 635 q 550 903 550 857 l 544 954 q 608 990 544 979 q 733 1000 672 1000 q 794 979 794 1000 q 781 956 794 969 q 535 601 692 863 l 643 601 q 658 597 653 601 q 664 588 664 592 l 664 583 q 608 522 664 522 l 488 522 l 472 494 q 456 429 463 475 q 629 431 501 431 q 650 417 650 431 l 650 413 q 634 369 650 386 q 594 351 618 351 l 447 351 l 447 329 q 456 143 447 236 q 464 43 464 50 q 400 -13 464 8 q 295 -35 336 -35 q 254 -19 254 -35 z "},"":{"ha":246,"x_min":85,"x_max":178,"o":"m 178 379 l 175 -24 q 111 -81 175 -81 q 85 -60 85 -81 l 85 -32 l 88 242 l 88 338 q 160 400 88 400 l 164 400 q 173 394 168 400 q 178 379 178 389 m 178 1017 l 175 614 q 111 557 175 557 q 85 578 85 557 l 85 606 l 88 881 l 88 975 q 160 1038 88 1038 l 164 1038 q 173 1032 168 1038 q 178 1017 178 1026 z "},"":{"ha":649,"x_min":24,"x_max":625,"o":"m 483 514 q 446 569 483 542 q 371 608 408 596 l 333 622 q 321 624 329 624 l 303 619 q 267 603 289 614 q 210 560 246 593 q 174 493 174 526 l 174 492 q 210 435 174 463 q 283 394 247 407 l 319 382 q 335 379 325 379 q 353 383 344 379 q 483 514 483 457 m 461 42 q 443 30 461 42 q 353 1 425 18 q 208 -16 281 -17 q 114 -11 135 -15 q 75 49 79 -3 l 74 65 q 83 78 74 78 q 121 70 89 78 q 194 63 153 63 q 278 71 236 63 q 342 91 319 79 q 376 118 364 103 q 396 166 396 142 q 358 215 396 190 q 265 264 319 240 q 155 314 210 288 q 62 378 100 340 q 24 454 24 417 q 44 524 24 492 q 92 579 64 556 q 197 649 143 622 l 217 658 q 222 665 222 663 l 217 672 q 131 724 161 697 q 101 798 101 750 q 137 885 101 846 q 228 944 172 924 q 465 988 339 988 q 557 913 557 988 q 547 899 557 899 q 529 903 543 899 q 470 908 515 908 q 395 906 425 908 q 328 894 365 903 q 269 867 292 886 q 247 819 247 847 q 407 728 247 775 q 579 654 539 688 q 625 558 625 615 q 600 485 625 525 q 425 342 553 406 q 417 334 417 338 q 424 326 417 331 q 549 185 549 271 q 523 103 549 140 q 461 42 497 65 z "},"":{"ha":569,"x_min":106,"x_max":481,"o":"m 424 747 l 394 746 q 358 758 368 746 q 349 801 349 769 q 363 846 349 833 q 414 858 376 858 q 466 844 451 858 q 481 801 481 829 q 475 741 481 753 q 467 729 469 729 l 461 733 q 424 747 453 747 m 181 747 l 151 746 q 115 758 125 746 q 106 801 106 769 q 119 846 106 833 q 171 858 133 858 q 223 844 208 858 q 238 801 238 829 q 224 729 238 729 l 218 733 q 181 747 210 747 z "},"":{"ha":725,"x_min":56,"x_max":669,"o":"m 461 203 l 454 199 q 425 162 443 175 q 382 146 407 149 q 303 235 315 146 q 301 283 301 250 q 319 368 301 315 q 375 421 338 421 q 397 413 389 421 q 408 390 408 401 q 389 357 408 368 q 382 343 382 356 q 392 319 382 331 q 424 307 404 307 q 458 323 444 307 q 472 356 471 339 l 474 372 q 451 429 474 408 q 412 453 428 450 q 382 456 396 456 q 272 391 307 456 q 236 242 236 326 q 253 149 236 189 q 363 75 282 75 q 440 107 410 75 q 471 171 471 139 q 461 203 471 203 m 535 442 q 500 478 535 442 q 363 514 464 514 q 189 442 261 514 q 117 269 117 371 q 189 96 117 168 q 363 24 261 24 q 535 96 464 24 q 607 269 607 168 q 535 442 607 371 m 363 575 q 426 575 363 575 q 580 485 490 575 q 669 269 669 396 q 579 52 669 142 q 363 -37 489 -37 q 146 52 236 -37 q 56 269 56 142 q 145 485 56 396 q 363 575 235 575 z "},"":{"ha":446,"x_min":47,"x_max":421,"o":"m 392 783 l 389 640 q 417 485 389 511 q 421 476 421 481 q 358 461 421 461 q 292 499 296 461 q 290 535 290 507 l 294 690 q 288 697 294 697 q 199 671 240 697 q 158 604 158 644 q 170 568 158 583 q 199 553 182 553 q 228 560 217 553 q 240 568 239 568 q 257 533 257 565 q 227 481 257 501 q 164 461 197 461 q 107 473 131 461 q 72 499 83 485 q 56 533 61 514 q 47 571 47 556 q 200 738 47 700 q 293 769 289 756 q 296 806 296 781 q 243 857 296 857 q 203 843 221 857 q 186 808 186 829 l 192 785 q 153 765 189 767 q 100 779 117 764 q 83 810 83 794 q 85 832 83 825 q 94 855 86 839 q 118 883 103 871 q 239 913 157 913 q 356 883 321 913 q 392 783 392 853 z "},"":{"ha":958,"x_min":69,"x_max":888,"o":"m 514 207 l 414 269 q 392 303 392 288 q 417 350 392 328 q 842 643 633 517 q 860 650 851 650 q 879 610 879 650 q 853 554 879 571 q 538 340 642 424 q 525 322 525 331 q 535 307 525 313 q 865 97 800 151 q 888 46 888 83 q 858 -17 888 -17 q 835 1 850 -17 q 514 207 819 18 m 531 -26 q 511 -14 521 -26 q 192 194 492 7 l 92 256 q 69 289 69 274 q 96 336 69 313 q 533 639 325 513 q 551 646 543 646 q 571 608 571 646 q 544 549 571 569 q 217 326 319 411 q 204 309 204 318 q 214 294 204 300 q 539 85 474 139 q 561 44 561 72 q 531 -26 561 -26 z "},"":{"ha":693,"x_min":42,"x_max":649,"o":"m 101 533 q 621 538 101 533 q 649 507 649 538 l 649 301 q 585 244 649 244 q 558 265 558 244 l 558 268 q 560 444 558 357 l 63 444 q 42 472 42 444 q 101 533 42 533 z "},"":{"ha":725,"x_min":56,"x_max":669,"o":"m 331 125 l 325 264 q 329 411 325 349 q 353 422 329 422 q 386 419 376 422 q 406 403 396 417 q 417 375 417 390 q 415 350 417 360 q 399 324 414 340 q 360 308 385 308 q 351 299 356 308 q 346 282 346 290 q 350 274 346 274 l 351 274 q 400 215 400 274 l 400 189 q 407 118 400 139 q 433 97 414 97 q 476 103 451 97 q 500 115 500 108 l 497 121 q 464 200 464 133 q 415 283 464 267 q 408 288 408 286 q 427 293 408 288 q 465 318 446 299 q 485 374 485 338 q 451 433 485 411 q 354 454 418 454 q 257 440 290 454 q 251 433 251 436 l 254 428 q 266 387 264 419 q 268 283 268 354 q 267 197 268 211 l 260 110 q 258 103 258 107 q 265 99 258 99 q 328 117 310 99 q 331 125 331 118 m 535 442 q 500 478 535 442 q 363 514 464 514 q 189 442 261 514 q 117 269 117 371 q 189 96 117 168 q 363 24 261 24 q 535 96 464 24 q 607 269 607 168 q 535 442 607 371 m 363 575 q 426 575 363 575 q 580 485 490 575 q 669 269 669 396 q 579 52 669 142 q 363 -37 489 -37 q 146 52 236 -37 q 56 269 56 142 q 145 485 56 396 q 363 575 235 575 z "},"":{"ha":549,"x_min":150,"x_max":464,"o":"m 150 733 q 189 775 150 775 l 451 778 q 464 765 464 778 q 428 715 464 715 l 163 715 q 150 733 150 715 z "},"":{"ha":354,"x_min":61,"x_max":322,"o":"m 192 744 q 205 744 192 744 q 237 761 218 744 q 256 811 256 778 q 237 863 256 844 q 192 882 218 882 q 148 863 167 882 q 129 811 129 843 q 148 762 129 779 q 192 744 167 744 m 192 685 q 165 685 192 685 q 100 717 139 685 q 61 810 61 750 q 103 906 61 869 q 198 942 144 942 q 287 909 251 942 q 322 815 322 876 q 283 719 322 753 q 192 685 244 685 z "},"":{"ha":693,"x_min":42,"x_max":650,"o":"m 629 258 q 650 244 650 258 l 650 240 q 594 165 650 165 l 63 165 q 42 194 42 165 q 101 254 42 254 l 629 258 m 303 339 l 304 503 l 63 503 q 42 531 42 503 q 101 592 42 592 q 304 593 236 592 q 306 742 306 674 q 378 804 306 804 l 383 804 q 391 799 386 804 q 396 783 396 793 q 394 594 396 667 l 626 596 q 642 591 636 596 q 647 582 647 586 l 647 578 q 592 503 647 503 l 394 503 q 393 343 393 425 q 329 286 393 286 q 303 307 303 286 l 303 339 z "},"":{"ha":425,"x_min":29,"x_max":390,"o":"m 260 363 l 128 371 q 50 357 81 371 q 40 354 42 354 q 29 391 29 354 q 67 495 29 428 q 144 606 106 563 l 182 647 q 231 706 213 681 q 266 770 249 731 q 283 844 283 810 q 268 897 283 879 q 236 917 253 915 l 221 918 q 169 901 188 918 q 147 868 150 885 l 146 851 q 165 814 146 828 q 182 792 182 806 l 182 790 q 169 755 182 768 q 142 740 156 742 l 128 739 q 50 821 50 739 q 104 932 50 892 q 227 972 158 972 q 343 936 296 972 q 390 836 390 900 q 317 683 390 750 q 140 479 140 529 q 156 469 140 471 q 219 467 171 467 q 372 504 338 467 q 381 507 376 507 q 390 485 390 507 q 344 372 390 400 q 260 363 329 363 z "},"":{"ha":438,"x_min":35,"x_max":396,"o":"m 154 674 l 126 672 l 122 672 l 117 678 q 147 731 121 731 l 164 731 q 261 781 238 731 q 278 851 278 819 q 264 900 278 883 q 214 921 243 921 q 166 903 185 921 q 147 865 147 886 q 153 832 147 844 q 158 817 158 819 q 117 792 158 792 q 58 852 58 792 q 111 942 58 913 q 229 971 164 971 q 361 908 321 971 q 376 842 376 883 q 351 769 376 801 q 300 728 325 736 l 275 718 q 269 711 269 714 q 275 708 269 708 q 288 705 281 707 q 317 692 296 703 q 353 666 338 682 q 383 619 369 650 q 396 543 396 589 q 376 458 396 497 q 328 401 356 419 q 222 364 269 365 l 201 363 q 78 396 122 363 q 35 477 35 429 q 58 557 35 525 q 119 589 81 589 q 158 580 140 589 q 175 560 175 571 q 167 542 175 544 q 140 492 142 528 q 156 437 139 456 q 200 418 172 418 q 286 561 286 418 q 154 674 286 674 z "},"":{"ha":581,"x_min":306,"x_max":493,"o":"m 331 721 q 317 715 324 715 q 306 728 306 715 l 308 739 q 408 889 346 814 q 426 896 414 896 q 465 876 438 896 q 493 841 493 856 q 481 818 493 826 q 331 721 422 771 z "},"":{"ha":572,"x_min":-4,"x_max":542,"o":"m 350 -12 q 339 -29 350 -26 q 278 7 278 -25 q 299 372 299 125 l 299 415 l 290 422 q 157 441 214 422 q 70 486 100 460 q 22 550 40 513 q -4 664 -4 603 q 109 905 -4 814 q 403 996 222 996 q 533 986 479 996 q 542 974 542 982 l 542 971 q 489 375 489 738 q 511 40 489 154 q 518 -4 518 0 q 499 -24 518 -18 q 457 -31 481 -31 q 429 -8 433 -31 q 422 260 422 94 q 461 911 422 606 q 431 923 461 922 q 393 888 400 924 q 364 423 364 742 q 350 -12 364 104 z "},"":{"ha":292,"x_min":69,"x_max":232,"o":"m 160 283 l 126 282 q 82 296 93 282 q 70 348 71 310 q 88 403 69 386 q 149 419 106 419 q 212 403 192 419 q 232 353 232 388 q 214 261 232 261 l 207 265 q 160 283 197 283 z "},"":{"ha":528,"x_min":204,"x_max":335,"o":"m 229 -56 q 249 -26 229 -36 q 284 -15 268 -15 q 303 -17 300 -15 q 281 -43 281 -32 q 293 -58 281 -54 q 335 -100 335 -72 q 310 -142 335 -128 q 263 -156 286 -156 q 222 -149 239 -156 q 204 -132 204 -143 l 211 -124 q 242 -126 228 -126 q 264 -117 256 -126 q 272 -97 272 -108 q 251 -74 272 -86 q 229 -56 229 -62 z "},"":{"ha":296,"x_min":44,"x_max":226,"o":"m 218 732 l 222 458 l 222 407 q 188 378 221 388 q 131 368 156 368 q 106 381 106 368 q 111 425 106 388 q 125 688 125 538 l 122 815 q 76 858 118 858 l 60 857 q 44 867 44 857 q 115 934 44 888 q 213 981 185 981 q 226 963 226 981 q 222 874 226 946 q 218 732 218 803 z "},"":{"ha":425,"x_min":28,"x_max":401,"o":"m 132 843 q 96 841 107 842 q 85 847 85 840 q 90 858 85 853 q 300 915 154 915 q 390 904 351 915 q 401 893 401 899 l 394 885 q 344 860 368 878 q 319 836 319 843 l 326 831 q 374 776 357 814 q 393 708 392 738 l 394 678 q 341 519 394 581 q 196 457 288 457 q 115 474 150 457 q 65 511 81 490 q 39 558 49 532 q 28 633 28 594 q 41 710 28 671 q 71 767 54 749 q 108 796 88 785 q 153 811 138 811 q 169 804 169 811 l 164 794 q 139 746 149 776 q 124 664 124 703 q 131 594 124 625 q 149 547 139 563 q 172 524 158 532 q 203 513 189 513 q 275 563 254 513 q 296 683 296 613 q 254 798 296 753 q 132 843 213 843 z "},"":{"ha":960,"x_min":81,"x_max":899,"o":"m 129 -4 q 110 -17 119 -17 q 81 46 81 -17 q 106 100 81 78 q 365 267 164 147 l 433 307 q 443 319 443 313 q 431 340 443 328 q 171 519 343 411 l 115 554 q 89 610 89 571 q 108 650 89 650 l 126 643 q 492 394 304 538 l 551 350 q 576 310 576 332 q 554 269 576 288 q 129 -4 153 24 m 457 -15 q 438 -26 447 -26 q 414 -6 421 -26 q 407 33 407 15 q 433 89 407 68 q 688 254 500 140 l 754 294 q 764 306 764 300 q 751 326 764 319 q 483 511 660 401 l 424 549 q 397 608 397 569 q 417 646 397 646 l 435 639 q 808 383 614 532 l 872 336 q 899 296 899 318 q 876 256 899 274 q 457 -15 482 13 z "},"":{"ha":814,"x_min":35,"x_max":772,"o":"m 494 247 l 563 244 q 621 246 600 244 q 624 365 624 338 l 622 447 q 617 458 622 458 l 607 453 q 508 301 557 400 l 492 269 q 488 254 488 261 q 494 247 488 247 m 715 251 l 765 254 q 772 245 772 254 q 758 204 772 236 q 729 165 744 172 l 717 164 q 725 36 719 69 q 692 5 725 15 q 629 -6 658 -6 q 600 8 600 -6 q 603 15 600 10 q 617 160 608 63 l 544 161 q 467 161 506 161 l 415 160 l 394 160 q 376 176 376 160 l 378 185 q 600 539 443 344 q 631 575 621 564 l 642 586 q 697 610 664 610 q 729 596 729 610 q 715 357 715 474 l 715 251 m 131 -1 q 75 -31 115 -31 q 35 -14 35 -31 q 39 -1 35 -8 l 639 997 q 693 1018 650 1018 q 736 1007 736 1018 q 131 -1 736 989 m 218 732 l 222 458 l 222 407 q 188 378 221 388 q 131 368 156 368 q 106 381 106 368 q 111 425 106 388 q 125 688 125 538 l 122 815 q 76 858 118 858 l 60 857 q 44 867 44 857 q 115 934 44 888 q 213 981 185 981 q 226 963 226 981 q 222 874 226 946 q 218 732 218 803 z "},"":{"ha":897,"x_min":35,"x_max":863,"o":"m 131 -1 q 75 -31 115 -31 q 35 -14 35 -31 q 39 -1 35 -8 l 639 997 q 693 1018 650 1018 q 736 1007 736 1018 q 131 -1 736 989 m 732 -3 l 600 6 q 522 -8 553 6 q 513 -11 514 -11 q 501 26 501 -11 q 540 130 501 63 q 617 239 578 197 l 654 282 q 703 340 685 315 q 738 405 721 365 q 756 479 756 444 q 740 532 756 514 q 708 551 725 550 l 693 553 q 641 536 660 553 q 619 503 622 519 l 618 486 q 638 449 618 463 q 654 426 654 440 l 654 425 q 641 390 654 403 q 614 375 628 378 l 600 374 q 522 456 522 374 q 576 567 522 526 q 699 607 631 607 q 815 571 768 607 q 863 471 863 535 q 789 318 863 385 q 613 114 613 164 q 628 103 613 106 q 692 101 643 101 q 844 139 810 101 q 853 142 849 142 q 863 119 863 142 q 817 7 863 35 q 732 -3 803 -3 m 218 732 l 222 458 l 222 407 q 188 378 221 388 q 131 368 156 368 q 106 381 106 368 q 111 425 106 388 q 125 688 125 538 l 122 815 q 76 858 118 858 l 60 857 q 44 867 44 857 q 115 934 44 888 q 213 981 185 981 q 226 963 226 981 q 222 874 226 946 q 218 732 218 803 z "},"":{"ha":954,"x_min":35,"x_max":913,"o":"m 154 674 l 126 672 l 122 672 l 117 678 q 147 731 121 731 l 164 731 q 261 781 238 731 q 278 851 278 819 q 264 900 278 883 q 214 921 243 921 q 166 903 185 921 q 147 865 147 886 q 153 832 147 844 q 158 817 158 819 q 117 792 158 792 q 58 852 58 792 q 111 942 58 913 q 229 971 164 971 q 361 908 321 971 q 376 842 376 883 q 351 769 376 801 q 300 728 325 736 l 275 718 q 269 711 269 714 q 275 708 269 708 q 288 705 281 707 q 317 692 296 703 q 353 666 338 682 q 383 619 369 650 q 396 543 396 589 q 376 458 396 497 q 328 401 356 419 q 222 364 269 365 l 201 363 q 78 396 122 363 q 35 477 35 429 q 58 557 35 525 q 119 589 81 589 q 158 580 140 589 q 175 560 175 571 q 167 542 175 544 q 140 492 142 528 q 156 437 139 456 q 200 418 172 418 q 286 561 286 418 q 154 674 286 674 m 635 247 l 703 244 q 761 246 740 244 q 764 365 764 338 l 763 447 q 757 458 763 458 l 747 453 q 647 301 697 400 l 632 269 q 628 254 628 261 q 635 247 628 247 m 856 251 l 906 254 q 913 245 913 254 q 899 204 913 236 q 869 165 885 172 l 857 164 q 865 36 860 69 q 832 5 865 15 q 769 -6 799 -6 q 740 8 740 -6 q 743 15 740 10 q 757 160 749 63 l 685 161 q 607 161 646 161 l 556 160 l 535 160 q 517 176 517 160 l 518 185 q 740 539 583 344 q 772 575 761 564 l 782 586 q 837 610 804 610 q 869 596 869 610 q 856 357 856 474 l 856 251 m 271 -1 q 215 -31 256 -31 q 175 -14 175 -31 q 179 -1 175 -8 l 779 997 q 833 1018 790 1018 q 876 1007 876 1018 q 271 -1 876 989 z "},"":{"ha":565,"x_min":25,"x_max":558,"o":"m 347 544 l 314 543 q 269 558 281 543 q 257 609 257 572 q 273 663 257 646 q 335 681 289 681 q 401 663 382 681 q 419 583 419 644 q 401 522 419 522 l 386 533 q 347 544 371 544 m 495 -237 q 482 -251 495 -237 q 410 -289 468 -265 q 278 -312 351 -312 q 154 -291 204 -312 q 81 -242 104 -269 q 43 -178 57 -214 q 25 -79 25 -131 q 53 28 25 -28 q 119 121 81 83 q 197 192 158 158 q 292 329 292 271 q 272 390 292 363 q 253 419 253 418 q 281 432 253 432 q 324 422 293 432 q 374 397 356 411 q 408 355 393 383 q 424 297 424 326 q 403 254 424 268 q 178 -79 178 94 q 190 -161 178 -124 q 281 -236 214 -236 q 384 -183 349 -236 q 419 -54 419 -131 q 389 36 419 -1 q 378 53 378 49 q 415 68 378 68 q 461 58 432 68 q 509 32 490 47 q 543 -17 528 17 q 558 -78 558 -51 q 556 -120 558 -106 q 538 -172 554 -135 q 495 -237 522 -210 z "},"":{"ha":796,"x_min":4,"x_max":804,"o":"m 575 1094 q 575 1090 575 1094 q 572 1081 575 1086 q 562 1076 568 1076 q 492 1117 556 1076 q 408 1173 428 1158 q 389 1202 389 1188 q 416 1237 389 1217 q 456 1257 443 1257 l 472 1250 q 534 1166 493 1229 q 575 1094 575 1103 m 403 796 q 244 521 293 658 l 246 521 q 467 520 439 521 q 499 522 496 519 q 503 529 501 525 q 465 762 479 700 q 438 824 451 824 q 403 796 424 824 m 279 142 l 310 147 q 324 132 324 147 q 304 50 324 83 q 256 3 285 17 q 175 -21 208 -21 q 79 27 111 -21 q 47 172 47 75 q 100 422 47 268 l 19 422 q 4 438 4 422 q 28 487 4 453 q 78 521 51 521 l 140 521 q 372 900 239 740 q 458 978 407 942 q 536 1014 508 1014 q 578 989 564 1014 q 663 563 614 931 q 720 235 679 404 q 796 39 761 67 q 804 25 804 33 q 745 -14 804 4 q 655 -32 686 -32 q 607 -24 624 -32 q 586 -8 590 -17 q 536 250 561 46 l 528 315 q 517 414 522 381 l 507 421 l 217 422 q 200 299 200 351 q 203 222 200 246 q 226 169 207 197 q 279 142 246 142 z "},"":{"ha":796,"x_min":4,"x_max":804,"o":"m 428 1039 q 414 1033 421 1033 q 403 1046 403 1033 l 406 1057 q 506 1207 443 1132 q 523 1214 511 1214 q 563 1194 535 1214 q 590 1159 590 1174 q 578 1136 590 1144 q 428 1039 519 1089 m 403 796 q 244 521 293 658 l 246 521 q 467 520 439 521 q 499 522 496 519 q 503 529 501 525 q 465 762 479 700 q 438 824 451 824 q 403 796 424 824 m 279 142 l 310 147 q 324 132 324 147 q 304 50 324 83 q 256 3 285 17 q 175 -21 208 -21 q 79 27 111 -21 q 47 172 47 75 q 100 422 47 268 l 19 422 q 4 438 4 422 q 28 487 4 453 q 78 521 51 521 l 140 521 q 372 900 239 740 q 458 978 407 942 q 536 1014 508 1014 q 578 989 564 1014 q 663 563 614 931 q 720 235 679 404 q 796 39 761 67 q 804 25 804 33 q 745 -14 804 4 q 655 -32 686 -32 q 607 -24 624 -32 q 586 -8 590 -17 q 536 250 561 46 l 528 315 q 517 414 522 381 l 507 421 l 217 422 q 200 299 200 351 q 203 222 200 246 q 226 169 207 197 q 279 142 246 142 z "},"":{"ha":796,"x_min":4,"x_max":804,"o":"m 642 1053 q 631 1040 642 1040 q 489 1128 619 1040 q 347 1040 360 1040 q 335 1051 335 1040 l 338 1063 q 433 1204 383 1150 q 451 1211 439 1211 q 489 1192 464 1211 q 528 1211 514 1211 l 544 1204 q 626 1089 586 1163 l 640 1063 q 642 1053 642 1058 m 403 796 q 244 521 293 658 l 246 521 q 467 520 439 521 q 499 522 496 519 q 503 529 501 525 q 465 762 479 700 q 438 824 451 824 q 403 796 424 824 m 279 142 l 310 147 q 324 132 324 147 q 304 50 324 83 q 256 3 285 17 q 175 -21 208 -21 q 79 27 111 -21 q 47 172 47 75 q 100 422 47 268 l 19 422 q 4 438 4 422 q 28 487 4 453 q 78 521 51 521 l 140 521 q 372 900 239 740 q 458 978 407 942 q 536 1014 508 1014 q 578 989 564 1014 q 663 563 614 931 q 720 235 679 404 q 796 39 761 67 q 804 25 804 33 q 745 -14 804 4 q 655 -32 686 -32 q 607 -24 624 -32 q 586 -8 590 -17 q 536 250 561 46 l 528 315 q 517 414 522 381 l 507 421 l 217 422 q 200 299 200 351 q 203 222 200 246 q 226 169 207 197 q 279 142 246 142 z "},"":{"ha":796,"x_min":4,"x_max":804,"o":"m 426 1153 l 567 1142 q 607 1146 594 1142 q 621 1150 619 1150 q 629 1143 629 1150 q 602 1097 629 1122 q 549 1072 575 1072 q 484 1082 524 1072 q 418 1092 444 1092 q 373 1088 392 1092 q 343 1079 354 1083 q 328 1075 332 1075 q 324 1086 324 1075 q 355 1125 324 1097 q 426 1153 386 1153 m 403 796 q 244 521 293 658 l 246 521 q 467 520 439 521 q 499 522 496 519 q 503 529 501 525 q 465 762 479 700 q 438 824 451 824 q 403 796 424 824 m 279 142 l 310 147 q 324 132 324 147 q 304 50 324 83 q 256 3 285 17 q 175 -21 208 -21 q 79 27 111 -21 q 47 172 47 75 q 100 422 47 268 l 19 422 q 4 438 4 422 q 28 487 4 453 q 78 521 51 521 l 140 521 q 372 900 239 740 q 458 978 407 942 q 536 1014 508 1014 q 578 989 564 1014 q 663 563 614 931 q 720 235 679 404 q 796 39 761 67 q 804 25 804 33 q 745 -14 804 4 q 655 -32 686 -32 q 607 -24 624 -32 q 586 -8 590 -17 q 536 250 561 46 l 528 315 q 517 414 522 381 l 507 421 l 217 422 q 200 299 200 351 q 203 222 200 246 q 226 169 207 197 q 279 142 246 142 z "},"":{"ha":796,"x_min":4,"x_max":804,"o":"m 642 1135 l 613 1133 q 576 1145 586 1133 q 567 1189 567 1157 q 581 1233 567 1221 q 632 1246 594 1246 q 684 1231 669 1246 q 699 1189 699 1217 q 685 1117 699 1117 l 679 1121 q 642 1135 671 1135 m 399 1135 l 369 1133 q 333 1145 343 1133 q 324 1189 324 1157 q 338 1233 324 1221 q 389 1246 351 1246 q 441 1231 426 1246 q 456 1189 456 1217 q 450 1128 456 1140 q 442 1117 444 1117 l 436 1121 q 399 1135 428 1135 m 403 796 q 244 521 293 658 l 246 521 q 467 520 439 521 q 499 522 496 519 q 503 529 501 525 q 465 762 479 700 q 438 824 451 824 q 403 796 424 824 m 279 142 l 310 147 q 324 132 324 147 q 304 50 324 83 q 256 3 285 17 q 175 -21 208 -21 q 79 27 111 -21 q 47 172 47 75 q 100 422 47 268 l 19 422 q 4 438 4 422 q 28 487 4 453 q 78 521 51 521 l 140 521 q 372 900 239 740 q 458 978 407 942 q 536 1014 508 1014 q 578 989 564 1014 q 663 563 614 931 q 720 235 679 404 q 796 39 761 67 q 804 25 804 33 q 745 -14 804 4 q 655 -32 686 -32 q 607 -24 624 -32 q 586 -8 590 -17 q 536 250 561 46 l 528 315 q 517 414 522 381 l 507 421 l 217 422 q 200 299 200 351 q 203 222 200 246 q 226 169 207 197 q 279 142 246 142 z "},"":{"ha":796,"x_min":4,"x_max":804,"o":"m 513 1135 q 558 1126 533 1135 q 565 1149 565 1126 q 525 1214 565 1214 q 494 1203 506 1214 q 483 1175 483 1192 q 513 1135 483 1135 m 440 1171 q 463 1232 440 1211 q 526 1253 486 1253 q 586 1224 565 1253 q 607 1135 607 1194 q 589 1075 607 1075 q 581 1078 585 1075 q 506 1097 558 1097 q 440 1171 440 1097 m 403 796 q 244 521 293 658 l 246 521 q 467 520 439 521 q 499 522 496 519 q 503 529 501 525 q 465 762 479 700 q 438 824 451 824 q 403 796 424 824 m 279 142 l 310 147 q 324 132 324 147 q 304 50 324 83 q 256 3 285 17 q 175 -21 208 -21 q 79 27 111 -21 q 47 172 47 75 q 100 422 47 268 l 19 422 q 4 438 4 422 q 28 487 4 453 q 78 521 51 521 l 140 521 q 372 900 239 740 q 458 978 407 942 q 536 1014 508 1014 q 578 989 564 1014 q 663 563 614 931 q 720 235 679 404 q 796 39 761 67 q 804 25 804 33 q 745 -14 804 4 q 655 -32 686 -32 q 607 -24 624 -32 q 586 -8 590 -17 q 536 250 561 46 l 528 315 q 517 414 522 381 l 507 421 l 217 422 q 200 299 200 351 q 203 222 200 246 q 226 169 207 197 q 279 142 246 142 z "},"":{"ha":1192,"x_min":71,"x_max":1172,"o":"m 469 796 q 311 521 360 658 l 313 521 q 534 520 506 521 q 565 522 563 519 q 569 529 568 525 q 532 762 546 700 q 504 824 518 824 q 469 796 490 824 m 346 142 l 376 147 q 390 132 390 147 q 371 50 390 83 q 322 3 351 17 q 242 -21 275 -21 q 146 27 178 -21 q 114 172 114 75 q 167 422 114 268 l 86 422 q 71 438 71 422 q 94 487 71 453 q 144 521 118 521 l 207 521 q 439 900 306 740 q 524 978 474 942 q 610 1014 575 1014 q 633 1003 624 1014 q 688 832 663 975 q 693 825 689 825 q 703 831 697 825 q 858 960 771 924 q 1036 997 946 997 q 1150 967 1126 997 q 1161 910 1161 951 q 1151 869 1161 869 q 1139 875 1150 869 q 1049 892 1103 892 q 865 808 931 892 q 776 594 799 725 q 1063 596 856 596 q 1076 586 1076 596 q 1054 530 1076 564 q 1004 496 1032 496 l 765 496 q 764 423 764 479 q 784 305 764 367 q 859 200 804 243 q 1001 157 914 157 q 1149 196 1089 157 q 1161 201 1156 201 q 1172 172 1172 201 q 1110 28 1172 75 q 938 -19 1049 -19 q 832 -6 885 -19 q 728 -32 767 -32 q 653 -8 664 -32 q 603 250 628 46 l 594 315 q 583 414 589 381 l 574 421 l 283 422 q 267 299 267 351 q 270 222 267 246 q 293 169 274 197 q 346 142 313 142 z "},"":{"ha":703,"x_min":38,"x_max":676,"o":"m 272 -164 q 278 -154 272 -154 l 279 -154 q 315 -158 296 -158 q 344 -147 333 -158 q 354 -121 354 -136 q 328 -92 354 -106 q 303 -66 303 -78 q 322 -40 303 -54 l 340 -26 q 205 17 263 -19 q 116 101 147 54 q 67 211 85 149 q 38 415 38 308 q 58 618 38 522 q 122 801 79 714 q 244 940 165 888 q 428 993 324 993 q 520 978 472 993 q 599 942 568 964 q 653 876 629 921 q 676 772 676 832 q 646 657 676 708 q 601 615 632 633 q 529 596 571 596 q 439 653 465 596 q 428 701 428 675 q 446 732 428 728 q 482 763 465 738 q 499 821 499 788 q 485 867 499 847 q 408 901 458 901 q 317 856 358 901 q 256 740 276 810 q 214 485 214 601 q 246 297 214 368 q 344 181 285 210 q 431 163 382 163 q 578 236 513 163 q 624 306 606 265 q 642 318 631 318 q 668 255 668 318 q 647 142 668 192 q 596 63 626 92 q 525 14 565 33 q 396 -26 461 -19 q 378 -40 389 -26 q 368 -60 368 -53 q 385 -74 368 -67 q 435 -127 435 -94 q 403 -177 435 -160 q 344 -194 372 -194 q 272 -164 272 -194 z "},"":{"ha":664,"x_min":-22,"x_max":644,"o":"m 531 1059 q 531 1055 531 1059 q 527 1046 531 1050 q 517 1042 524 1042 q 447 1083 511 1042 q 364 1138 383 1124 q 344 1167 344 1153 q 372 1202 344 1182 q 411 1222 399 1222 l 428 1215 q 489 1131 447 1194 q 531 1059 531 1068 m 644 172 q 583 28 644 75 q 410 -19 521 -19 q 148 99 232 -19 q 64 407 64 217 q 67 496 64 438 l -11 496 q -22 504 -22 496 q 1 561 -22 528 q 53 594 25 594 l 79 594 q 138 771 97 694 q 224 889 179 847 q 324 956 269 931 q 504 997 410 997 q 622 967 599 997 q 633 910 633 951 q 624 869 633 869 q 611 875 622 869 q 521 892 575 892 q 337 808 403 892 q 249 594 271 725 q 535 596 354 596 q 549 586 549 596 q 526 530 549 564 q 476 496 504 496 l 238 496 q 236 423 236 479 q 256 305 236 367 q 331 200 276 243 q 474 157 386 157 q 621 196 561 157 q 633 201 628 201 q 644 172 644 201 z "},"":{"ha":664,"x_min":-22,"x_max":644,"o":"m 415 1043 q 401 1038 408 1038 q 390 1050 390 1038 l 393 1061 q 493 1211 431 1136 q 510 1218 499 1218 q 550 1198 522 1218 q 578 1163 578 1178 q 565 1140 578 1149 q 415 1043 507 1093 m 644 172 q 583 28 644 75 q 410 -19 521 -19 q 148 99 232 -19 q 64 407 64 217 q 67 496 64 438 l -11 496 q -22 504 -22 496 q 1 561 -22 528 q 53 594 25 594 l 79 594 q 138 771 97 694 q 224 889 179 847 q 324 956 269 931 q 504 997 410 997 q 622 967 599 997 q 633 910 633 951 q 624 869 633 869 q 611 875 622 869 q 521 892 575 892 q 337 808 403 892 q 249 594 271 725 q 535 596 354 596 q 549 586 549 596 q 526 530 549 564 q 476 496 504 496 l 238 496 q 236 423 236 479 q 256 305 236 367 q 331 200 276 243 q 474 157 386 157 q 621 196 561 157 q 633 201 628 201 q 644 172 644 201 z "},"":{"ha":664,"x_min":-22,"x_max":644,"o":"m 603 1047 q 592 1035 603 1035 q 450 1122 581 1035 q 308 1035 321 1035 q 296 1046 296 1035 l 299 1057 q 394 1199 344 1144 q 413 1206 400 1206 q 450 1186 425 1206 q 489 1206 475 1206 l 506 1199 q 588 1083 547 1157 l 601 1057 q 603 1047 603 1053 m 644 172 q 583 28 644 75 q 410 -19 521 -19 q 148 99 232 -19 q 64 407 64 217 q 67 496 64 438 l -11 496 q -22 504 -22 496 q 1 561 -22 528 q 53 594 25 594 l 79 594 q 138 771 97 694 q 224 889 179 847 q 324 956 269 931 q 504 997 410 997 q 622 967 599 997 q 633 910 633 951 q 624 869 633 869 q 611 875 622 869 q 521 892 575 892 q 337 808 403 892 q 249 594 271 725 q 535 596 354 596 q 549 586 549 596 q 526 530 549 564 q 476 496 504 496 l 238 496 q 236 423 236 479 q 256 305 236 367 q 331 200 276 243 q 474 157 386 157 q 621 196 561 157 q 633 201 628 201 q 644 172 644 201 z "},"":{"ha":664,"x_min":-22,"x_max":644,"o":"m 542 1061 l 513 1060 q 476 1072 486 1060 q 467 1115 467 1083 q 481 1160 467 1147 q 532 1172 494 1172 q 584 1158 569 1172 q 599 1115 599 1143 q 585 1043 599 1043 l 579 1047 q 542 1061 571 1061 m 299 1061 l 269 1060 q 233 1072 243 1060 q 224 1115 224 1083 q 238 1160 224 1147 q 289 1172 251 1172 q 341 1158 326 1172 q 356 1115 356 1143 q 350 1055 356 1067 q 342 1043 344 1043 l 336 1047 q 299 1061 328 1061 m 644 172 q 583 28 644 75 q 410 -19 521 -19 q 148 99 232 -19 q 64 407 64 217 q 67 496 64 438 l -11 496 q -22 504 -22 496 q 1 561 -22 528 q 53 594 25 594 l 79 594 q 138 771 97 694 q 224 889 179 847 q 324 956 269 931 q 504 997 410 997 q 622 967 599 997 q 633 910 633 951 q 624 869 633 869 q 611 875 622 869 q 521 892 575 892 q 337 808 403 892 q 249 594 271 725 q 535 596 354 596 q 549 586 549 596 q 526 530 549 564 q 476 496 504 496 l 238 496 q 236 423 236 479 q 256 305 236 367 q 331 200 276 243 q 474 157 386 157 q 621 196 561 157 q 633 201 628 201 q 644 172 644 201 z "},"":{"ha":340,"x_min":56,"x_max":285,"o":"m 281 1067 q 281 1063 281 1067 q 277 1054 281 1058 q 267 1050 274 1050 q 197 1091 261 1050 q 114 1147 133 1132 q 94 1176 94 1161 q 122 1210 94 1190 q 161 1231 149 1231 l 178 1224 q 239 1140 197 1203 q 281 1067 281 1076 m 264 615 q 283 51 264 185 q 219 -3 283 18 q 114 -25 156 -25 q 72 -12 72 -25 q 76 8 72 -4 q 103 478 103 67 q 69 910 103 867 l 64 918 q 56 935 56 925 q 71 953 56 946 q 145 978 92 965 q 242 990 199 990 q 285 971 285 990 l 285 967 q 264 615 268 822 z "},"":{"ha":340,"x_min":56,"x_max":304,"o":"m 142 1028 q 128 1022 135 1022 q 117 1035 117 1022 l 119 1046 q 219 1196 157 1121 q 237 1203 225 1203 q 276 1183 249 1203 q 304 1148 304 1163 q 292 1125 304 1133 q 142 1028 233 1078 m 264 615 q 283 51 264 185 q 219 -3 283 18 q 114 -25 156 -25 q 72 -12 72 -25 q 76 8 72 -4 q 103 478 103 67 q 69 910 103 867 l 64 918 q 56 935 56 925 q 71 953 56 946 q 145 978 92 965 q 242 990 199 990 q 285 971 285 990 l 285 967 q 264 615 268 822 z "},"":{"ha":340,"x_min":28,"x_max":335,"o":"m 335 1032 q 324 1019 335 1019 q 182 1107 313 1019 q 40 1019 53 1019 q 28 1031 28 1019 l 31 1042 q 126 1183 76 1129 q 145 1190 132 1190 q 182 1171 158 1190 q 221 1190 206 1190 l 238 1183 q 319 1067 279 1142 l 333 1042 q 335 1032 335 1038 m 264 615 q 283 51 264 185 q 219 -3 283 18 q 114 -25 156 -25 q 72 -12 72 -25 q 76 8 72 -4 q 103 478 103 67 q 69 910 103 867 l 64 918 q 56 935 56 925 q 71 953 56 946 q 145 978 92 965 q 242 990 199 990 q 285 971 285 990 l 285 967 q 264 615 268 822 z "},"":{"ha":340,"x_min":-11,"x_max":364,"o":"m 307 1050 l 278 1049 q 242 1060 251 1049 q 232 1104 232 1072 q 246 1149 232 1136 q 297 1161 260 1161 q 349 1147 335 1161 q 364 1104 364 1132 q 358 1044 364 1056 q 350 1032 353 1032 l 344 1036 q 307 1050 336 1050 m 64 1050 l 35 1049 q -1 1060 8 1049 q -11 1104 -11 1072 q 3 1149 -11 1136 q 54 1161 17 1161 q 106 1147 92 1161 q 121 1104 121 1132 q 107 1032 121 1032 l 101 1036 q 64 1050 93 1050 m 264 615 q 283 51 264 185 q 219 -3 283 18 q 114 -25 156 -25 q 72 -12 72 -25 q 76 8 72 -4 q 103 478 103 67 q 69 910 103 867 l 64 918 q 56 935 56 925 q 71 953 56 946 q 145 978 92 965 q 242 990 199 990 q 285 971 285 990 l 285 967 q 264 615 268 822 z "},"":{"ha":729,"x_min":-28,"x_max":715,"o":"m 256 342 l 254 199 q 331 157 281 157 q 418 181 382 157 q 474 248 454 206 q 508 332 494 290 q 528 424 522 374 q 535 568 535 503 q 519 701 535 633 q 483 806 504 769 q 432 865 461 843 q 333 900 386 900 q 290 892 308 900 q 272 871 272 883 q 256 606 256 813 l 256 532 q 388 533 288 533 q 406 518 406 533 q 356 449 406 449 l 256 449 l 256 342 m 26 529 l 86 529 l 86 554 q 74 832 86 776 q 56 903 63 888 l 49 917 q 43 933 43 922 q 60 950 43 943 q 344 993 168 993 q 715 521 715 993 q 650 183 715 336 q 589 83 624 125 q 498 12 554 40 q 374 -17 442 -17 q 285 2 331 -17 q 222 49 239 21 q 218 53 219 53 l 213 47 q 68 -15 164 -15 q 47 -3 47 -12 l 51 14 q 85 449 82 78 l -10 449 q -28 475 -28 449 q 26 529 -28 529 z "},"":{"ha":739,"x_min":42,"x_max":697,"o":"m 357 1138 l 504 1128 q 556 1132 543 1128 q 571 1136 568 1136 q 579 1129 579 1136 q 547 1070 579 1107 q 485 1033 515 1033 q 407 1046 454 1033 q 333 1058 360 1058 q 288 1055 307 1058 q 257 1048 269 1051 q 240 1044 244 1044 q 236 1053 236 1044 q 278 1105 236 1072 q 357 1138 321 1138 m 568 435 l 567 600 q 550 926 567 846 q 547 942 547 936 q 594 982 547 965 q 669 999 642 999 q 697 982 697 999 q 694 967 697 981 q 663 424 663 796 q 692 58 663 169 q 697 39 697 40 q 633 -9 697 10 q 543 -28 569 -28 q 486 -8 501 -28 q 387 210 456 31 q 267 546 318 390 l 214 701 q 207 708 211 708 q 194 699 201 708 q 188 440 188 569 q 190 242 188 311 q 194 136 192 172 q 200 78 197 100 q 205 47 203 57 q 207 33 207 38 q 161 -8 207 7 q 78 -22 115 -22 q 42 -6 42 -22 q 46 15 42 3 q 56 47 50 28 q 75 224 69 96 q 81 517 81 353 q 76 757 81 682 q 51 921 69 879 q 47 932 47 925 q 121 975 47 954 q 235 996 194 996 q 283 994 276 996 q 307 972 303 996 q 420 629 347 826 q 550 328 493 432 q 561 321 557 321 q 568 435 568 321 z "},"":{"ha":781,"x_min":28,"x_max":753,"o":"m 486 1051 q 486 1046 486 1051 q 483 1038 486 1042 q 473 1033 479 1033 q 403 1074 467 1033 q 319 1130 339 1115 q 300 1159 300 1144 q 327 1194 300 1174 q 367 1214 354 1214 l 383 1207 q 444 1123 403 1186 q 486 1051 486 1060 m 406 892 q 322 856 356 892 q 264 694 264 792 q 314 576 264 596 q 326 558 326 572 q 299 488 326 517 q 231 454 271 460 q 218 444 218 454 q 217 401 217 429 q 219 338 217 372 q 233 258 222 304 q 260 177 243 211 q 310 119 278 143 q 395 94 343 94 q 489 136 447 94 q 547 244 531 178 q 578 469 578 361 q 564 658 578 576 q 531 783 550 740 q 486 853 513 826 q 442 885 460 879 q 406 892 424 892 m 153 754 l 158 763 q 203 873 172 826 q 266 942 235 919 q 336 978 297 965 q 426 994 388 994 q 587 951 519 994 q 689 835 654 908 q 753 517 753 694 q 614 82 753 218 q 464 -8 546 15 q 365 -24 413 -24 q 110 95 192 -24 q 28 396 28 214 q 46 590 28 501 q 83 714 64 678 l 101 750 q 119 763 107 763 q 138 760 132 763 q 148 756 144 758 q 153 754 151 754 z "},"":{"ha":781,"x_min":28,"x_max":753,"o":"m 343 1021 q 329 1015 336 1015 q 318 1028 318 1015 l 321 1039 q 421 1189 358 1114 q 438 1196 426 1196 q 478 1176 450 1196 q 506 1141 506 1156 q 493 1118 506 1126 q 343 1021 435 1071 m 406 892 q 322 856 356 892 q 264 694 264 792 q 314 576 264 596 q 326 558 326 572 q 299 488 326 517 q 231 454 271 460 q 218 444 218 454 q 217 401 217 429 q 219 338 217 372 q 233 258 222 304 q 260 177 243 211 q 310 119 278 143 q 395 94 343 94 q 489 136 447 94 q 547 244 531 178 q 578 469 578 361 q 564 658 578 576 q 531 783 550 740 q 486 853 513 826 q 442 885 460 879 q 406 892 424 892 m 153 754 l 158 763 q 203 873 172 826 q 266 942 235 919 q 336 978 297 965 q 426 994 388 994 q 587 951 519 994 q 689 835 654 908 q 753 517 753 694 q 614 82 753 218 q 464 -8 546 15 q 365 -24 413 -24 q 110 95 192 -24 q 28 396 28 214 q 46 590 28 501 q 83 714 64 678 l 101 750 q 119 763 107 763 q 138 760 132 763 q 148 756 144 758 q 153 754 151 754 z "},"":{"ha":781,"x_min":28,"x_max":753,"o":"m 563 1035 q 551 1022 563 1022 q 410 1110 540 1022 q 268 1022 281 1022 q 256 1033 256 1022 l 258 1044 q 354 1186 304 1132 q 373 1193 360 1193 q 410 1174 386 1193 q 449 1193 433 1193 l 465 1186 q 547 1069 507 1144 l 561 1044 q 563 1035 563 1040 m 406 892 q 322 856 356 892 q 264 694 264 792 q 314 576 264 596 q 326 558 326 572 q 299 488 326 517 q 231 454 271 460 q 218 444 218 454 q 217 401 217 429 q 219 338 217 372 q 233 258 222 304 q 260 177 243 211 q 310 119 278 143 q 395 94 343 94 q 489 136 447 94 q 547 244 531 178 q 578 469 578 361 q 564 658 578 576 q 531 783 550 740 q 486 853 513 826 q 442 885 460 879 q 406 892 424 892 m 153 754 l 158 763 q 203 873 172 826 q 266 942 235 919 q 336 978 297 965 q 426 994 388 994 q 587 951 519 994 q 689 835 654 908 q 753 517 753 694 q 614 82 753 218 q 464 -8 546 15 q 365 -24 413 -24 q 110 95 192 -24 q 28 396 28 214 q 46 590 28 501 q 83 714 64 678 l 101 750 q 119 763 107 763 q 138 760 132 763 q 148 756 144 758 q 153 754 151 754 z "},"":{"ha":781,"x_min":28,"x_max":753,"o":"m 374 1124 l 514 1113 q 554 1117 542 1113 q 568 1121 567 1121 q 576 1114 576 1121 q 549 1068 576 1093 q 497 1043 522 1043 q 431 1053 471 1043 q 365 1063 392 1063 q 320 1058 339 1063 q 290 1050 301 1054 q 275 1046 279 1046 q 271 1057 271 1046 q 302 1096 271 1068 q 374 1124 333 1124 m 406 892 q 322 856 356 892 q 264 694 264 792 q 314 576 264 596 q 326 558 326 572 q 299 488 326 517 q 231 454 271 460 q 218 444 218 454 q 217 401 217 429 q 219 338 217 372 q 233 258 222 304 q 260 177 243 211 q 310 119 278 143 q 395 94 343 94 q 489 136 447 94 q 547 244 531 178 q 578 469 578 361 q 564 658 578 576 q 531 783 550 740 q 486 853 513 826 q 442 885 460 879 q 406 892 424 892 m 153 754 l 158 763 q 203 873 172 826 q 266 942 235 919 q 336 978 297 965 q 426 994 388 994 q 587 951 519 994 q 689 835 654 908 q 753 517 753 694 q 614 82 753 218 q 464 -8 546 15 q 365 -24 413 -24 q 110 95 192 -24 q 28 396 28 214 q 46 590 28 501 q 83 714 64 678 l 101 750 q 119 763 107 763 q 138 760 132 763 q 148 756 144 758 q 153 754 151 754 z "},"":{"ha":781,"x_min":28,"x_max":753,"o":"m 542 1046 l 513 1044 q 476 1056 486 1044 q 467 1100 467 1068 q 481 1144 467 1132 q 532 1157 494 1157 q 584 1142 569 1157 q 599 1100 599 1128 q 585 1028 599 1028 l 579 1032 q 542 1046 571 1046 m 299 1046 l 269 1044 q 233 1056 243 1044 q 224 1100 224 1068 q 238 1144 224 1132 q 289 1157 251 1157 q 341 1142 326 1157 q 356 1100 356 1128 q 350 1040 356 1051 q 342 1028 344 1028 l 336 1032 q 299 1046 328 1046 m 406 892 q 322 856 356 892 q 264 694 264 792 q 314 576 264 596 q 326 558 326 572 q 299 488 326 517 q 231 454 271 460 q 218 444 218 454 q 217 401 217 429 q 219 338 217 372 q 233 258 222 304 q 260 177 243 211 q 310 119 278 143 q 395 94 343 94 q 489 136 447 94 q 547 244 531 178 q 578 469 578 361 q 564 658 578 576 q 531 783 550 740 q 486 853 513 826 q 442 885 460 879 q 406 892 424 892 m 153 754 l 158 763 q 203 873 172 826 q 266 942 235 919 q 336 978 297 965 q 426 994 388 994 q 587 951 519 994 q 689 835 654 908 q 753 517 753 694 q 614 82 753 218 q 464 -8 546 15 q 365 -24 413 -24 q 110 95 192 -24 q 28 396 28 214 q 46 590 28 501 q 83 714 64 678 l 101 750 q 119 763 107 763 q 138 760 132 763 q 148 756 144 758 q 153 754 151 754 z "},"":{"ha":644,"x_min":42,"x_max":603,"o":"m 597 786 q 560 740 597 782 q 382 514 524 699 q 575 244 547 269 q 603 207 603 218 q 556 188 603 188 q 469 206 478 188 q 321 435 458 232 l 165 222 q 93 194 144 194 q 42 210 42 194 l 51 225 q 274 504 163 360 l 96 756 q 89 772 89 764 q 144 792 89 792 q 215 767 199 792 q 335 585 268 685 l 478 781 q 543 806 489 806 q 597 786 597 806 z "},"":{"ha":781,"x_min":28,"x_max":821,"o":"m 153 -58 q 97 -87 138 -87 q 57 -71 57 -87 q 61 -58 57 -64 l 724 1019 q 778 1040 735 1040 q 821 1029 821 1040 q 153 -58 821 1028 m 406 892 q 322 856 356 892 q 264 694 264 792 q 314 576 264 596 q 326 558 326 572 q 299 488 326 517 q 231 454 271 460 q 218 444 218 454 q 217 401 217 429 q 219 338 217 372 q 233 258 222 304 q 260 177 243 211 q 310 119 278 143 q 395 94 343 94 q 489 136 447 94 q 547 244 531 178 q 578 469 578 361 q 564 658 578 576 q 531 783 550 740 q 486 853 513 826 q 442 885 460 879 q 406 892 424 892 m 153 754 l 158 763 q 203 873 172 826 q 266 942 235 919 q 336 978 297 965 q 426 994 388 994 q 587 951 519 994 q 689 835 654 908 q 753 517 753 694 q 614 82 753 218 q 464 -8 546 15 q 365 -24 413 -24 q 110 95 192 -24 q 28 396 28 214 q 46 590 28 501 q 83 714 64 678 l 101 750 q 119 763 107 763 q 138 760 132 763 q 148 756 144 758 q 153 754 151 754 z "},"":{"ha":758,"x_min":40,"x_max":721,"o":"m 469 1037 q 469 1032 469 1037 q 466 1024 469 1028 q 456 1019 463 1019 q 386 1060 450 1019 q 303 1116 322 1101 q 283 1145 283 1131 q 310 1180 283 1160 q 350 1200 338 1200 l 367 1193 q 428 1109 388 1172 q 469 1037 469 1046 m 71 242 l 81 632 q 76 781 81 722 q 53 911 69 885 l 47 919 q 40 933 40 925 q 110 976 40 960 q 226 992 179 992 q 274 965 274 992 l 272 950 q 249 624 253 813 q 244 378 244 436 q 249 281 244 319 q 253 235 253 242 q 260 212 254 229 q 276 181 267 194 q 347 147 301 147 q 424 168 393 147 q 471 219 456 189 q 510 332 503 285 l 513 353 q 519 586 519 451 q 518 763 519 721 q 514 831 517 804 q 509 879 511 858 q 506 912 507 900 q 504 925 504 924 q 519 950 504 940 q 592 981 543 968 q 681 993 642 993 q 719 975 719 993 q 713 929 719 972 q 682 404 682 740 q 715 50 682 156 q 721 27 721 33 q 710 11 721 21 q 599 -21 668 -21 q 525 14 531 -21 q 517 86 518 32 l 515 103 q 510 115 515 115 l 494 106 q 433 31 468 61 q 367 -10 399 1 q 277 -26 321 -26 q 190 -3 233 -26 q 124 50 146 19 q 89 122 103 81 q 71 242 71 182 z "},"":{"ha":758,"x_min":40,"x_max":721,"o":"m 379 1047 q 365 1042 372 1042 q 354 1054 354 1042 l 357 1065 q 457 1215 394 1140 q 474 1222 463 1222 q 514 1202 486 1222 q 542 1167 542 1182 q 529 1144 542 1153 q 379 1047 471 1097 m 71 242 l 81 632 q 76 781 81 722 q 53 911 69 885 l 47 919 q 40 933 40 925 q 110 976 40 960 q 226 992 179 992 q 274 965 274 992 l 272 950 q 249 624 253 813 q 244 378 244 436 q 249 281 244 319 q 253 235 253 242 q 260 212 254 229 q 276 181 267 194 q 347 147 301 147 q 424 168 393 147 q 471 219 456 189 q 510 332 503 285 l 513 353 q 519 586 519 451 q 518 763 519 721 q 514 831 517 804 q 509 879 511 858 q 506 912 507 900 q 504 925 504 924 q 519 950 504 940 q 592 981 543 968 q 681 993 642 993 q 719 975 719 993 q 713 929 719 972 q 682 404 682 740 q 715 50 682 156 q 721 27 721 33 q 710 11 721 21 q 599 -21 668 -21 q 525 14 531 -21 q 517 86 518 32 l 515 103 q 510 115 515 115 l 494 106 q 433 31 468 61 q 367 -10 399 1 q 277 -26 321 -26 q 190 -3 233 -26 q 124 50 146 19 q 89 122 103 81 q 71 242 71 182 z "},"":{"ha":758,"x_min":40,"x_max":721,"o":"m 550 1039 q 539 1026 550 1026 q 397 1114 528 1026 q 256 1026 268 1026 q 243 1038 243 1026 l 246 1049 q 342 1190 292 1136 q 360 1197 347 1197 q 397 1178 372 1197 q 436 1197 421 1197 l 453 1190 q 535 1075 494 1149 l 549 1049 q 550 1039 550 1044 m 71 242 l 81 632 q 76 781 81 722 q 53 911 69 885 l 47 919 q 40 933 40 925 q 110 976 40 960 q 226 992 179 992 q 274 965 274 992 l 272 950 q 249 624 253 813 q 244 378 244 436 q 249 281 244 319 q 253 235 253 242 q 260 212 254 229 q 276 181 267 194 q 347 147 301 147 q 424 168 393 147 q 471 219 456 189 q 510 332 503 285 l 513 353 q 519 586 519 451 q 518 763 519 721 q 514 831 517 804 q 509 879 511 858 q 506 912 507 900 q 504 925 504 924 q 519 950 504 940 q 592 981 543 968 q 681 993 642 993 q 719 975 719 993 q 713 929 719 972 q 682 404 682 740 q 715 50 682 156 q 721 27 721 33 q 710 11 721 21 q 599 -21 668 -21 q 525 14 531 -21 q 517 86 518 32 l 515 103 q 510 115 515 115 l 494 106 q 433 31 468 61 q 367 -10 399 1 q 277 -26 321 -26 q 190 -3 233 -26 q 124 50 146 19 q 89 122 103 81 q 71 242 71 182 z "},"":{"ha":758,"x_min":40,"x_max":721,"o":"m 522 1065 l 493 1064 q 457 1076 467 1064 q 447 1119 447 1088 q 461 1164 447 1151 q 513 1176 475 1176 q 565 1162 550 1176 q 579 1119 579 1147 q 565 1047 579 1047 l 560 1051 q 522 1065 551 1065 m 279 1065 l 250 1064 q 214 1076 224 1064 q 204 1119 204 1088 q 218 1164 204 1151 q 269 1176 232 1176 q 322 1162 307 1176 q 336 1119 336 1147 q 331 1059 336 1071 q 322 1047 325 1047 l 317 1051 q 279 1065 308 1065 m 71 242 l 81 632 q 76 781 81 722 q 53 911 69 885 l 47 919 q 40 933 40 925 q 110 976 40 960 q 226 992 179 992 q 274 965 274 992 l 272 950 q 249 624 253 813 q 244 378 244 436 q 249 281 244 319 q 253 235 253 242 q 260 212 254 229 q 276 181 267 194 q 347 147 301 147 q 424 168 393 147 q 471 219 456 189 q 510 332 503 285 l 513 353 q 519 586 519 451 q 518 763 519 721 q 514 831 517 804 q 509 879 511 858 q 506 912 507 900 q 504 925 504 924 q 519 950 504 940 q 592 981 543 968 q 681 993 642 993 q 719 975 719 993 q 713 929 719 972 q 682 404 682 740 q 715 50 682 156 q 721 27 721 33 q 710 11 721 21 q 599 -21 668 -21 q 525 14 531 -21 q 517 86 518 32 l 515 103 q 510 115 515 115 l 494 106 q 433 31 468 61 q 367 -10 399 1 q 277 -26 321 -26 q 190 -3 233 -26 q 124 50 146 19 q 89 122 103 81 q 71 242 71 182 z "},"":{"ha":735,"x_min":-35,"x_max":786,"o":"m 379 1057 q 365 1051 372 1051 q 354 1064 354 1051 l 357 1075 q 457 1225 394 1150 q 474 1232 463 1232 q 514 1212 486 1232 q 542 1177 542 1192 q 529 1154 542 1163 q 379 1057 471 1107 m 542 903 l 536 954 q 600 990 536 979 q 725 1000 664 1000 q 786 979 786 1000 q 772 956 786 969 q 641 769 718 899 q 514 539 564 640 l 464 439 q 439 323 439 386 q 443 198 439 260 q 451 93 447 136 q 456 43 456 50 q 392 -13 456 8 q 287 -35 328 -35 q 246 -19 246 -35 l 250 -1 q 274 299 274 125 q 260 406 274 342 l 256 424 q 89 778 167 664 q -8 897 22 879 l -21 906 q -35 925 -35 914 q 38 974 -35 949 q 147 999 110 999 q 196 976 183 999 q 390 554 321 715 q 402 546 394 546 q 420 563 410 546 q 451 615 431 579 q 507 744 472 651 q 542 903 542 836 z "},"":{"ha":724,"x_min":35,"x_max":696,"o":"m 51 -12 l 56 8 q 82 478 82 67 q 50 910 82 867 l 43 918 q 35 935 35 925 q 50 953 35 946 q 124 978 71 965 q 221 990 178 990 q 264 971 264 990 l 264 967 q 251 821 257 911 q 367 825 306 825 q 613 736 531 825 q 696 524 696 647 q 628 311 696 401 q 453 221 561 221 q 383 233 418 221 q 314 338 314 258 q 325 383 314 354 q 357 411 336 411 q 378 400 363 411 q 410 389 393 389 l 411 389 q 486 426 458 389 q 517 501 514 464 l 521 539 q 505 630 521 592 q 468 687 489 668 q 419 717 447 706 q 347 729 385 729 q 285 722 308 729 q 258 706 261 714 l 257 699 q 244 342 244 511 l 244 335 q 258 75 247 176 q 264 51 264 56 q 203 -4 264 17 q 82 -25 142 -25 l 74 -25 q 51 -12 51 -24 z "},"":{"ha":732,"x_min":-14,"x_max":718,"o":"m 222 347 l 229 69 q 206 -85 229 -18 q 150 -186 183 -153 q 31 -267 82 -257 l 7 -272 q -14 -260 -14 -272 l -7 -239 q 94 450 94 -99 q 93 525 94 500 q 35 521 64 525 l 33 521 q 18 536 18 521 l 22 589 q 42 601 24 601 l 92 601 l 92 694 q 151 851 92 783 q 287 948 210 918 q 431 978 364 978 q 572 899 572 978 q 510 699 572 846 q 447 507 447 553 q 571 379 447 439 q 718 190 718 310 q 695 86 718 131 q 643 21 672 42 q 575 -12 614 0 q 478 -29 522 -29 q 328 6 388 -29 q 268 119 268 42 q 294 194 268 165 q 386 238 332 238 q 403 222 403 238 q 397 201 403 221 q 390 150 390 181 q 415 96 390 119 q 474 72 439 72 q 529 84 508 72 q 558 114 550 96 q 571 161 571 139 q 531 231 571 201 q 442 276 490 260 q 353 332 393 293 q 313 442 313 371 q 371 660 313 513 q 429 835 429 808 q 374 883 429 883 q 273 824 319 883 q 226 640 226 764 l 222 347 z "},"":{"ha":549,"x_min":15,"x_max":549,"o":"m 407 733 q 407 729 407 733 q 403 720 407 725 q 394 715 400 715 q 324 756 388 715 q 240 812 260 797 q 221 841 221 826 q 248 876 221 856 q 288 896 275 896 l 304 889 q 365 806 324 869 q 407 733 407 742 m 506 417 l 503 239 q 543 17 503 54 q 549 4 549 11 q 459 -17 549 -17 q 364 36 369 -17 q 363 88 363 49 l 368 310 q 357 319 368 319 q 232 282 290 319 q 174 186 174 244 q 190 135 174 156 q 231 114 207 114 q 272 124 256 114 q 290 135 288 133 q 314 85 314 132 q 271 10 314 39 q 181 -18 228 -18 q 99 -1 133 -18 q 50 36 65 15 q 25 83 35 57 q 15 139 15 115 q 76 294 15 236 q 233 378 138 353 q 365 424 360 403 q 369 475 369 439 q 294 549 369 549 q 238 528 263 549 q 213 478 213 508 l 221 444 q 171 417 218 421 l 156 415 q 90 436 114 415 q 65 492 65 457 q 80 541 65 514 q 117 585 94 568 q 185 615 139 601 q 275 628 232 628 q 342 625 318 628 q 406 612 365 622 q 474 572 447 601 q 503 510 501 543 q 506 417 506 478 z "},"":{"ha":549,"x_min":15,"x_max":549,"o":"m 278 721 q 264 715 271 715 q 253 728 253 715 l 256 739 q 356 889 293 814 q 373 896 361 896 q 413 876 385 896 q 440 841 440 856 q 428 818 440 826 q 278 721 369 771 m 506 417 l 503 239 q 543 17 503 54 q 549 4 549 11 q 459 -17 549 -17 q 364 36 369 -17 q 363 88 363 49 l 368 310 q 357 319 368 319 q 232 282 290 319 q 174 186 174 244 q 190 135 174 156 q 231 114 207 114 q 272 124 256 114 q 290 135 288 133 q 314 85 314 132 q 271 10 314 39 q 181 -18 228 -18 q 99 -1 133 -18 q 50 36 65 15 q 25 83 35 57 q 15 139 15 115 q 76 294 15 236 q 233 378 138 353 q 365 424 360 403 q 369 475 369 439 q 294 549 369 549 q 238 528 263 549 q 213 478 213 508 l 221 444 q 171 417 218 421 l 156 415 q 90 436 114 415 q 65 492 65 457 q 80 541 65 514 q 117 585 94 568 q 185 615 139 601 q 275 628 232 628 q 342 625 318 628 q 406 612 365 622 q 474 572 447 601 q 503 510 501 543 q 506 417 506 478 z "},"":{"ha":549,"x_min":15,"x_max":549,"o":"m 465 726 q 454 714 465 714 q 313 801 443 714 q 171 714 183 714 q 158 725 158 714 l 161 736 q 257 878 207 824 q 276 885 263 885 q 313 865 289 885 q 351 885 336 885 l 368 878 q 450 761 410 836 l 464 736 q 465 726 465 732 m 506 417 l 503 239 q 543 17 503 54 q 549 4 549 11 q 459 -17 549 -17 q 364 36 369 -17 q 363 88 363 49 l 368 310 q 357 319 368 319 q 232 282 290 319 q 174 186 174 244 q 190 135 174 156 q 231 114 207 114 q 272 124 256 114 q 290 135 288 133 q 314 85 314 132 q 271 10 314 39 q 181 -18 228 -18 q 99 -1 133 -18 q 50 36 65 15 q 25 83 35 57 q 15 139 15 115 q 76 294 15 236 q 233 378 138 353 q 365 424 360 403 q 369 475 369 439 q 294 549 369 549 q 238 528 263 549 q 213 478 213 508 l 221 444 q 171 417 218 421 l 156 415 q 90 436 114 415 q 65 492 65 457 q 80 541 65 514 q 117 585 94 568 q 185 615 139 601 q 275 628 232 628 q 342 625 318 628 q 406 612 365 622 q 474 572 447 601 q 503 510 501 543 q 506 417 506 478 z "},"":{"ha":549,"x_min":15,"x_max":549,"o":"m 240 801 l 381 790 q 421 794 408 790 q 435 799 433 799 q 443 792 443 799 q 416 746 443 771 q 363 721 389 721 q 298 731 338 721 q 232 740 258 740 q 187 736 206 740 q 157 728 168 732 q 142 724 146 724 q 138 735 138 724 q 169 774 138 746 q 240 801 200 801 m 506 417 l 503 239 q 543 17 503 54 q 549 4 549 11 q 459 -17 549 -17 q 364 36 369 -17 q 363 88 363 49 l 368 310 q 357 319 368 319 q 232 282 290 319 q 174 186 174 244 q 190 135 174 156 q 231 114 207 114 q 272 124 256 114 q 290 135 288 133 q 314 85 314 132 q 271 10 314 39 q 181 -18 228 -18 q 99 -1 133 -18 q 50 36 65 15 q 25 83 35 57 q 15 139 15 115 q 76 294 15 236 q 233 378 138 353 q 365 424 360 403 q 369 475 369 439 q 294 549 369 549 q 238 528 263 549 q 213 478 213 508 l 221 444 q 171 417 218 421 l 156 415 q 90 436 114 415 q 65 492 65 457 q 80 541 65 514 q 117 585 94 568 q 185 615 139 601 q 275 628 232 628 q 342 625 318 628 q 406 612 365 622 q 474 572 447 601 q 503 510 501 543 q 506 417 506 478 z "},"":{"ha":549,"x_min":15,"x_max":549,"o":"m 426 747 l 397 746 q 361 758 371 746 q 351 801 351 769 q 365 846 351 833 q 417 858 379 858 q 469 844 454 858 q 483 801 483 829 q 478 741 483 753 q 469 729 472 729 l 464 733 q 426 747 456 747 m 183 747 l 154 746 q 118 758 128 746 q 108 801 108 769 q 122 846 108 833 q 174 858 136 858 q 226 844 211 858 q 240 801 240 829 q 226 729 240 729 l 221 733 q 183 747 213 747 m 506 417 l 503 239 q 543 17 503 54 q 549 4 549 11 q 459 -17 549 -17 q 364 36 369 -17 q 363 88 363 49 l 368 310 q 357 319 368 319 q 232 282 290 319 q 174 186 174 244 q 190 135 174 156 q 231 114 207 114 q 272 124 256 114 q 290 135 288 133 q 314 85 314 132 q 271 10 314 39 q 181 -18 228 -18 q 99 -1 133 -18 q 50 36 65 15 q 25 83 35 57 q 15 139 15 115 q 76 294 15 236 q 233 378 138 353 q 365 424 360 403 q 369 475 369 439 q 294 549 369 549 q 238 528 263 549 q 213 478 213 508 l 221 444 q 171 417 218 421 l 156 415 q 90 436 114 415 q 65 492 65 457 q 80 541 65 514 q 117 585 94 568 q 185 615 139 601 q 275 628 232 628 q 342 625 318 628 q 406 612 365 622 q 474 572 447 601 q 503 510 501 543 q 506 417 506 478 z "},"":{"ha":549,"x_min":15,"x_max":549,"o":"m 313 763 q 358 754 333 763 q 365 776 365 754 q 325 842 365 842 q 294 831 306 842 q 283 803 283 819 q 313 763 283 763 m 240 799 q 263 860 240 839 q 326 881 286 881 q 386 851 365 881 q 407 763 407 822 q 389 703 407 703 q 381 706 385 703 q 306 725 358 725 q 240 799 240 725 m 506 417 l 503 239 q 543 17 503 54 q 549 4 549 11 q 459 -17 549 -17 q 364 36 369 -17 q 363 88 363 49 l 368 310 q 357 319 368 319 q 232 282 290 319 q 174 186 174 244 q 190 135 174 156 q 231 114 207 114 q 272 124 256 114 q 290 135 288 133 q 314 85 314 132 q 271 10 314 39 q 181 -18 228 -18 q 99 -1 133 -18 q 50 36 65 15 q 25 83 35 57 q 15 139 15 115 q 76 294 15 236 q 233 378 138 353 q 365 424 360 403 q 369 475 369 439 q 294 549 369 549 q 238 528 263 549 q 213 478 213 508 l 221 444 q 171 417 218 421 l 156 415 q 90 436 114 415 q 65 492 65 457 q 80 541 65 514 q 117 585 94 568 q 185 615 139 601 q 275 628 232 628 q 342 625 318 628 q 406 612 365 622 q 474 572 447 601 q 503 510 501 543 q 506 417 506 478 z "},"":{"ha":849,"x_min":15,"x_max":828,"o":"m 511 353 l 513 318 q 524 310 513 310 q 601 333 568 314 q 650 375 635 351 q 688 464 685 426 l 689 481 q 629 556 689 556 q 556 517 585 556 q 511 353 511 456 m 814 168 q 792 76 814 115 q 744 17 771 36 q 681 -12 717 -1 q 593 -26 636 -26 q 421 61 476 -26 q 365 284 365 149 q 434 525 365 419 q 640 631 503 631 q 811 543 765 631 q 828 480 828 510 q 825 433 828 450 q 806 381 822 415 q 761 318 789 346 q 674 265 733 290 q 533 232 614 240 q 522 222 522 232 q 531 185 522 210 q 553 144 540 161 q 642 106 582 106 q 744 144 701 106 q 779 196 765 165 q 794 207 785 207 q 808 192 803 207 q 814 168 814 176 m 506 417 l 503 239 q 543 17 503 54 q 549 4 549 11 q 459 -17 549 -17 q 364 36 369 -17 q 363 88 363 49 l 368 310 q 357 319 368 319 q 232 282 290 319 q 174 186 174 244 q 190 135 174 156 q 231 114 207 114 q 272 124 256 114 q 290 135 288 133 q 314 85 314 132 q 271 10 314 39 q 181 -18 228 -18 q 99 -1 133 -18 q 50 36 65 15 q 25 83 35 57 q 15 139 15 115 q 76 294 15 236 q 233 378 138 353 q 365 424 360 403 q 369 475 369 439 q 294 549 369 549 q 238 528 263 549 q 213 478 213 508 l 221 444 q 171 417 218 421 l 156 415 q 90 436 114 415 q 65 492 65 457 q 80 541 65 514 q 117 585 94 568 q 185 615 139 601 q 275 628 232 628 q 342 625 318 628 q 406 612 365 622 q 474 572 447 601 q 503 510 501 543 q 506 417 506 478 z "},"":{"ha":528,"x_min":35,"x_max":500,"o":"m 496 160 q 439 34 496 83 q 300 -21 382 -15 q 281 -44 281 -33 q 293 -58 281 -54 q 335 -100 335 -72 q 310 -142 335 -128 q 263 -156 286 -156 q 222 -149 239 -156 q 204 -132 204 -143 l 211 -124 q 242 -126 228 -126 q 264 -117 256 -126 q 272 -97 272 -108 q 251 -74 272 -86 q 229 -56 229 -62 q 244 -35 229 -46 q 258 -22 258 -25 l 256 -19 q 35 263 35 -10 q 97 511 35 403 q 185 599 128 567 q 318 631 242 631 q 481 553 433 631 q 500 478 500 521 q 444 378 500 411 q 403 365 422 365 q 373 367 385 365 q 342 386 361 369 q 322 432 322 403 q 346 457 324 447 q 367 501 367 469 q 300 556 367 556 q 260 541 283 556 q 222 503 238 526 q 194 431 207 481 q 181 337 181 382 q 184 269 181 292 q 199 206 188 246 q 244 142 211 167 q 325 117 276 117 q 428 165 383 117 q 457 213 446 185 q 471 224 463 224 q 490 201 483 224 q 496 160 496 178 z "},"":{"ha":518,"x_min":28,"x_max":490,"o":"m 353 733 q 353 729 353 733 q 349 720 353 725 q 340 715 346 715 q 269 756 333 715 q 186 812 206 797 q 167 841 167 826 q 194 876 167 856 q 233 896 221 896 l 250 889 q 311 806 269 869 q 353 733 353 742 m 174 353 l 175 318 q 186 310 175 310 q 264 333 231 314 q 314 375 297 351 q 350 464 347 426 l 351 481 q 292 556 351 556 q 219 517 247 556 q 174 353 174 456 m 476 168 q 455 76 476 115 q 406 17 433 36 q 343 -12 379 -1 q 256 -26 297 -26 q 83 61 139 -26 q 28 284 28 149 q 97 525 28 419 q 303 631 165 631 q 472 543 428 631 q 490 480 490 510 q 488 433 490 450 q 468 381 485 415 q 424 318 451 346 q 336 265 396 290 q 196 232 276 240 q 185 222 185 232 q 194 185 185 210 q 214 144 203 161 q 304 106 244 106 q 406 144 364 106 q 442 196 428 165 q 456 207 447 207 q 471 192 465 207 q 476 168 476 176 z "},"":{"ha":511,"x_min":28,"x_max":490,"o":"m 235 721 q 221 715 228 715 q 210 728 210 715 l 213 739 q 313 889 250 814 q 330 896 318 896 q 369 876 342 896 q 397 841 397 856 q 385 818 397 826 q 235 721 326 771 m 174 353 l 175 318 q 186 310 175 310 q 264 333 231 314 q 314 375 297 351 q 350 464 347 426 l 351 481 q 292 556 351 556 q 219 517 247 556 q 174 353 174 456 m 476 168 q 455 76 476 115 q 406 17 433 36 q 343 -12 379 -1 q 256 -26 297 -26 q 83 61 139 -26 q 28 284 28 149 q 97 525 28 419 q 303 631 165 631 q 472 543 428 631 q 490 480 490 510 q 488 433 490 450 q 468 381 485 415 q 424 318 451 346 q 336 265 396 290 q 196 232 276 240 q 185 222 185 232 q 194 185 185 210 q 214 144 203 161 q 304 106 244 106 q 406 144 364 106 q 442 196 428 165 q 456 207 447 207 q 471 192 465 207 q 476 168 476 176 z "},"":{"ha":511,"x_min":28,"x_max":490,"o":"m 436 711 q 425 699 436 699 q 283 786 414 699 q 142 699 154 699 q 129 710 129 699 l 132 721 q 228 863 178 808 q 246 869 233 869 q 283 850 258 869 q 322 869 308 869 l 339 863 q 421 747 381 821 l 435 721 q 436 711 436 717 m 174 353 l 175 318 q 186 310 175 310 q 264 333 231 314 q 314 375 297 351 q 350 464 347 426 l 351 481 q 292 556 351 556 q 219 517 247 556 q 174 353 174 456 m 476 168 q 455 76 476 115 q 406 17 433 36 q 343 -12 379 -1 q 256 -26 297 -26 q 83 61 139 -26 q 28 284 28 149 q 97 525 28 419 q 303 631 165 631 q 472 543 428 631 q 490 480 490 510 q 488 433 490 450 q 468 381 485 415 q 424 318 451 346 q 336 265 396 290 q 196 232 276 240 q 185 222 185 232 q 194 185 185 210 q 214 144 203 161 q 304 106 244 106 q 406 144 364 106 q 442 196 428 165 q 456 207 447 207 q 471 192 465 207 q 476 168 476 176 z "},"":{"ha":511,"x_min":28,"x_max":490,"o":"m 394 747 l 365 746 q 329 758 339 746 q 319 801 319 769 q 333 846 319 833 q 385 858 347 858 q 437 844 422 858 q 451 801 451 829 q 438 729 451 729 l 432 733 q 394 747 424 747 m 151 747 l 122 746 q 86 758 96 746 q 76 801 76 769 q 90 846 76 833 q 142 858 104 858 q 194 844 179 858 q 208 801 208 829 q 203 741 208 753 q 194 729 197 729 l 189 733 q 151 747 181 747 m 174 353 l 175 318 q 186 310 175 310 q 264 333 231 314 q 314 375 297 351 q 350 464 347 426 l 351 481 q 292 556 351 556 q 219 517 247 556 q 174 353 174 456 m 476 168 q 455 76 476 115 q 406 17 433 36 q 343 -12 379 -1 q 256 -26 297 -26 q 83 61 139 -26 q 28 284 28 149 q 97 525 28 419 q 303 631 165 631 q 472 543 428 631 q 490 480 490 510 q 488 433 490 450 q 468 381 485 415 q 424 318 451 346 q 336 265 396 290 q 196 232 276 240 q 185 222 185 232 q 194 185 185 210 q 214 144 203 161 q 304 106 244 106 q 406 144 364 106 q 442 196 428 165 q 456 207 447 207 q 471 192 465 207 q 476 168 476 176 z "},"":{"ha":292,"x_min":35,"x_max":249,"o":"m 239 733 q 239 729 239 733 q 235 720 239 725 q 226 715 232 715 q 156 756 219 715 q 72 812 92 797 q 53 841 53 826 q 80 876 53 856 q 119 896 107 896 l 136 889 q 198 806 157 869 q 239 733 239 742 m 74 42 l 89 365 q 63 522 89 481 q 43 543 54 536 q 35 554 35 546 q 106 603 35 579 q 209 626 176 626 q 243 610 242 626 q 235 452 243 582 q 228 179 228 322 q 244 1 228 36 q 249 -12 249 -6 q 196 -31 249 -31 q 88 -3 143 -31 q 74 42 74 4 z "},"":{"ha":292,"x_min":35,"x_max":283,"o":"m 121 721 q 107 715 114 715 q 96 728 96 715 l 99 739 q 199 889 136 814 q 216 896 204 896 q 256 876 228 896 q 283 841 283 856 q 271 818 283 826 q 121 721 213 771 m 74 42 l 89 365 q 63 522 89 481 q 43 543 54 536 q 35 554 35 546 q 106 603 35 579 q 209 626 176 626 q 243 610 242 626 q 235 452 243 582 q 228 179 228 322 q 244 1 228 36 q 249 -12 249 -6 q 196 -31 249 -31 q 88 -3 143 -31 q 74 42 74 4 z "},"":{"ha":292,"x_min":-7,"x_max":300,"o":"m 300 726 q 289 714 300 714 q 147 801 278 714 q 6 714 18 714 q -7 725 -7 714 l -4 736 q 92 878 42 824 q 110 885 97 885 q 147 865 124 885 q 186 885 171 885 l 203 878 q 285 761 244 836 l 299 736 q 300 726 300 732 m 74 42 l 89 365 q 63 522 89 481 q 43 543 54 536 q 35 554 35 546 q 106 603 35 579 q 209 626 176 626 q 243 610 242 626 q 235 452 243 582 q 228 179 228 322 q 244 1 228 36 q 249 -12 249 -6 q 196 -31 249 -31 q 88 -3 143 -31 q 74 42 74 4 z "},"":{"ha":292,"x_min":-42,"x_max":333,"o":"m 276 747 l 247 746 q 211 758 221 746 q 201 801 201 769 q 215 846 201 833 q 267 858 229 858 q 319 844 304 858 q 333 801 333 829 q 328 741 333 753 q 319 729 322 729 l 314 733 q 276 747 306 747 m 33 747 l 4 746 q -32 758 -22 746 q -42 801 -42 769 q -28 846 -42 833 q 24 858 -14 858 q 76 844 61 858 q 90 801 90 829 q 76 729 90 729 l 71 733 q 33 747 63 747 m 74 42 l 89 365 q 63 522 89 481 q 43 543 54 536 q 35 554 35 546 q 106 603 35 579 q 209 626 176 626 q 243 610 242 626 q 235 452 243 582 q 228 179 228 322 q 244 1 228 36 q 249 -12 249 -6 q 196 -31 249 -31 q 88 -3 143 -31 q 74 42 74 4 z "},"":{"ha":572,"x_min":35,"x_max":632,"o":"m 536 676 l 525 269 q 546 19 525 61 q 551 1 551 10 q 492 -19 551 -19 q 378 35 378 -19 q 375 103 375 57 q 384 277 375 150 q 393 473 393 404 q 324 542 393 542 q 219 461 256 542 q 183 300 183 381 q 269 129 183 129 q 294 134 282 129 q 308 139 306 139 q 326 125 319 139 q 332 97 332 111 q 294 17 332 50 q 203 -15 257 -15 q 77 58 119 -15 q 35 239 35 131 q 100 494 35 376 q 190 588 133 553 q 319 624 247 624 q 365 617 344 624 q 386 611 385 611 l 394 618 q 399 708 399 693 q 396 767 399 722 l 293 701 q 288 700 292 700 q 269 728 269 700 q 289 769 269 757 q 385 831 331 796 q 257 999 356 957 q 251 1008 251 1003 q 275 1021 251 1021 q 497 903 442 1015 l 603 968 q 613 972 608 972 q 632 940 632 972 q 607 900 632 914 l 518 846 q 536 676 536 781 z "},"":{"ha":554,"x_min":42,"x_max":550,"o":"m 258 781 l 399 769 q 439 774 426 769 q 453 778 451 778 q 461 771 461 778 q 434 725 461 750 q 381 700 407 700 q 316 710 356 700 q 250 719 276 719 q 205 715 224 719 q 175 707 186 711 q 160 703 164 703 q 156 714 156 703 q 187 753 156 725 q 258 781 218 781 m 42 -10 q 67 350 67 140 q 54 622 67 560 q 96 640 54 640 q 181 592 160 640 q 188 588 182 588 q 196 590 193 588 q 329 635 239 635 q 472 589 419 635 q 525 456 525 543 q 516 306 525 403 q 507 161 507 208 q 544 -1 507 49 q 550 -15 550 -8 q 511 -33 550 -33 q 339 119 339 -33 q 365 282 339 178 q 392 440 392 386 q 300 551 392 551 q 233 525 256 551 q 207 465 210 499 q 204 336 204 431 q 214 85 204 192 l 217 54 q 166 -6 217 15 q 78 -28 115 -28 q 42 -10 42 -28 z "},"":{"ha":583,"x_min":28,"x_max":563,"o":"m 396 733 q 396 729 396 733 q 392 720 396 725 q 383 715 389 715 q 313 756 376 715 q 229 812 249 797 q 210 841 210 826 q 237 876 210 856 q 276 896 264 896 l 293 889 q 355 806 314 869 q 396 733 396 742 m 178 524 q 126 522 142 522 q 110 529 110 521 q 118 546 110 538 q 418 628 207 628 q 532 615 490 628 l 546 611 q 563 596 563 604 q 553 585 563 589 q 481 549 515 574 q 446 515 446 525 l 454 506 q 523 426 499 481 q 550 331 547 372 l 553 288 q 476 61 553 150 q 268 -28 400 -28 q 153 -4 201 -28 q 81 49 104 19 q 44 117 58 79 q 28 223 28 168 q 47 333 28 278 q 90 415 65 389 q 144 458 114 442 q 207 479 183 479 q 231 469 231 479 l 222 456 q 178 361 192 419 q 165 258 165 303 q 176 168 165 213 q 201 102 188 124 q 233 69 215 81 q 289 53 260 53 q 346 76 318 53 q 386 136 374 99 q 411 279 411 206 q 352 460 411 396 q 178 524 293 524 z "},"":{"ha":583,"x_min":28,"x_max":563,"o":"m 278 721 q 264 715 271 715 q 253 728 253 715 l 256 739 q 356 889 293 814 q 373 896 361 896 q 413 876 385 896 q 440 841 440 856 q 428 818 440 826 q 278 721 369 771 m 178 524 q 126 522 142 522 q 110 529 110 521 q 118 546 110 538 q 418 628 207 628 q 532 615 490 628 l 546 611 q 563 596 563 604 q 553 585 563 589 q 481 549 515 574 q 446 515 446 525 l 454 506 q 523 426 499 481 q 550 331 547 372 l 553 288 q 476 61 553 150 q 268 -28 400 -28 q 153 -4 201 -28 q 81 49 104 19 q 44 117 58 79 q 28 223 28 168 q 47 333 28 278 q 90 415 65 389 q 144 458 114 442 q 207 479 183 479 q 231 469 231 479 l 222 456 q 178 361 192 419 q 165 258 165 303 q 176 168 165 213 q 201 102 188 124 q 233 69 215 81 q 289 53 260 53 q 346 76 318 53 q 386 136 374 99 q 411 279 411 206 q 352 460 411 396 q 178 524 293 524 z "},"":{"ha":583,"x_min":28,"x_max":563,"o":"m 481 726 q 469 714 481 714 q 328 801 458 714 q 186 714 199 714 q 174 725 174 714 l 176 736 q 272 878 222 824 q 290 885 278 885 q 328 865 303 885 q 367 885 353 885 l 383 878 q 465 761 425 836 l 479 736 q 481 726 481 732 m 178 524 q 126 522 142 522 q 110 529 110 521 q 118 546 110 538 q 418 628 207 628 q 532 615 490 628 l 546 611 q 563 596 563 604 q 553 585 563 589 q 481 549 515 574 q 446 515 446 525 l 454 506 q 523 426 499 481 q 550 331 547 372 l 553 288 q 476 61 553 150 q 268 -28 400 -28 q 153 -4 201 -28 q 81 49 104 19 q 44 117 58 79 q 28 223 28 168 q 47 333 28 278 q 90 415 65 389 q 144 458 114 442 q 207 479 183 479 q 231 469 231 479 l 222 456 q 178 361 192 419 q 165 258 165 303 q 176 168 165 213 q 201 102 188 124 q 233 69 215 81 q 289 53 260 53 q 346 76 318 53 q 386 136 374 99 q 411 279 411 206 q 352 460 411 396 q 178 524 293 524 z "},"":{"ha":583,"x_min":28,"x_max":563,"o":"m 267 790 l 407 779 q 447 783 435 779 q 461 788 460 788 q 469 781 469 788 q 442 735 469 760 q 390 710 415 710 q 324 719 364 710 q 258 729 285 729 q 213 725 232 729 q 183 717 194 721 q 168 713 172 713 q 164 724 164 713 q 195 763 164 735 q 267 790 226 790 m 178 524 q 126 522 142 522 q 110 529 110 521 q 118 546 110 538 q 418 628 207 628 q 532 615 490 628 l 546 611 q 563 596 563 604 q 553 585 563 589 q 481 549 515 574 q 446 515 446 525 l 454 506 q 523 426 499 481 q 550 331 547 372 l 553 288 q 476 61 553 150 q 268 -28 400 -28 q 153 -4 201 -28 q 81 49 104 19 q 44 117 58 79 q 28 223 28 168 q 47 333 28 278 q 90 415 65 389 q 144 458 114 442 q 207 479 183 479 q 231 469 231 479 l 222 456 q 178 361 192 419 q 165 258 165 303 q 176 168 165 213 q 201 102 188 124 q 233 69 215 81 q 289 53 260 53 q 346 76 318 53 q 386 136 374 99 q 411 279 411 206 q 352 460 411 396 q 178 524 293 524 z "},"":{"ha":583,"x_min":28,"x_max":563,"o":"m 438 747 l 408 746 q 372 758 382 746 q 363 801 363 769 q 376 846 363 833 q 428 858 390 858 q 480 844 465 858 q 494 801 494 829 q 489 741 494 753 q 481 729 483 729 l 475 733 q 438 747 467 747 m 194 747 l 165 746 q 129 758 139 746 q 119 801 119 769 q 133 846 119 833 q 185 858 147 858 q 237 844 222 858 q 251 801 251 829 q 238 729 251 729 l 232 733 q 194 747 224 747 m 178 524 q 126 522 142 522 q 110 529 110 521 q 118 546 110 538 q 418 628 207 628 q 532 615 490 628 l 546 611 q 563 596 563 604 q 553 585 563 589 q 481 549 515 574 q 446 515 446 525 l 454 506 q 523 426 499 481 q 550 331 547 372 l 553 288 q 476 61 553 150 q 268 -28 400 -28 q 153 -4 201 -28 q 81 49 104 19 q 44 117 58 79 q 28 223 28 168 q 47 333 28 278 q 90 415 65 389 q 144 458 114 442 q 207 479 183 479 q 231 469 231 479 l 222 456 q 178 361 192 419 q 165 258 165 303 q 176 168 165 213 q 201 102 188 124 q 233 69 215 81 q 289 53 260 53 q 346 76 318 53 q 386 136 374 99 q 411 279 411 206 q 352 460 411 396 q 178 524 293 524 z "},"":{"ha":693,"x_min":42,"x_max":650,"o":"m 363 656 l 329 653 q 282 668 296 653 q 268 721 268 683 q 286 774 268 758 q 347 790 304 790 q 410 775 390 790 q 431 697 431 760 q 413 633 431 633 l 406 638 q 363 656 397 656 m 358 193 l 325 192 q 280 206 292 192 q 268 260 268 221 q 288 315 268 300 q 350 329 307 329 q 412 312 393 329 q 431 253 431 294 q 413 171 431 171 l 406 175 q 358 193 397 193 m 101 533 l 629 538 q 644 533 639 538 q 650 524 650 528 l 650 519 q 594 444 650 444 l 63 444 q 42 472 42 444 q 101 533 42 533 z "},"":{"ha":590,"x_min":-8,"x_max":589,"o":"m 385 424 l 199 121 q 285 53 231 53 q 353 76 325 53 q 394 136 381 99 q 418 286 418 206 q 385 424 418 367 m 185 524 q 133 522 149 522 q 117 529 117 521 q 125 546 117 538 q 425 628 214 628 l 494 739 q 547 760 506 760 q 589 749 589 760 q 508 621 572 724 l 553 611 q 569 596 569 604 q 560 585 569 592 q 488 549 522 574 q 453 515 453 525 l 461 506 q 531 426 506 481 q 558 331 556 372 l 560 288 q 483 61 560 150 q 275 -28 407 -28 q 131 11 189 -28 l 88 -58 q 32 -87 72 -87 q -8 -71 -8 -87 q -4 -58 -8 -64 l 75 68 q 35 204 35 131 q 53 333 35 278 q 97 415 72 389 q 150 458 121 442 q 214 479 190 479 q 238 469 238 479 l 229 456 q 185 361 199 419 q 172 272 172 303 q 174 226 172 240 l 333 482 q 185 524 274 524 z "},"":{"ha":558,"x_min":42,"x_max":533,"o":"m 376 733 q 376 729 376 733 q 373 720 376 725 q 363 715 369 715 q 293 756 357 715 q 210 812 229 797 q 190 841 190 826 q 217 876 190 856 q 257 896 244 896 l 274 889 q 335 806 294 869 q 376 733 376 742 m 533 618 q 508 236 508 468 q 522 11 508 65 l 528 -7 q 497 -25 528 -25 q 375 35 390 -25 q 369 42 374 42 q 360 36 364 42 q 226 -21 317 -21 q 122 4 176 -21 q 68 58 89 19 q 47 151 47 96 l 68 456 q 49 592 68 551 q 42 611 42 607 q 49 622 42 619 q 106 629 71 629 q 240 518 240 629 q 212 360 240 483 q 183 184 183 236 q 206 104 183 132 q 270 76 229 76 q 335 106 311 76 q 363 164 358 135 l 367 193 q 372 364 372 242 q 365 519 372 486 q 357 560 357 551 q 413 615 357 594 q 513 635 468 635 q 533 618 533 635 z "},"":{"ha":558,"x_min":42,"x_max":533,"o":"m 268 721 q 254 715 261 715 q 243 728 243 715 l 246 739 q 346 889 283 814 q 363 896 351 896 q 403 876 375 896 q 431 841 431 856 q 418 818 431 826 q 268 721 360 771 m 533 618 q 508 236 508 468 q 522 11 508 65 l 528 -7 q 497 -25 528 -25 q 375 35 390 -25 q 369 42 374 42 q 360 36 364 42 q 226 -21 317 -21 q 122 4 176 -21 q 68 58 89 19 q 47 151 47 96 l 68 456 q 49 592 68 551 q 42 611 42 607 q 49 622 42 619 q 106 629 71 629 q 240 518 240 629 q 212 360 240 483 q 183 184 183 236 q 206 104 183 132 q 270 76 229 76 q 335 106 311 76 q 363 164 358 135 l 367 193 q 372 364 372 242 q 365 519 372 486 q 357 560 357 551 q 413 615 357 594 q 513 635 468 635 q 533 618 533 635 z "},"":{"ha":558,"x_min":42,"x_max":533,"o":"m 461 726 q 450 714 461 714 q 308 801 439 714 q 167 714 179 714 q 154 725 154 714 l 157 736 q 253 878 203 824 q 272 885 258 885 q 308 865 285 885 q 347 885 333 885 l 364 878 q 446 761 406 836 l 460 736 q 461 726 461 732 m 533 618 q 508 236 508 468 q 522 11 508 65 l 528 -7 q 497 -25 528 -25 q 375 35 390 -25 q 369 42 374 42 q 360 36 364 42 q 226 -21 317 -21 q 122 4 176 -21 q 68 58 89 19 q 47 151 47 96 l 68 456 q 49 592 68 551 q 42 611 42 607 q 49 622 42 619 q 106 629 71 629 q 240 518 240 629 q 212 360 240 483 q 183 184 183 236 q 206 104 183 132 q 270 76 229 76 q 335 106 311 76 q 363 164 358 135 l 367 193 q 372 364 372 242 q 365 519 372 486 q 357 560 357 551 q 413 615 357 594 q 513 635 468 635 q 533 618 533 635 z "},"":{"ha":558,"x_min":42,"x_max":533,"o":"m 415 747 l 386 746 q 350 758 360 746 q 340 801 340 769 q 354 846 340 833 q 406 858 368 858 q 458 844 443 858 q 472 801 472 829 q 467 741 472 753 q 458 729 461 729 l 453 733 q 415 747 444 747 m 172 747 l 143 746 q 107 758 117 746 q 97 801 97 769 q 111 846 97 833 q 163 858 125 858 q 215 844 200 858 q 229 801 229 829 q 215 729 229 729 l 210 733 q 172 747 201 747 m 533 618 q 508 236 508 468 q 522 11 508 65 l 528 -7 q 497 -25 528 -25 q 375 35 390 -25 q 369 42 374 42 q 360 36 364 42 q 226 -21 317 -21 q 122 4 176 -21 q 68 58 89 19 q 47 151 47 96 l 68 456 q 49 592 68 551 q 42 611 42 607 q 49 622 42 619 q 106 629 71 629 q 240 518 240 629 q 212 360 240 483 q 183 184 183 236 q 206 104 183 132 q 270 76 229 76 q 335 106 311 76 q 363 164 358 135 l 367 193 q 372 364 372 242 q 365 519 372 486 q 357 560 357 551 q 413 615 357 594 q 513 635 468 635 q 533 618 533 635 z "},"":{"ha":540,"x_min":-28,"x_max":560,"o":"m 296 721 q 282 715 289 715 q 271 728 271 715 l 274 739 q 374 889 311 814 q 391 896 379 896 q 431 876 403 896 q 458 841 458 856 q 446 818 458 826 q 296 721 388 771 m 288 -385 q 271 -401 288 -401 l 269 -401 q 166 -369 224 -401 q 108 -296 108 -337 q 161 -151 108 -254 q 214 -12 214 -47 q 178 122 214 25 q 105 328 132 249 q 47 467 78 407 q 1 539 15 528 l -12 549 q -28 567 -28 557 q 33 606 -28 586 q 139 626 93 626 q 174 593 160 626 q 228 413 199 528 q 317 176 299 176 q 367 274 329 176 q 406 431 406 371 q 344 553 406 535 q 331 567 331 556 q 396 615 331 592 q 514 638 461 638 q 560 578 560 638 q 540 471 560 532 q 504 374 521 410 q 422 210 488 339 q 313 -15 356 82 q 265 -253 265 -132 q 276 -349 265 -317 q 288 -385 288 -381 z "},"":{"ha":590,"x_min":21,"x_max":561,"o":"m 224 953 q 229 790 229 917 q 228 601 229 663 q 340 632 276 632 q 453 599 404 632 q 525 511 503 565 q 561 314 561 418 q 522 108 561 211 q 463 17 503 53 q 368 -18 422 -18 q 261 106 261 -18 q 275 139 261 139 q 291 133 278 139 q 317 126 304 126 q 415 335 415 126 q 310 544 415 544 q 260 531 281 544 q 235 506 240 518 l 229 492 q 210 10 210 367 q 216 -204 210 -117 q 222 -306 222 -292 q 214 -331 222 -319 q 139 -395 186 -367 q 56 -424 92 -424 q 42 -406 42 -424 q 83 339 65 -253 q 89 557 89 525 l 83 769 q 67 836 81 808 q 42 872 54 864 l 31 879 q 21 892 21 885 q 81 940 21 911 q 199 968 142 968 q 224 953 221 968 z "},"":{"ha":540,"x_min":-28,"x_max":560,"o":"m 401 747 l 372 746 q 336 758 346 746 q 326 801 326 769 q 340 846 326 833 q 392 858 354 858 q 444 844 429 858 q 458 801 458 829 q 453 741 458 753 q 444 729 447 729 l 439 733 q 401 747 431 747 m 158 747 l 129 746 q 93 758 103 746 q 83 801 83 769 q 97 846 83 833 q 149 858 111 858 q 201 844 186 858 q 215 801 215 829 q 201 729 215 729 l 196 733 q 158 747 188 747 m 288 -385 q 271 -401 288 -401 l 269 -401 q 166 -369 224 -401 q 108 -296 108 -337 q 161 -151 108 -254 q 214 -12 214 -47 q 178 122 214 25 q 105 328 132 249 q 47 467 78 407 q 1 539 15 528 l -12 549 q -28 567 -28 557 q 33 606 -28 586 q 139 626 93 626 q 174 593 160 626 q 228 413 199 528 q 317 176 299 176 q 367 274 329 176 q 406 431 406 371 q 344 553 406 535 q 331 567 331 556 q 396 615 331 592 q 514 638 461 638 q 560 578 560 638 q 540 471 560 532 q 504 374 521 410 q 422 210 488 339 q 313 -15 356 82 q 265 -253 265 -132 q 276 -349 265 -317 q 288 -385 288 -381 z "},"":{"ha":292,"x_min":35,"x_max":249,"o":"m 74 42 l 89 365 q 63 522 89 481 q 43 543 54 536 q 35 554 35 546 q 106 603 35 579 q 209 626 176 626 q 243 610 242 626 q 235 452 243 582 q 228 179 228 322 q 244 1 228 36 q 249 -12 249 -6 q 196 -31 249 -31 q 88 -3 143 -31 q 74 42 74 4 z "},"":{"ha":619,"x_min":-28,"x_max":610,"o":"m 428 1 l 349 3 q 315 3 332 3 l 63 -10 q 42 4 42 -10 q 46 24 42 8 q 66 226 60 56 q 72 507 72 397 l 72 532 l -4 483 q -10 482 -6 482 q -28 510 -28 482 q -1 556 -28 539 q 71 603 25 574 q 56 876 67 835 q 34 929 44 917 q 24 950 24 942 q 99 989 24 972 q 206 1006 174 1006 q 247 1002 239 1006 q 256 986 256 999 q 253 940 256 974 q 239 708 243 829 l 306 750 q 315 754 311 754 q 335 722 335 754 q 310 681 335 696 l 238 638 q 236 434 236 596 q 242 200 236 272 q 251 121 247 128 q 277 104 254 114 q 339 94 300 94 q 475 304 475 94 q 469 376 475 363 q 463 394 463 390 q 482 408 463 408 q 523 393 497 408 q 565 355 549 378 q 596 283 582 332 q 610 167 610 233 q 569 1 610 1 q 428 1 499 1 z "},"":{"ha":343,"x_min":-6,"x_max":357,"o":"m 96 38 q 122 390 117 181 l 18 324 q 13 322 17 322 q -6 351 -6 322 q 14 392 -6 379 q 124 461 63 422 l 124 557 l 118 769 q 102 836 115 808 q 78 872 89 864 l 65 879 q 56 892 56 885 q 116 940 56 911 q 233 968 176 968 q 258 953 256 968 q 264 789 264 917 q 260 549 264 661 l 328 590 q 338 594 333 594 q 357 563 357 594 q 332 522 357 536 l 258 476 q 256 285 256 346 q 271 -1 256 46 q 275 -18 275 -10 q 235 -35 275 -35 q 145 -15 194 -35 q 96 38 96 6 z "},"":{"ha":1171,"x_min":28,"x_max":1151,"o":"m 392 892 q 311 855 342 892 q 272 776 281 818 q 264 686 264 735 q 314 576 264 596 q 326 558 326 572 q 299 488 326 517 q 231 454 271 460 q 218 444 218 454 q 217 401 217 429 q 219 338 217 372 q 233 258 222 304 q 260 177 243 211 q 310 119 278 143 q 386 94 343 94 q 564 467 564 94 q 472 853 564 761 q 428 885 446 879 q 392 892 410 892 m 153 754 l 158 763 q 201 873 172 826 q 261 942 231 919 q 328 978 292 965 q 413 994 376 994 q 678 826 594 994 q 835 960 746 922 q 1015 997 925 997 q 1129 967 1106 997 q 1140 910 1140 951 q 1131 869 1140 869 q 1117 875 1129 869 q 1028 892 1082 892 q 844 808 910 892 q 756 594 778 725 q 1042 596 833 596 q 1056 586 1056 596 q 1033 530 1056 564 q 983 496 1011 496 l 744 496 q 743 423 743 479 q 763 305 743 367 q 838 200 783 243 q 981 157 893 157 q 1128 196 1068 157 q 1140 201 1135 201 q 1151 172 1151 201 q 1090 28 1151 75 q 917 -19 1028 -19 q 639 121 728 -19 q 475 -6 568 21 q 365 -24 407 -24 q 110 95 192 -24 q 28 396 28 214 q 46 590 28 501 q 83 714 64 678 l 101 750 q 119 763 107 763 q 138 760 132 763 q 148 756 144 758 q 153 754 151 754 z "},"":{"ha":917,"x_min":35,"x_max":896,"o":"m 579 353 l 581 318 q 592 310 581 310 q 669 333 636 314 q 719 375 703 351 q 756 464 753 426 l 757 481 q 697 556 757 556 q 625 517 653 556 q 579 353 579 456 m 882 168 q 860 76 882 115 q 812 17 839 36 q 749 -12 785 -1 q 661 -26 704 -26 q 489 61 544 -26 q 433 284 433 149 q 502 525 433 419 q 708 631 571 631 q 878 543 833 631 q 896 480 896 510 q 893 433 896 450 q 874 381 890 415 q 829 318 857 346 q 742 265 801 290 q 601 232 682 240 q 590 222 590 232 q 599 185 590 210 q 619 144 608 161 q 710 106 650 106 q 811 144 769 106 q 847 196 833 165 q 862 207 853 207 q 876 192 871 207 q 882 168 882 176 m 185 524 q 133 522 149 522 q 117 529 117 521 q 125 546 117 538 q 425 628 214 628 q 539 615 497 628 l 553 611 q 569 596 569 604 q 560 585 569 592 q 488 549 522 574 q 453 515 453 525 l 461 506 q 531 426 506 481 q 558 331 556 372 l 560 288 q 483 61 560 150 q 275 -28 407 -28 q 160 -4 208 -28 q 88 49 111 19 q 53 117 65 79 q 35 223 35 168 q 53 333 35 278 q 97 415 72 389 q 150 458 121 442 q 214 479 190 479 q 238 469 238 479 l 229 456 q 185 361 199 419 q 172 258 172 303 q 183 168 172 213 q 208 102 194 124 q 242 69 222 81 q 296 53 267 53 q 353 76 325 53 q 394 136 381 99 q 418 279 418 206 q 359 460 418 396 q 185 524 300 524 z "},"":{"ha":708,"x_min":18,"x_max":686,"o":"m 410 1156 q 551 1243 540 1243 q 563 1231 563 1243 l 561 1221 q 465 1079 510 1124 q 447 1072 460 1072 q 410 1092 433 1072 q 371 1072 386 1072 l 354 1079 q 271 1197 307 1129 l 258 1221 q 256 1232 256 1226 q 268 1243 256 1243 q 410 1156 281 1243 m 483 769 l 489 813 q 439 894 489 876 q 379 907 400 907 l 378 907 q 306 894 336 907 q 261 861 275 881 q 228 776 232 821 q 275 685 228 724 q 390 619 322 647 q 524 557 457 590 q 639 461 592 524 q 686 311 686 399 q 578 56 686 140 q 334 -29 471 -29 q 108 33 197 -29 q 18 199 18 94 l 18 200 q 34 290 18 251 q 72 346 50 328 q 156 386 118 383 l 172 388 q 243 369 211 388 q 275 317 275 350 q 257 289 275 300 q 226 256 239 278 q 211 218 213 233 l 208 203 q 286 90 208 118 q 331 81 314 81 q 453 126 407 81 q 500 243 500 172 q 428 381 500 328 q 310 446 374 419 q 225 483 247 472 q 178 510 203 494 q 122 553 153 525 q 56 710 56 611 q 110 878 56 810 q 401 1001 207 1001 q 575 962 504 1001 q 646 853 646 922 q 617 769 646 803 q 544 736 589 736 q 503 744 524 736 q 483 769 483 753 z "},"":{"ha":478,"x_min":14,"x_max":464,"o":"m 281 794 q 422 882 411 882 q 433 869 433 882 l 432 860 q 336 718 381 763 q 318 711 331 711 q 281 731 306 711 q 242 711 257 711 l 225 718 q 142 836 178 768 l 129 860 q 126 871 126 865 q 139 882 126 882 q 281 794 151 882 m 464 190 q 441 86 464 131 q 389 21 418 42 q 319 -12 360 0 q 224 -29 267 -29 q 74 6 133 -29 q 14 119 14 42 q 39 194 14 165 q 132 238 78 238 q 149 222 149 238 q 142 201 149 221 q 136 150 136 181 q 160 96 136 119 q 219 72 185 72 q 275 84 254 72 q 304 114 296 96 q 317 161 317 139 q 276 231 317 201 q 188 276 236 260 q 99 332 139 293 q 58 429 58 371 q 122 579 58 529 q 293 629 185 629 q 392 616 340 629 q 444 572 444 603 q 434 514 444 540 q 408 488 424 488 q 397 494 400 488 q 388 508 394 500 q 354 530 381 517 q 309 543 328 543 q 284 542 290 543 q 263 538 278 542 q 235 528 247 535 q 203 475 203 510 q 213 442 203 453 q 228 426 222 432 q 247 413 233 421 q 267 403 261 406 q 292 391 272 400 q 317 379 311 382 q 464 190 464 310 z "},"":{"ha":735,"x_min":-35,"x_max":786,"o":"m 510 1097 l 481 1096 q 444 1108 454 1096 q 435 1151 435 1119 q 449 1196 435 1183 q 500 1208 463 1208 q 552 1194 538 1208 q 567 1151 567 1179 q 561 1091 567 1103 q 553 1079 556 1079 l 547 1083 q 510 1097 539 1097 m 267 1097 l 238 1096 q 201 1108 211 1096 q 192 1151 192 1119 q 206 1196 192 1183 q 257 1208 219 1208 q 309 1194 294 1208 q 324 1151 324 1179 q 310 1079 324 1079 l 304 1083 q 267 1097 296 1097 m 542 903 l 536 954 q 600 990 536 979 q 725 1000 664 1000 q 786 979 786 1000 q 772 956 786 969 q 641 769 718 899 q 514 539 564 640 l 464 439 q 439 323 439 386 q 443 198 439 260 q 451 93 447 136 q 456 43 456 50 q 392 -13 456 8 q 287 -35 328 -35 q 246 -19 246 -35 l 250 -1 q 274 299 274 125 q 260 406 274 342 l 256 424 q 89 778 167 664 q -8 897 22 879 l -21 906 q -35 925 -35 914 q 38 974 -35 949 q 147 999 110 999 q 196 976 183 999 q 390 554 321 715 q 402 546 394 546 q 420 563 410 546 q 451 615 431 579 q 507 744 472 651 q 542 903 542 836 z "},"":{"ha":751,"x_min":-3,"x_max":715,"o":"m 425 1135 q 567 1222 556 1222 q 578 1210 578 1222 l 576 1200 q 481 1058 525 1103 q 463 1051 475 1051 q 425 1071 450 1051 q 386 1051 400 1051 l 369 1058 q 286 1176 322 1108 l 274 1200 q 271 1211 271 1206 q 283 1222 271 1222 q 425 1135 296 1222 m 469 975 l 686 983 q 710 958 710 983 q 488 542 710 911 q 265 122 265 174 q 376 83 265 83 q 521 113 457 83 q 585 208 585 143 q 554 269 585 249 q 483 290 524 290 q 463 313 463 290 q 508 393 463 358 q 606 428 553 428 q 658 413 631 428 q 715 283 715 382 q 639 14 715 133 q 610 -10 624 -10 l 604 -10 q 404 -4 511 -4 l 126 -11 l 22 -8 q -3 12 -3 -6 q 24 88 -3 29 q 169 344 51 147 q 319 600 286 542 q 436 831 394 736 l 451 863 q 454 874 454 871 q 394 889 454 889 q 285 872 335 889 q 204 832 236 856 q 114 743 139 783 l 103 726 q 81 700 90 703 l 76 700 q 62 705 68 700 q 56 717 56 710 q 81 944 56 860 q 97 966 83 956 q 147 978 111 976 q 256 979 182 979 l 469 975 z "},"":{"ha":529,"x_min":0,"x_max":529,"o":"m 315 794 q 457 882 446 882 q 468 869 468 882 l 467 860 q 371 718 415 763 q 353 711 365 711 q 315 731 340 711 q 276 711 292 711 l 260 718 q 176 836 213 768 l 164 860 q 161 871 161 865 q 174 882 161 882 q 315 794 186 882 m 351 611 l 503 615 q 521 600 521 615 q 433 436 521 572 q 281 199 346 300 q 217 76 217 97 q 256 63 217 63 q 324 74 294 63 q 367 106 353 86 q 390 167 390 139 q 385 221 390 194 q 415 240 385 238 q 511 200 488 240 q 529 135 529 168 q 468 22 529 60 q 324 -15 407 -15 l 165 -11 l 25 -14 q 0 3 0 -14 q 45 94 0 21 q 136 233 90 168 l 182 299 q 306 497 299 482 q 314 522 314 511 q 274 542 314 542 q 201 531 233 542 q 147 503 168 519 q 111 471 126 488 q 83 432 83 440 q 68 418 79 418 l 67 418 q 47 442 47 418 q 72 569 47 496 l 82 594 q 111 614 88 614 l 351 611 z "},"":{"ha":549,"x_min":146,"x_max":453,"o":"m 453 726 q 442 714 453 714 q 300 801 431 714 q 158 714 171 714 q 146 725 146 714 l 149 736 q 244 878 194 824 q 263 885 250 885 q 300 865 275 885 q 339 885 325 885 l 356 878 q 438 761 397 836 l 451 736 q 453 726 453 732 z "},"":{"ha":549,"x_min":142,"x_max":449,"o":"m 296 794 q 438 882 426 882 q 449 869 449 882 l 447 860 q 351 718 396 763 q 333 711 346 711 q 296 731 319 711 q 257 711 271 711 l 240 718 q 157 836 193 768 l 144 860 q 142 871 142 865 q 154 882 142 882 q 296 794 167 882 z "},"":{"ha":354,"x_min":61,"x_max":324,"o":"m 256 863 q 291 876 258 876 q 324 864 324 876 q 283 760 324 800 q 192 719 243 719 q 101 760 142 719 q 61 860 61 801 q 81 876 61 876 q 114 872 100 876 q 129 861 128 867 q 153 796 135 819 q 194 772 171 772 q 235 796 218 772 q 256 863 253 819 z "},"":{"ha":292,"x_min":78,"x_max":242,"o":"m 185 743 l 151 744 q 103 726 114 744 q 96 722 100 722 q 78 784 78 722 q 97 863 78 846 q 162 879 115 879 q 225 863 208 879 q 242 810 242 847 q 229 758 242 772 q 185 743 217 743 z "},"":{"ha":549,"x_min":201,"x_max":368,"o":"m 319 754 q 326 776 326 754 q 286 842 326 842 q 256 831 267 842 q 244 803 244 819 q 274 763 244 763 q 306 758 294 763 q 319 754 318 754 m 201 799 q 224 860 201 839 q 287 881 247 881 q 347 851 326 881 q 368 763 368 822 q 350 703 368 703 q 342 706 346 703 q 267 725 319 725 q 201 799 201 725 z "},"":{"ha":511,"x_min":224,"x_max":364,"o":"m 297 -4 l 311 -19 q 283 -58 283 -39 q 329 -99 283 -99 q 357 -94 343 -99 q 364 -103 364 -94 q 311 -132 364 -132 q 251 -116 278 -132 q 224 -74 224 -100 q 244 -28 224 -49 q 297 -4 264 -8 z "},"":{"ha":568,"x_min":168,"x_max":474,"o":"m 271 781 l 411 769 q 451 774 439 769 q 465 778 464 778 q 474 771 474 778 q 447 725 474 750 q 394 700 419 700 q 328 710 368 700 q 263 719 289 719 q 217 715 236 719 q 188 707 199 711 q 172 703 176 703 q 168 714 168 703 q 199 753 168 725 q 271 781 231 781 z "},"":{"ha":581,"x_min":183,"x_max":525,"o":"m 208 721 q 194 715 201 715 q 183 728 183 715 l 186 739 q 286 889 224 814 q 303 896 292 896 q 343 876 315 896 q 371 841 371 856 q 358 818 371 826 q 208 721 300 771 m 363 721 q 349 715 356 715 q 338 728 338 715 l 340 739 q 440 889 378 814 q 458 896 446 896 q 497 876 469 896 q 525 841 525 856 q 513 818 525 826 q 363 721 454 771 z "},"":{"ha":611,"x_min":19,"x_max":601,"o":"m 231 643 l 436 626 q 582 660 529 626 q 590 661 586 661 q 601 646 601 661 q 567 585 592 615 q 519 547 542 556 q 496 532 496 538 q 485 326 485 442 q 526 6 485 125 q 529 -7 529 -6 q 514 -22 529 -19 q 419 -12 450 -19 q 358 50 358 1 l 361 82 q 379 451 379 296 l 378 518 q 364 533 378 531 q 260 542 307 542 q 246 529 246 542 l 246 528 q 232 297 232 394 q 239 83 232 146 l 240 63 l 249 28 q 204 -15 249 1 q 111 -31 160 -31 q 82 -11 82 -31 l 83 -3 q 131 503 131 124 l 131 524 q 113 535 131 535 q 67 527 96 535 q 32 519 38 519 q 19 529 19 519 q 45 567 19 542 q 123 618 71 593 q 231 643 175 643 z "},"":{"ha":500,"x_min":61,"x_max":453,"o":"m 88 389 q 443 393 88 389 q 453 378 453 393 q 428 308 453 308 l 69 308 q 61 335 61 308 q 68 376 61 363 q 88 389 72 389 z "},"":{"ha":892,"x_min":61,"x_max":844,"o":"m 115 389 q 826 393 115 389 q 844 378 844 393 q 794 308 844 308 l 79 308 q 61 336 61 308 q 115 389 61 389 z "},"":{"ha":228,"x_min":51,"x_max":200,"o":"m 106 735 q 51 910 51 785 q 70 968 51 950 q 131 986 89 986 q 186 972 172 986 q 200 928 200 957 q 192 872 200 886 q 144 851 185 851 q 119 826 119 851 q 154 728 119 769 q 144 714 154 714 q 106 735 126 717 z "},"":{"ha":217,"x_min":28,"x_max":176,"o":"m 176 910 q 103 722 176 758 q 83 714 93 717 q 74 728 74 714 q 108 826 108 769 q 83 851 108 851 q 39 867 47 851 q 28 923 28 889 q 42 972 28 957 q 97 986 56 986 q 158 968 139 986 q 176 910 176 950 z "},"":{"ha":301,"x_min":69,"x_max":232,"o":"m 232 58 q 197 -74 232 -18 q 118 -137 161 -129 q 108 -133 108 -137 l 111 -125 q 150 -43 143 -93 l 151 -26 q 132 0 151 -3 l 125 0 q 81 14 93 0 q 69 64 69 28 q 85 117 69 100 q 147 135 101 135 q 213 117 193 135 q 232 58 232 100 z "},"":{"ha":411,"x_min":51,"x_max":383,"o":"m 106 735 q 51 910 51 785 q 70 968 51 950 q 131 986 89 986 q 186 972 172 986 q 200 928 200 957 q 192 872 200 886 q 144 851 185 851 q 119 826 119 851 q 154 728 119 769 q 144 714 154 714 q 106 735 126 717 m 289 735 q 235 910 235 785 q 253 968 235 950 q 314 986 272 986 q 369 972 356 986 q 383 928 383 957 q 375 872 383 886 q 328 851 368 851 q 303 826 303 851 q 338 728 303 769 q 328 714 338 714 q 289 735 310 717 z "},"":{"ha":400,"x_min":28,"x_max":360,"o":"m 360 910 q 286 722 360 758 q 267 714 276 717 q 257 728 257 714 q 292 826 292 769 q 267 851 292 851 q 222 867 231 851 q 211 923 211 889 q 225 972 211 957 q 281 986 239 986 q 341 968 322 986 q 360 910 360 950 m 176 910 q 103 722 176 758 q 83 714 93 717 q 74 728 74 714 q 108 826 108 769 q 83 851 108 851 q 39 867 47 851 q 28 923 28 889 q 42 972 28 957 q 97 986 56 986 q 158 968 139 986 q 176 910 176 950 z "},"":{"ha":496,"x_min":69,"x_max":426,"o":"m 426 58 q 391 -74 426 -18 q 313 -137 356 -129 q 303 -133 303 -137 l 306 -125 q 344 -43 338 -93 l 346 -26 q 326 0 346 -3 l 319 0 q 276 14 288 0 q 264 64 264 28 q 280 117 264 100 q 342 135 296 135 q 407 117 388 135 q 426 58 426 100 m 232 58 q 197 -74 232 -18 q 118 -137 161 -129 q 108 -133 108 -137 l 111 -125 q 150 -43 143 -93 l 151 -26 q 132 0 151 -3 l 125 0 q 81 14 93 0 q 69 64 69 28 q 85 117 69 100 q 147 135 101 135 q 213 117 193 135 q 232 58 232 100 z "},"":{"ha":767,"x_min":42,"x_max":678,"o":"m 311 190 l 313 558 l 63 558 q 42 586 42 558 q 101 647 42 647 q 314 649 246 647 l 314 783 q 386 846 314 846 l 392 846 q 399 840 394 846 q 404 825 404 835 l 404 650 l 657 651 q 672 647 667 651 q 678 638 678 642 l 678 633 q 622 558 678 558 l 403 558 l 401 138 q 338 81 401 81 q 311 101 311 81 l 311 190 z "},"":{"ha":767,"x_min":42,"x_max":678,"o":"m 403 406 l 657 407 q 672 402 667 407 q 678 393 678 397 l 678 389 q 622 314 678 314 l 401 314 l 401 138 q 338 81 401 81 q 311 101 311 81 q 313 314 311 196 l 63 314 q 42 342 42 314 q 101 403 42 403 q 313 404 244 403 l 313 558 l 63 558 q 42 586 42 558 q 101 647 42 647 q 314 649 246 647 l 314 783 q 386 846 314 846 l 392 846 q 399 840 394 846 q 404 825 404 835 l 404 650 l 657 651 q 672 647 667 651 q 678 638 678 642 l 678 633 q 622 558 678 558 l 403 558 l 403 406 z "},"":{"ha":354,"x_min":72,"x_max":285,"o":"m 179 214 q 158 214 179 214 q 104 240 136 214 q 72 315 72 267 q 106 394 72 364 q 183 424 140 424 q 256 397 226 424 q 285 319 285 369 q 253 242 285 269 q 179 214 222 214 z "},"":{"ha":896,"x_min":69,"x_max":825,"o":"m 753 -1 l 719 -3 q 675 11 686 -3 q 663 63 664 25 q 681 118 663 101 q 742 135 699 135 q 805 119 785 135 q 825 67 825 103 q 807 -24 825 -24 l 800 -19 q 753 -1 792 -1 m 457 -1 l 424 -3 q 379 11 390 -3 q 367 63 368 25 q 385 118 367 101 q 446 135 403 135 q 509 119 489 135 q 529 67 529 103 q 511 -24 529 -24 l 504 -19 q 457 -1 494 -1 m 160 -1 l 126 -3 q 82 11 93 -3 q 70 63 71 25 q 88 118 69 101 q 149 135 106 135 q 212 119 192 135 q 232 67 232 103 q 214 -24 232 -24 l 207 -19 q 160 -1 197 -1 z "},"":{"ha":1183,"x_min":42,"x_max":1156,"o":"m 1060 223 q 1060 320 1060 223 q 986 418 1060 418 q 913 223 913 418 q 986 28 913 28 q 1060 223 1060 28 m 1108 29 q 986 -21 1071 -21 q 859 31 901 -21 q 817 218 817 82 q 860 411 817 354 q 987 468 903 468 q 1113 411 1071 468 q 1156 224 1156 354 q 1108 29 1156 94 m 669 223 q 669 320 669 223 q 596 418 669 418 q 522 223 522 418 q 596 28 522 28 q 669 223 669 28 m 718 29 q 596 -21 681 -21 q 469 31 511 -21 q 426 218 426 82 q 469 411 426 354 q 597 468 513 468 q 723 411 681 468 q 765 224 765 354 q 718 29 765 94 m 150 -4 q 98 -31 139 -31 q 57 -15 57 -31 l 61 -4 l 664 976 q 711 996 668 996 q 754 983 754 996 l 753 976 l 150 -4 m 285 738 q 285 836 285 738 q 211 933 285 933 q 138 738 138 933 q 211 543 138 543 q 285 738 285 543 m 333 544 q 211 494 296 494 q 84 546 126 494 q 42 733 42 597 q 85 926 42 869 q 212 983 128 983 q 338 926 296 983 q 381 740 381 869 q 333 544 381 610 z "},"":{"ha":642,"x_min":69,"x_max":571,"o":"m 531 -26 q 511 -14 521 -26 q 192 194 492 7 l 92 256 q 69 289 69 274 q 96 336 69 313 q 533 639 325 513 q 551 646 543 646 q 571 608 571 646 q 544 549 571 569 q 217 326 319 411 q 204 309 204 318 q 214 294 204 300 q 539 85 474 139 q 561 44 561 72 q 531 -26 561 -26 z "},"":{"ha":643,"x_min":81,"x_max":582,"o":"m 140 -15 q 121 -26 131 -26 q 97 -6 104 -26 q 90 33 90 15 q 117 89 90 68 q 371 254 183 140 l 438 294 q 447 306 447 300 q 435 326 447 319 q 167 511 343 401 l 107 549 q 81 608 81 569 q 100 646 81 646 l 118 639 q 492 383 297 532 l 556 336 q 582 296 582 318 q 560 256 582 274 q 140 -15 165 13 z "},"":{"ha":597,"x_min":-33,"x_max":664,"o":"m 60 -4 q 8 -31 49 -31 q -33 -15 -33 -31 l -29 -4 l 574 976 q 621 996 578 996 q 664 983 664 996 l 663 976 l 60 -4 z "},"":{"ha":439,"x_min":14,"x_max":410,"o":"m 132 614 l 200 611 q 258 613 238 611 q 261 732 261 704 l 260 814 q 254 825 260 825 l 244 819 q 144 668 194 767 l 129 636 q 125 621 125 628 q 132 614 125 614 m 353 618 l 403 621 q 410 612 410 621 q 396 571 410 603 q 367 532 382 539 l 354 531 q 363 403 357 436 q 329 372 363 382 q 267 361 296 361 q 238 375 238 361 q 240 382 238 376 q 254 526 246 429 l 182 528 q 104 528 143 528 l 53 526 l 32 526 q 14 543 14 526 l 15 551 q 238 906 81 711 q 269 942 258 931 l 279 953 q 334 976 301 976 q 367 963 367 976 q 353 724 353 840 l 353 618 z "},"":{"ha":660,"x_min":8,"x_max":678,"o":"m 78 458 l 97 458 q 106 547 99 503 l 22 547 q 10 560 10 547 q 32 600 10 572 q 79 628 54 628 l 121 628 q 263 891 161 792 q 531 990 364 990 q 635 974 603 990 q 667 910 667 957 q 656 863 667 863 q 650 864 653 863 q 550 885 614 885 q 383 813 446 885 q 292 628 319 742 l 568 628 q 582 617 582 628 q 560 570 582 590 q 511 550 539 550 q 276 549 367 550 q 269 458 269 497 l 567 458 q 581 447 581 458 q 559 401 581 421 q 510 381 538 381 q 272 379 364 381 q 325 214 281 288 q 500 126 376 126 q 654 165 588 126 q 667 171 661 171 q 678 146 678 171 q 608 17 678 60 q 443 -26 538 -26 q 186 85 271 -26 q 96 378 101 197 l 21 378 q 8 390 8 378 q 31 431 8 403 q 78 458 53 458 z "},"":{"ha":694,"x_min":42,"x_max":653,"o":"m 307 421 l 304 525 q 299 565 304 551 q 293 581 293 579 q 331 599 293 593 q 388 606 368 606 q 410 597 408 606 q 475 374 460 374 q 479 378 478 374 q 544 586 517 483 q 626 607 553 607 q 653 597 653 607 q 638 447 638 521 l 636 353 l 636 294 q 647 221 636 257 q 643 213 647 215 q 597 199 625 199 q 567 214 569 199 q 564 242 564 225 l 571 471 q 567 510 571 510 q 554 487 564 510 q 509 346 544 464 q 472 225 474 228 q 450 210 467 210 l 436 217 q 372 450 422 288 l 357 501 q 354 504 357 504 q 349 379 349 504 q 357 225 349 254 l 357 222 q 303 200 357 200 q 292 203 292 200 q 294 215 292 207 q 306 314 303 242 l 307 421 m 115 600 l 196 596 q 263 603 251 596 q 278 611 275 611 q 281 603 281 611 q 272 578 281 596 q 231 550 258 550 l 200 550 l 194 546 q 192 363 192 451 q 199 224 192 275 q 172 201 199 210 q 128 193 146 193 q 111 200 111 193 q 124 314 119 221 q 129 486 129 407 l 128 546 q 99 553 128 553 q 60 545 69 553 q 46 538 50 538 q 42 542 42 538 q 47 558 42 546 q 70 585 51 569 q 115 600 89 600 z "},"":{"ha":693,"x_min":42,"x_max":650,"o":"m 101 533 q 629 538 101 533 q 644 533 639 538 q 650 524 650 528 l 650 519 q 594 444 650 444 l 63 444 q 42 472 42 444 q 101 533 42 533 z "},"":{"ha":797,"x_min":42,"x_max":754,"o":"m 424 411 l 733 413 q 749 408 743 413 q 754 399 754 403 l 754 394 q 699 319 754 319 l 394 319 l 358 200 q 331 153 349 168 q 280 139 314 139 q 246 160 246 139 q 293 319 246 175 l 65 319 q 44 347 44 319 q 104 408 44 408 q 322 410 247 408 q 371 558 349 492 l 63 558 q 42 586 42 558 q 101 647 42 647 q 400 649 296 647 l 435 761 q 462 813 443 800 q 514 826 481 826 q 547 806 547 826 q 499 650 547 803 q 731 651 571 651 q 746 647 740 651 q 751 638 751 642 l 751 633 q 696 558 751 558 l 471 558 l 424 411 z "},"":{"ha":639,"x_min":42,"x_max":596,"o":"m 174 458 l 64 503 q 43 540 43 513 q 68 589 43 567 q 448 757 339 708 q 565 806 557 806 q 585 778 585 806 q 558 714 585 731 q 189 560 294 608 q 176 548 176 554 q 186 538 176 542 q 553 386 488 425 q 575 356 575 378 q 544 299 575 299 q 517 313 536 299 q 174 458 499 326 m 575 258 q 596 244 596 258 l 596 240 q 540 165 596 165 l 63 165 q 42 194 42 165 q 101 254 42 254 l 575 258 z "},"":{"ha":639,"x_min":42,"x_max":596,"o":"m 454 646 l 564 601 q 585 565 585 592 q 560 515 585 538 q 180 347 289 396 q 63 299 71 299 q 43 326 43 299 q 69 390 43 374 q 439 544 333 496 q 451 556 451 550 q 442 567 451 563 q 75 718 140 679 q 53 747 53 726 q 83 806 53 806 q 110 792 92 806 q 454 646 129 778 m 575 258 q 596 244 596 258 l 596 240 q 540 165 596 165 l 63 165 q 42 194 42 165 q 101 254 42 254 l 575 258 z "},"":{"ha":581,"x_min":-14,"x_max":538,"o":"m 474 743 l 440 744 q 392 726 403 744 q 385 722 389 722 q 367 784 367 722 q 385 863 367 846 q 451 879 404 879 q 514 863 497 879 q 531 810 531 847 q 518 758 531 772 q 474 743 506 743 m 222 347 l 229 69 q 206 -85 229 -18 q 150 -186 183 -153 q 31 -267 82 -257 l 7 -272 q -14 -260 -14 -272 l -7 -239 q 94 450 94 -99 q 93 525 94 500 q 35 521 64 525 l 33 521 q 18 536 18 521 l 22 589 q 42 601 24 601 l 92 601 l 92 694 l 94 826 q 98 848 94 836 q 128 884 101 860 q 206 928 154 908 q 294 949 257 949 q 331 926 331 949 q 318 913 331 918 q 252 841 278 900 q 226 640 226 782 l 226 604 q 422 617 344 608 q 500 626 499 626 q 532 610 531 626 q 524 452 532 582 q 517 179 517 322 q 533 1 517 36 q 538 -12 538 -6 q 485 -31 538 -31 q 376 -3 432 -31 q 363 42 363 4 l 378 365 q 365 490 378 450 q 326 525 353 525 q 225 526 264 525 q 222 347 222 421 z "},"":{"ha":590,"x_min":-14,"x_max":549,"o":"m 538 794 l 529 285 q 544 -1 529 46 q 549 -18 549 -10 q 508 -35 549 -35 q 419 -15 468 -35 q 369 38 369 6 q 397 557 397 232 l 392 769 q 376 836 389 808 q 350 872 363 864 l 339 879 q 329 892 329 885 q 390 940 329 911 q 507 968 450 968 q 532 953 529 968 q 538 794 538 917 m 222 347 l 229 69 q 206 -85 229 -18 q 150 -186 183 -153 q 31 -267 82 -257 l 7 -272 q -14 -260 -14 -272 l -7 -239 q 94 450 94 -99 q 93 525 94 500 q 35 521 64 525 l 33 521 q 18 536 18 521 l 22 589 q 42 601 24 601 l 92 601 l 92 694 l 94 826 q 98 848 94 836 q 128 884 101 860 q 206 928 154 908 q 294 949 257 949 q 331 926 331 949 q 318 913 331 918 q 252 841 278 900 q 226 640 226 782 l 226 601 q 319 608 297 604 q 329 592 329 608 q 315 551 329 575 q 278 526 300 526 q 225 526 257 525 q 222 347 222 421 z "},"":{"ha":250,"x_min":0,"x_max":0,"o":""}}}
